<?xml version="1.0" encoding="utf-8"?>
<!-- Generator: Adobe Illustrator 16.0.0, SVG Export Plug-In . SVG Version: 6.00 Build 0)  -->
<!DOCTYPE svg PUBLIC "-//W3C//DTD SVG 1.1//EN" "http://www.w3.org/Graphics/SVG/1.1/DTD/svg11.dtd">
<!-- <svg version="1.1" id="图层_1" xmlns="http://www.w3.org/2000/svg" xmlns:xlink="http://www.w3.org/1999/xlink" x="0px" y="0px"
	 width="100px" height="100px" viewBox="0 0 100 100" enable-background="new 0 0 100 100" xml:space="preserve">
<g>
	<path fill="#69c" d="M59.767,28.048l2.516,56.983c-0.008,0.087-0.049,0.438-0.191,0.737c-0.104,0.219-0.194,0.407-0.794,0.407
		H42.754H24.211c-0.303,0-0.928,0-0.986-1.149l2.514-56.979h17.015H59.767 M62.171,25.537H42.754H23.336l-2.624,59.475
		c0,0,0,3.674,3.499,3.674h18.542h18.543c3.497,0,3.497-3.674,3.497-3.674L62.171,25.537L62.171,25.537z"/>
	<path fill="#69c" d="M72.063,32.343h-9.592l0.31,7.03h9.282c1.385,0,2.512,1.126,2.512,2.511V68.49
		c0,1.385-1.127,2.513-2.512,2.513h-7.886l0.31,7.028h7.576c5.262,0,9.541-4.279,9.541-9.541V41.883
		C81.604,36.623,77.324,32.343,72.063,32.343z"/>
	<g>
		<path fill="#69c" d="M25.929,23.537l-2.395-0.191c0.127-1.802,1.301-5.277,4.792-6.245c0.866-1.936,2.968-4.481,6.413-3.973
			c1.264-1.525,3.936-3.056,7.856-1.288c1.512-0.963,4.295-1.591,7.452,0.792c1.943-0.381,5.16-0.099,6.917,3.077
			c2.154,0.667,5.342,2.786,4.96,7.142l-2.392-0.228c0.319-3.637-3.217-4.515-3.621-4.603l-0.581-0.127l-0.261-0.563
			c-1.455-3.189-4.812-2.181-4.954-2.137l-0.607,0.19l-0.492-0.416c-3.301-2.784-5.449-0.775-5.47-0.754l-0.612,0.592l-0.746-0.394
			c-4.216-2.234-5.82,0.603-5.886,0.725l-0.457,0.839l-0.893-0.245c-3.253-0.893-4.49,2.481-4.62,2.869l-0.236,0.704l-0.707,0.125
			C26.252,19.958,25.939,23.391,25.929,23.537z"/>
	</g>
	<polygon fill="#69c" points="33.133,38.656 33.133,81.671 29.285,81.671 29.285,38.656 22.987,38.656 22.987,86.587 
		62.471,86.587 62.471,38.656 	"/>
</g>
</svg> -->
<svg t="1626434577032" class="icon" viewBox="0 0 1804 1024" version="1.1" xmlns="http://www.w3.org/2000/svg" p-id="1271" width="200" height="200"><path d="M414.411152 228.344686h874.431323c8.970244 22.222941 13.781396 48.217262 13.781396 78.194441 0 340.781138-276.262353 617.04349-617.043491 617.043491S68.554513 647.320265 68.554513 306.539127c0-31.721883 1.656587-57.469478 4.652543-78.194441h135.047105a776.375458 776.375458 0 0 1 51.38945 78.194441l21.870476-41.643782 29.219378 27.139833 29.642337-18.292953 23.914775 18.292953 19.508958-48.74596 21.694244 6.168144s3.806626-9.269839 8.917373-21.112676z" fill="#FD6B6F" p-id="1272"></path><path d="M156.177403 228.344686H73.136563c-2.995956 20.724963-4.652543 46.507805-4.652543 78.194441 0 340.781138 276.262353 617.04349 617.025867 617.043491s617.113983-276.262353 617.113984-617.043491c0-29.959556-4.811152-55.9715-13.781396-78.194441h78.123948a264.595749 264.595749 0 0 1 4.211961 48.252509c0 378.653541-306.944463 685.545134-685.545134 685.545134s-685.545134-306.944463-685.545134-685.545134c0-17.623268 0.458205-33.748559 1.339369-48.252509z" fill="#2BBC21" p-id="1273"></path><path d="M988.594854 373.437054c0 38.418725-75.110369 43.652835-75.110369 0s42.701179-106.55028 42.701179-106.55028 32.40919 68.113932 32.40919 106.55028z m-587.771242 137.355752c0 38.418725-75.110369 43.652835-75.110369 0s42.701179-106.55028 42.701179-106.55028 32.40919 68.113932 32.40919 106.55028z m359.884761 0c0 38.418725-75.110369 43.652835-75.110369 0s42.701179-106.55028 42.701179-106.55028 32.40919 68.113932 32.40919 106.55028z m413.635728 0c0 38.418725-75.110369 43.652835-75.110369 0s42.701179-106.55028 42.701179-106.55028 32.40919 68.113932 32.40919 106.55028zM580.686688 579.470682c0 38.418725-75.110369 43.652835-75.110369 0s42.701179-106.55028 42.701179-106.550279S580.686688 541.034334 580.686688 579.470682z m407.837673 34.34775c0 38.418725-75.110369 43.652835-75.110369 0s42.701179-106.55028 42.701179-106.55028 32.479683 68.113932 32.479683 106.55028z m-499.355305 149.039979c0 38.418725-75.110369 43.652835-75.110369 0s42.701179-106.55028 42.701179-106.550279 32.40919 68.113932 32.40919 106.550279z m271.539317 0c0 38.418725-75.110369 43.652835-75.110369 0s42.701179-106.55028 42.701179-106.550279 32.40919 68.113932 32.40919 106.550279z" fill="#666666" p-id="1274"></path><path d="M1386.352018 75.515704s4.687789 168.566561-150.802306 429.902005-475.017572 512.414147-475.017572 512.414147 145.356716 10.485845 324.268135-99.959177c107.30808-66.245865 226.864332-201.680682 295.330729-307.896119 182.594682-283.276413 119.380019-528.698047 119.380019-528.698047z" fill="#FFE06C" p-id="1275"></path><path d="M771.42332 1023.665158c-6.925944 0-10.803063-0.264349-11.278892-0.299596l-14.327717-1.022149 11.296515-8.811634c0.793047-0.634438 80.873178-63.760984 178.876173-157.93973 90.336873-86.812219 214.82764-218.528526 294.80203-352.958816C1383.690904 245.597866 1380.783065 77.348524 1380.783065 75.674314l-0.176233-6.009535 123.186645 6.344377 1.02215 3.947612c0.652061 2.537751 15.949058 63.320403 8.934997 159.878289-6.450116 88.909388-34.083401 225.842182-129.03757 373.155082-65.08273 100.963704-185.802117 240.910077-297.075432 309.605576-93.121349 57.504724-177.043353 81.842458-231.05867 92.134446-40.286791 7.683745-69.999621 8.934997-85.155632 8.934997zM1391.885724 81.366629c-0.334842 14.186731-2.69636 52.869805-17.217933 112.418828-16.794975 68.625006-53.662852 178.893796-134.342174 314.469599S1034.450598 776.322588 943.585027 863.628259c-76.114895 73.136563-141.479597 127.645332-167.544411 148.863747a469.113777 469.113777 0 0 0 78.969865-8.811634c52.993168-10.151002 135.3467-34.083401 226.829085-90.583599 109.810584-67.77909 229.102487-206.192238 293.586026-306.169039 93.544308-145.145237 120.84275-279.927992 127.257619-367.445142 5.939041-81.225643-4.47631-137.884451-7.701368-152.864229z" fill="#FFCA06" p-id="1276"></path><path d="M1507.670596 75.850546s4.405817 168.601807-139.347181 429.902005-439.189467 512.361277-439.189468 512.361277 134.395043 10.573961 299.771793-99.959177c99.183754-66.245865 209.716892-201.680682 273.037294-307.896119 168.813286-283.276413 110.374529-528.698047 110.374529-528.698047z" fill="#FFE06C" p-id="1277"></path><path d="M939.17921 1024c-6.432493 0-10.02764-0.264349-10.468221-0.299596l-13.428931-1.057396 10.256742-8.705894c0.740177-0.634438 74.775527-63.760984 165.376749-157.922107 83.516668-86.812219 198.59661-218.528526 272.543843-352.941192s107.590052-243.201101 122.93992-310.944945c16.636365-73.453782 15.860941-115.732002 15.860941-116.137337l-0.140986-6.027158 114.709853 6.379623 0.969279 4.035728c0.599191 2.537751 14.715429 63.267533 8.24769 159.754927-5.956665 88.874142-31.49278 225.736443-119.256656 373.014095-60.253954 100.963704-171.826865 240.9277-274.799621 309.676069-86.177782 57.539971-163.896394 81.912951-213.85836 92.204939-37.396575 7.701368-64.888874 8.970244-78.952242 8.970244zM1513.257172 81.719095c-0.299596 14.098615-2.484881 52.869805-15.860941 112.295465-15.490853 68.607383-49.6095 178.840926-124.173548 314.416728S1182.838516 776.481198 1098.810774 863.804492c-70.493073 73.242303-131.064246 127.874434-155.084761 149.022356a401.528543 401.528543 0 0 0 72.643112-8.811634c48.922193-10.133379 124.966595-34.048154 209.434919-90.460236 101.492402-67.77909 211.796437-206.192238 271.398331-306.116169 86.65361-145.391963 111.854883-280.421444 117.723432-368.097203 5.44559-81.067034-4.123845-137.355753-7.049308-152.406024z" fill="#FFCA06" p-id="1278"></path><path d="M1641.801291 75.850546s4.335324 168.601807-139.417675 429.902005-439.189467 512.361277-439.189467 512.361277 134.395043 10.573961 299.771792-99.959177c99.183754-66.245865 209.716892-201.680682 273.037295-307.896119 168.813286-283.276413 110.374529-528.698047 110.374528-528.698047z" fill="#FFE06C" p-id="1279"></path><path d="M1073.239411 1024c-6.432493 0-10.045263-0.264349-10.573961-0.299596l-13.411307-1.057396 10.256742-8.705894c0.740177-0.634438 74.775527-63.760984 165.359126-157.922107 83.534291-86.812219 198.614233-218.528526 272.561466-352.941192C1638.911075 246.020824 1636.320454 77.665743 1636.320454 75.991533l-0.158609-6.027158 114.727476 6.379623 0.951657 4.035728c0.616814 2.537751 14.733052 63.267533 8.265312 159.754927-5.974288 88.874142-31.49278 225.736443-119.274279 373.014095-60.236331 100.963704-171.932605 240.9277-274.781998 309.676069-86.177782 57.539971-163.896394 81.912951-213.875983 92.204939-37.326082 7.701368-64.87125 8.970244-78.934619 8.970244zM1647.317374 81.719095c-0.299596 14.098615-2.484881 52.869805-15.860942 112.295465-15.473229 68.607383-49.591877 178.840926-124.155924 314.416728s-190.331297 268.04991-274.376663 355.373204c-70.493073 73.295173-131.064246 127.874434-155.084761 149.004733a401.528543 401.528543 0 0 0 72.643112-8.811634c48.922193-10.133379 124.966595-34.048154 209.43492-90.460236 101.474778-67.77909 211.796437-206.192238 271.39833-306.116169 86.65361-145.391963 111.83726-280.421444 117.723432-368.097204 5.44559-81.067034-4.141468-137.355753-7.049307-152.406023z" fill="#FFCA06" p-id="1280"></path><path d="M1314.748679 88.169211a22.205318 22.205318 0 0 0 22.205318 22.205318h445.463351a22.205318 22.205318 0 0 0 22.205318-22.205318V22.205318A22.205318 22.205318 0 0 0 1782.417348 0H1336.953997a22.205318 22.205318 0 0 0-22.205318 22.205318z" fill="#FFCA06" p-id="1281"></path><path d="M1549.807831 501.575837c-13.975252-6.432493-21.57088 12.847363-32.021479 39.423251-3.524654 9.181723-7.578005 19.226986-12.336287 29.377988-7.207917 15.649462-16.812598 28.761174-24.672576 39.440874-11.948576 16.33677-19.73806 26.9636-8.388676 32.197711 18.786404 8.653025 48.79883-16.407263 66.96842-55.953876s29.219379-75.832923 10.450598-84.485948z m-329.837088 67.144652c10.450598-26.575888 18.046227-45.820497 32.021478-39.423251 18.768781 8.653025 7.965717 44.904087-10.256742 84.468324s-48.234885 64.624525-66.968419 55.9715c-11.349385-5.28698-3.524654-15.860941 8.388675-32.215334 7.807108-10.679701 17.411789-23.791412 24.672576-39.423251 4.564426-10.115756 8.529662-20.161019 12.142432-29.377988z m134.042578 0c10.468221-26.575888 18.06385-45.820497 32.021478-39.423251 18.786404 8.653025 7.983341 44.904087-10.256742 84.468324s-48.217262 64.624525-66.968419 55.9715c-11.349385-5.28698-3.524654-15.860941 8.388675-32.215334 7.807108-10.679701 17.411789-23.791412 24.672576-39.423251 4.58205-10.115756 8.529662-20.161019 12.142432-29.377988z m61.875294 119.521005c7.419396-10.362482 19.755684-14.221977 27.580415-8.635402s8.14195 18.539678 0.722554 28.90216-19.773307 14.221977-27.598038 8.617778-8.14195-18.486808-0.704931-28.84929zM1145.653421 707.397986c-7.824731-5.586576-20.161019-1.762327-27.580415 8.617779s-7.049307 23.315584 0.70493 28.902159 20.161019 1.762327 27.598039-8.635401 7.066931-23.280337-0.722554-28.884537z m134.042578 0c-7.807108-5.586576-20.143396-1.762327-27.562792 8.617779s-7.049307 23.315584 0.687308 28.902159 20.178642 1.762327 27.598038-8.635401 7.102177-23.280337-0.722554-28.884537z" fill="#FFFFFF" p-id="1282"></path></svg>