<?xml version="1.0" encoding="utf-8"?>
<!-- Generator: Adobe Illustrator 16.0.0, SVG Export Plug-In . SVG Version: 6.00 Build 0)  -->
<!DOCTYPE svg PUBLIC "-//W3C//DTD SVG 1.1//EN" "http://www.w3.org/Graphics/SVG/1.1/DTD/svg11.dtd">
<!-- <svg version="1.1" id="图层_1" xmlns="http://www.w3.org/2000/svg" xmlns:xlink="http://www.w3.org/1999/xlink" x="0px" y="0px"
	 width="100px" height="100px" viewBox="0 0 100 100" enable-background="new 0 0 100 100" xml:space="preserve">
<g>
	<g>
		<path fill="#9c9" d="M53.43,22.74c-1.962,2.26-3.222,5.142-3.443,8.313h11.756L53.43,22.74z"/>
		<path fill="#9c9" d="M63.166,17.873c-3.171,0.222-6.052,1.482-8.312,3.444l8.312,8.312V17.873z"/>
		<path fill="#9c9" d="M73.493,21.317c-2.26-1.962-5.141-3.222-8.312-3.444v11.756L73.493,21.317z"/>
		<path fill="#9c9" d="M74.918,41.381c1.962-2.26,3.222-5.142,3.443-8.313H66.604L74.918,41.381z"/>
		<path fill="#9c9" d="M78.361,31.054c-0.222-3.171-1.481-6.053-3.443-8.313l-8.313,8.313H78.361z"/>
		<path fill="#9c9" d="M65.18,46.249c3.171-0.222,6.054-1.482,8.313-3.443l-8.313-8.313V46.249z"/>
	</g>
	<path fill="#9c9" d="M44.991,33.751H27.459l2.307,56.592c5.306,2.537,15.225,1.846,15.225,1.846s9.917,0.691,15.222-1.846
		l2.307-56.592H44.991z"/>
	<g>
		<polygon fill="#9c9" points="31.526,31.289 23.17,11.48 27.844,9.508 37.109,31.289 		"/>
	</g>
</g>
</svg> -->
<svg t="1626440018667" class="icon" viewBox="0 0 1024 1024" version="1.1" xmlns="http://www.w3.org/2000/svg" p-id="29873" width="200" height="200"><path d="M275.1 803.4c8.6-70.7 5.3-43.2 13.3-111.3l-1.9-1c-20.4-9-40.7-18.4-60.8-28.2-9.3-4.5-16.4-41.7-20.2-51.1l-9.5-6c-3.1-6.9-1-13.8 0-21.2 1.1-8.2 2.4-16.3 3.8-24.4 10-58.3 26.3-115.7 49.1-170.4 18.2-43.8 40.5-86.8 69.7-124.3 10.7-13.8 22.5-27 36.2-38 5.4-4.4 11.2-8.4 17.3-11.8 3.6-2 11.7-7.1 16-6.4l14.7 2.4c33.4 15.8 177.3 15.8 210.7 0l14.5-2.4c4.3-0.7 12.4 4.5 16 6.4 6.1 3.3 11.9 7.4 17.3 11.8 13.6 11 25.4 24.2 36.2 38C726.7 303 749 346 767.2 389.8 789.7 444.6 806 502 816 560.3c1.4 8.4 2.8 16.9 3.9 25.3 1.1 7.7 2.7 14.2-0.2 21.4 0 0-8 1.9-9.4 4.8-2.1 4.4-8.6 44.2-12.4 47.4-1.9 1.6-5.8 2.7-8.1 3.8-20 9.7-40.2 19.1-60.6 28 5.9 49 6.4 69.4 11.6 112.2H469.3h77.2-270.6l-0.8 0.2z" fill="#FE9191" p-id="29874"></path><path d="M819.9 585.7c-1.2-8.5-2.5-16.9-3.9-25.3-10-58.4-26.3-115.8-49-170.5-18.2-43.8-40.5-86.8-69.7-124.3-10.5-13.5-22-26.4-35.2-37.3-4.9-4-13.5-9.8-19-13-3.9-2.2-11.2-6.7-15.2-6l-14.5 2.4c-0.5 0.2-1.1 0.5-1.6 0.7-3.7 1.5-8.4 2.9-14 4.1 0.2 0.1 0.3 0.2 0.5 0.3-9.6 2.3-19.8 3.2-29.4 4-25.4 2.2-50.9 3.1-76.4 2.5-22.2-0.5-44.7-1.6-66.7-5.4-5.3-0.9-10.6-2-15.7-3.5-2-0.6-5.3-2.7-7.3-2.7-5.2-0.1-6.3 8.1-5.8 12.1 3.2 1.7 104.6 57.3 104.6 57.3h6.5l102.3-56.3c1.1 0.9 2.2 1.7 3.3 2.6 13.6 11 25.4 24.2 36.2 38 29.2 37.5 51.5 80.5 69.7 124.3 22.7 54.7 39.1 112.1 49.1 170.4 1.4 8.4 2.8 16.9 3.9 25.3 1.1 7.7 2.7 14.2-0.2 21.4 0 0-18.1 49.1-21.8 52.3-1.9 1.6-5.8 2.7-8.1 3.8-15.5 7.5-31.1 14.8-46.7 21.9-8.2 3.7-13.1 12.3-12.1 21.3 4.3 38.7 5.2 59 9.8 97.2h-0.9 48.5c-5.2-42.8-5.7-63.2-11.6-112.2 20.4-9 40.6-18.4 60.6-28 2.3-1.1 6.2-2.2 8.1-3.8 3.7-3.2 10.2-43.1 12.4-47.4 1.4-3 9.4-4.8 9.4-4.8 2.7-7.2 1-13.8-0.1-21.4zM397 224.6c0-0.2-0.1-0.4-0.1-0.6h-0.1l0.2 0.6z" fill="#E4406F" p-id="29875"></path><path d="M396.8 223.7l104.7 57.7s-70.3 65.2-104.7-57.7zM612.7 223.7L508 281.4s70.3 65.2 104.7-57.7z" fill="#FE9191" p-id="29876"></path><path d="M268.5 343.1c14.9 17 33.6 30.4 48.5 47.4 5.6 6.4 14.9-3 9.3-9.3-14.9-17-33.6-30.4-48.5-47.4-5.6-6.5-14.9 2.9-9.3 9.3zM202.1 617.6c29.3 13.8 58 28.8 87.3 42.5 7.6 3.6 14.3-7.8 6.7-11.4-29.3-13.8-58-28.8-87.3-42.5-7.7-3.5-14.4 7.8-6.7 11.4z" fill="#FFFFFF" p-id="29877"></path><path d="M609.6 205.6c-1.8 0.8 0.6-0.2-1.3 0.5-1 0.3-1.9 0.7-2.9 1-2.4 0.8-4.9 1.4-7.4 2-5.8 1.4-11.8 2.4-17.7 3.2-14.7 2-29.8 3-44.6 3.5-32.1 1.2-64.5 0.8-96.4-3.1-6.4-0.8-12.9-1.8-19.3-3.2-2.8-0.6-5.6-1.3-8.4-2.1l-3.6-1.2c-0.4-0.1-0.7-0.3-1.1-0.4-1.3-0.5 1.2 0.5-0.7-0.3-8.5-3.9-15.9 8.7-7.4 12.6 10.1 4.7 21.3 6.6 32.2 8.2 15.8 2.2 31.8 3.4 47.8 4.1 33.1 1.3 66.6 0.9 99.5-3.2 13-1.6 26.5-3.4 38.5-9 8.7-3.9 1.3-16.6-7.2-12.6z" fill="#9C297F" p-id="29878"></path><path d="M490.8 300c-10.9 32-20 64.5-27.1 97.6-1.8 8.3 10.9 11.8 12.7 3.5 7.1-33 16.1-65.6 27.1-97.6 2.7-8-10-11.5-12.7-3.5z" fill="#FFFFFF" p-id="29879"></path><path d="M620 224.5c0.4-3.2-1.2-5.6-3.6-6.9-2-1.4-4.6-1.7-7.4-0.2l-91.5 50.4c-4.2 2.3-8.5 4.7-12.7 7-30.4-16.7-60.7-33.4-91.1-50.1-4.4-2.4-8.8-4.9-13.2-7.3-2.7-1.5-5.4-1.1-7.4 0.2-2.4 1.3-4.1 3.7-3.6 6.9 0 0.9 0.2 1.7 0.6 2.6 8.4 29.4 22.8 65.8 54.4 76.5 17.3 5.8 36.2 0.6 51.2-8.8 3.1-2 6.2-4.1 9-6.5 7.9 6.8 17.7 12 27.6 15.1 21.9 6.8 43.8-0.6 58.7-17.8 14.3-16.5 22.4-37.7 28.4-58.4 0.4-1 0.6-1.8 0.6-2.7z m-141.7 62.9c-0.3 0.1-1.2 0.5 0 0z m0.1 0c-0.4 0.2-0.7 0.3-1.1 0.4-1 0.4-1.9 0.7-2.9 1-1.8 0.6-3.7 1.1-5.6 1.5-0.9 0.2-1.7 0.4-2.6 0.5-0.2 0-0.4 0.1-0.7 0.1-0.4 0.1-0.9 0.1-1.3 0.1-2 0.1-3.9 0.2-5.9 0.1-3.4-0.1-2.5 0-5.4-0.7-5.2-1.1-7.7-2.2-12-4.8-4.6-2.8-8.3-6.3-12.1-10.7-9-10.4-15-23.1-19.6-36.2 25.1 13.8 50.3 27.7 75.4 41.5 1.1 0.6 2.3 1.2 3.4 1.9-1.6 1-3.3 2-5 2.9-1.5 0.9-3.1 1.7-4.6 2.4z m104.9-15.5c-6.4 8.5-14.6 15.3-23.5 17.9-4.8 1.5-6.2 1.6-11.4 1.5-1 0-2-0.1-3.1-0.2-1.2-0.1-2-0.2-1.4-0.1-2-0.3-4.1-0.8-6.1-1.3-1.7-0.5-3.4-1.1-5.1-1.7-0.3-0.1-1.2-0.5-1.5-0.6-0.8-0.4-1.6-0.7-2.4-1.1-2.5-1.2-4.9-2.6-7.3-4 26.2-14.4 52.5-28.9 78.7-43.3-4.2 11.6-9.5 23-16.9 32.9z" fill="#FFFFFF" p-id="29880"></path><path d="M506 303.5c10.9 32 20 64.5 27.1 97.6 1.8 8.3 14.5 4.8 12.7-3.5-7.1-33-16.1-65.6-27.1-97.6-2.7-7.9-15.5-4.5-12.7 3.5z" fill="#FFFFFF" p-id="29881"></path><path d="M212.4 647.5c12.2 0 12.3-19 0-19-12.2-0.1-12.3 19 0 19z" fill="#9C297F" p-id="29882"></path><path d="M737.9 333.7c-14.9 17-33.6 30.4-48.5 47.4-5.6 6.4 3.7 15.7 9.3 9.3 14.9-17 33.6-30.4 48.5-47.4 5.6-6.3-3.7-15.7-9.3-9.3zM807 606.2c-29.3 13.8-58 28.8-87.3 42.5-7.7 3.6-1 15 6.7 11.4 29.3-13.8 58-28.8 87.3-42.5 7.6-3.6 0.9-15-6.7-11.4z" fill="#FFFFFF" p-id="29883"></path><path d="M803.3 647.5c12.2 0 12.3-19 0-19-12.2-0.1-12.2 19 0 19z" fill="#9C297F" p-id="29884"></path><path d="M794.5 652.7c-20.2 9.9-40.6 19.4-61.1 28.6-9.5-78.2-19-156.5-28.5-234.7l-12.3-101.1c-0.5-4-3-7.3-7.3-7.3-3.6 0-7.8 3.4-7.3 7.3 14.4 118.9 28.8 237.8 43.3 356.7 3.8 31.3 7.6 62.5 11.4 93.8H283.4c14.1-116.5 28.3-233 42.4-349.5l12.3-101.1c0.5-4-3.7-7.3-7.3-7.3-4.3 0-6.8 3.4-7.3 7.3-13.6 111.9-27.2 223.9-40.7 335.8-20.6-9.2-41.1-18.7-61.3-28.7-8.4-4.2-15.8 8.5-7.4 12.6 22.1 10.9 44.4 21.2 66.8 31.2-0.2 1.9-0.5 3.9-0.7 5.8l-12.3 101.1c-0.5 4 3.7 7.3 7.3 7.3H741c3.6 0 7.8-3.4 7.3-7.3-4.3-35.6-8.6-71.3-13-106.9 22.4-9.9 44.7-20.3 66.7-31.1 8.3-4 0.9-16.6-7.5-12.5z" fill="#9C297F" p-id="29885"></path><path d="M386 202.4c-17.4 4.4-32.6 15.9-45.5 27.9-18 16.8-33.2 36.8-46.7 57.4-36.9 56.1-62.8 119.7-81.3 184.1-12.3 43-21 87-26.2 131.5-0.5 4 3.7 7.3 7.3 7.3 4.3 0 6.9-3.4 7.3-7.3 8.6-73.6 27.4-146.5 56.3-214.7 12-28.4 25.9-56.1 42.1-82.4 12.9-20.9 27.3-41 44.4-58.6 7.6-7.8 15.4-14.9 24-20.6 7.7-5.2 13.8-8.4 22.1-10.5 9.2-2.3 5.3-16.4-3.8-14.1zM625.9 216.5c7.5 1.9 12.2 4.2 19.2 8.6 7.9 4.9 14.3 10.3 21.2 16.8 17.3 16.5 31.8 35.8 44.8 55.8 35.3 54.5 60.3 115.7 78.1 178 12 41.7 20.7 84.4 25.7 127.6 0.5 4 3 7.3 7.3 7.3 3.6 0 7.8-3.4 7.3-7.3-8.9-76.1-28.1-150.8-58-221.4-22.1-52.2-50.2-105.4-90.5-146-14.2-14.3-31.3-28.5-51.3-33.5-9.1-2.3-13 11.8-3.8 14.1z" fill="#9C297F" p-id="29886"></path></svg>