<?xml version="1.0" encoding="utf-8"?>
<!-- Generator: Adobe Illustrator 16.0.0, SVG Export Plug-In . SVG Version: 6.00 Build 0)  -->
<!DOCTYPE svg PUBLIC "-//W3C//DTD SVG 1.1//EN" "http://www.w3.org/Graphics/SVG/1.1/DTD/svg11.dtd">
<!-- <svg version="1.1" id="图层_1" xmlns="http://www.w3.org/2000/svg" xmlns:xlink="http://www.w3.org/1999/xlink" x="0px" y="0px"
	 width="100px" height="100px" viewBox="0 0 100 100" enable-background="new 0 0 100 100" xml:space="preserve">
<path fill="#c3c" d="M71.703,43.345c-0.23-7.822-6.673-7.133-8.512-7.362c-1.841-0.23-4.142-2.761-4.142-2.761l-1.329-13.114
	v-1.15v-1.381v-2.989l-0.511-1.38c1.149-2.072,0-2.301,0-2.301h-5.061h-0.231h-5.061c0,0-1.149,0.229,0,2.301l-0.511,1.38v2.989
	v1.381v1.15l-1.33,13.114c0,0-2.3,2.531-4.14,2.761c-1.841,0.229-8.283-0.46-8.512,7.362l-2.072,46.242c0,0,1.611,1.839,5.981,1.839
	h15.645h0.231h15.643c4.372,0,5.981-1.839,5.981-1.839L71.703,43.345z M64.456,78.932H39.61V51.018h24.846V78.932z"/>
</svg> -->
<svg t="1626439318681" class="icon" viewBox="0 0 1024 1024" version="1.1" xmlns="http://www.w3.org/2000/svg" p-id="17893" width="170" height="120"><path d="M259 153.6c-86.8 43.9-121.4 150-77 236.6l23.5 46c1.6 3.2 2.5 6.8 2.5 10.4l19.6 299.5c0 12.6 10.2 22.7 22.7 22.7h-0.2c12.6 0 22.7-10.2 22.7-22.7V443.3c0-3.9 1-7.7 2.9-11.1 8.1-14.5 28.6-15.6 38.3-2.1 0 0 16 16 20 19.5 61.5 54.1 98.3 131.2 101.5 213.5l0.3 8.7c6 67.4 62.5 119 130.1 119h9.7c1.3 0 2.7-0.1 4-0.4 0 0 311.9-19.2 322.9-88.9S775.3 622 739.8 617.1c-31.8-4.4-162.6-13.9-211.5-115-5.7-11.8-24.9-57.5-30.8-69-50.2-98.5-109.2-301.8-157.4-305.1L259 153.6z" fill="#FA68A9" p-id="17894"></path><path d="M252.7 768.8h-0.1-0.1 0.2zM742.4 617.2c-31.8-4.4-162.6-13.9-211.5-115-5.7-11.8-24.9-57.5-30.8-69-50.4-98.6-109.4-301.9-157.6-305.2l-7.1 2.2c46.6 22.7 102 209.7 149.7 303 5.9 11.5 25.1 57.2 30.8 69 48.9 101.1 179.8 110.6 211.5 115 35.5 4.9 173.7 14.7 162.7 84.4s-322.9 88.9-322.9 88.9c-0.9 0.2-1.7 0.2-2.6 0.3 1.3 0 2.6 0.1 3.9 0.1h9.7c1.3 0 2.7-0.1 4-0.4 0 0 311.9-19.2 322.9-88.9 11-69.8-127.2-79.5-162.7-84.4zM263.1 432.2a22.7 22.7 0 0 0-2.9 11.1V746c0 9.9-6.3 18.3-15.1 21.4 2.3 0.8 4.9 1.3 7.5 1.3 12.5-0.1 22.6-10.2 22.6-22.7V443.3c0-3.9 1-7.7 2.9-11.1 2.9-5.2 7.4-8.6 12.3-10.3-9.8-3.4-21.5 0.1-27.3 10.3z" fill="#D53D83" p-id="17895"></path><path d="M575.8 793.8H566c-33.5 0-65.5-12.4-90.2-35-24.7-22.6-39.9-53.4-42.9-86.7v-0.1l-0.3-8.7c-3.1-80.9-39.8-157.9-100.5-211.4-4-3.5-19.5-19-20.1-19.6l-0.3-0.4c-4-5.5-10.4-8.6-17.1-8.2-6.8 0.4-12.8 4.1-16.1 10-1.7 2.9-2.5 6.3-2.5 9.7v302.7c0 14.1-11.4 25.6-25.5 25.7h-0.2c-14.1-0.1-25.5-11.6-25.5-25.6L205 446.6v-0.1c0-3.1-0.7-6.2-2.2-9l-23.5-46c-21.8-42.6-25.6-91.1-10.8-136.6s46.5-82.5 89.2-104.1l0.5-0.2 81.6-25.7h0.6c34.4 2.3 70.6 92.6 108.9 188.1 17.9 44.6 34.8 86.8 51.2 118.7 3.3 6.4 10.5 23 17.5 39.1 5.5 12.7 10.8 24.8 13.3 30 45 93 163 107.6 201.8 112.4 2.9 0.4 5.4 0.7 7.5 1 3.1 0.4 6.9 0.9 11.4 1.4 38.2 4.6 117.6 14.1 144.9 50.3 8 10.6 11 22.7 8.9 36.1-4.8 30.3-61.3 54.9-168 73.1-76.8 13.1-153.3 18.1-157.5 18.3-1.6 0.3-3.1 0.4-4.5 0.4zM438.9 671.6c5.9 66.3 60.6 116.2 127.1 116.2h9.7c1.2 0 2.3-0.1 3.5-0.3h0.3c0.8 0 78.8-5 157-18.3 102.4-17.4 158.8-41 163.1-68.1 1.9-11.9-0.7-22.2-7.7-31.6-25.8-34.2-103.5-43.5-140.9-48-4.5-0.5-8.4-1-11.5-1.4-2.1-0.3-4.5-0.6-7.4-0.9-21.1-2.6-60.5-7.5-101-23.7-50.1-20-85.5-51-105.4-92-2.6-5.3-7.8-17.4-13.4-30.2-6.9-16-14.1-32.4-17.3-38.7-16.5-32.2-33.4-74.5-51.4-119.2-34-85-72.6-181.2-103.1-184.4l-80.3 25.3c-41.2 20.9-71.7 56.5-86 100.4-14.3 44-10.6 90.9 10.5 132l23.5 46c1.8 3.6 2.8 7.6 2.8 11.6L230.6 746v0.1c0 10.8 8.8 19.7 19.6 19.7 10.8-0.1 19.6-8.9 19.6-19.7V443.3c0-4.4 1.1-8.8 3.3-12.6 4.3-7.7 12.2-12.6 21-13.1 8.7-0.5 17 3.4 22.2 10.5 1.7 1.7 16 16 19.7 19.2 30.9 27.2 55.6 59.9 73.3 97.2 17.8 37.3 27.6 77.2 29.2 118.5l0.4 8.6z" fill="#3D379B" p-id="17896"></path><path d="M638.3 663.6c-15.7 0-30.7-2.3-44.7-7-26.5-8.8-49.6-26-68.7-51-62.7-82.4-132-249.7-165.3-330.1-10.4-25.2-18-43.4-20.8-48.1-2-3.5-4.9-7.7-7.9-12.1-15.1-22.1-38-55.5-15.1-82.2l4.6 3.9c-19.9 23.3 0.6 53.1 15.5 75 3.1 4.5 6 8.8 8.2 12.4 3 5.1 10.2 22.5 21.1 48.9 33.2 80.2 102.3 247 164.6 328.7 33.2 43.6 77.7 61.8 132.3 53.9 41-5.9 72.6-25.1 72.9-25.3l0.4-0.2c5.1-2.2 19.3-8.8 23.2-12.7l4.3 4.2c-5.3 5.3-22.2 12.7-24.9 13.9-3 1.8-33.8 20-74.8 26-8.7 1.1-16.9 1.8-24.9 1.8z" fill="#3D379B" p-id="17897"></path><path d="M205.8 374.6c-1.5 0-2.8-1.1-3-2.7-5.7-55.1 0-99.8 17.1-133.1 0.8-1.5 2.6-2.1 4-1.3 1.5 0.8 2.1 2.6 1.3 4-16.5 32.2-22.1 75.8-16.5 129.7 0.2 1.6-1 3.1-2.7 3.3 0 0-0.1 0.1-0.2 0.1z" fill="#FFFFFF" p-id="17898"></path><path d="M239.3 218.8c-0.7 0-1.4-0.3-2-0.8-1.2-1.1-1.3-3-0.2-4.2 18.2-20.3 36.3-24.9 37.1-25.1 1.6-0.4 3.2 0.6 3.6 2.2 0.4 1.6-0.6 3.2-2.2 3.6-0.3 0.1-17.2 4.5-34 23.3-0.7 0.6-1.5 1-2.3 1z" fill="#FFFFFF" p-id="17899"></path></svg>