<?xml version="1.0" encoding="utf-8"?>
<!-- Generator: Adobe Illustrator 16.0.0, SVG Export Plug-In . SVG Version: 6.00 Build 0)  -->
<!DOCTYPE svg PUBLIC "-//W3C//DTD SVG 1.1//EN" "http://www.w3.org/Graphics/SVG/1.1/DTD/svg11.dtd">
<!-- <svg version="1.1" id="图层_1" xmlns="http://www.w3.org/2000/svg" xmlns:xlink="http://www.w3.org/1999/xlink" x="0px" y="0px"
	 width="100px" height="100px" viewBox="0 0 100 100" enable-background="new 0 0 100 100" xml:space="preserve">
<path fill="#936" d="M70.932,41.415c-3.484-6.679-9.292-5.808-9.292-5.808c3.775-24.393-10.454-22.94-10.454-22.94
	s-14.229-1.452-10.454,22.94c0,0-5.808-0.871-9.292,5.808c-3.485,6.68-16.553,39.204-15.391,45.011c0,0,4.646,3.195,7.26,2.905
	c2.614-0.292,10.273-18.006,10.273-18.006v12.778l17.604,0.29l17.604-0.29V71.325c0,0,7.66,17.714,10.273,18.006
	c2.615,0.29,7.26-2.905,7.26-2.905C87.484,80.619,74.416,48.095,70.932,41.415z M51.186,35.607c0,0-9.292-0.291-8.421-12.196
	c0,0,0.581-7.84,8.421-7.84c7.84,0,8.422,7.84,8.422,7.84C60.479,35.316,51.186,35.607,51.186,35.607z"/>
</svg> -->
<svg t="1626445597712" class="icon" viewBox="0 0 2000 2000" version="1.1" xmlns="http://www.w3.org/2000/svg" p-id="1034" width="100px" height="100px" ><path d="M127.193872 911.316426c-34.380255 2.091574-75.928511-28.127319-58.324425-61.941107 29.30383-56.341787 85.667404-27.01617 127.825702-51.417872 42.180085-24.401702 219.76783-155.234043 281.708936-213.580256 57.73617-54.359149 263.538383-332.494979 581.152681-493.698723-146.998468 143.948255-304.803404 219.353872-471.257872 414.153532 110.330553-104.469787 546.510979-425.853277 685.426383-481.715745-104.774809 71.832511-657.930894 487.445787-698.781958 533.569362 53.030128-25.055319 606.861617-429.774979 723.837277-480.539234-237.546213 221.794043-743.271489 520.126638-774.906553 538.210043-31.656851 18.083404-301.491745 224.299574-312.995405 237.306553-30.632851 34.598128-40.197447 56.995404-83.662978 59.653447z" fill="#75A550" p-id="1035"></path><path d="M65.971745 856.543319c8.453447 20.218553 35.927149 34.489191 59.914893 33.029447 35.687489-2.178723 48.52017-17.64766 68.913022-42.267234 4.466383-5.381447 9.259574-11.198638 14.749957-17.386213 11.525447-13.006979 282.013957-208.351319 313.670809-226.434723 28.802723-16.471149 504.744851-314.433362 691.875404-467.684766 31.286468-23.726298 67.540426-52.637957 83.662979-59.653447-237.524426 221.794043-743.249702 520.126638-774.884766 538.210043-31.656851 18.083404-301.491745 224.299574-312.995405 237.306553-5.490383 6.187574-10.305362 11.982979-14.749957 17.364425-20.392851 24.619574-33.225532 40.110298-68.934809 42.267234-31.940085 1.960851-70.045957-23.965957-61.222127-54.751319z" fill="#5C8E36" p-id="1036"></path><path d="M724.142298 434.633532c183.252426-142.553872 476.268936-361.23234 549.582979-411.517277-30.872511 12.418723-62.22434 39.15166-115.646639 72.507915-199.963234 147.652085-553.177872 415.591489-583.135319 461.061447 15.425362-7.276936 72.006809-68.499064 149.198979-122.052085zM704.206979 384.827915c58.389787-53.64017 115.581277-97.51966 171.487319-140.440511 62.965106-48.302298 124.29617-95.384511 183.884255-153.687149-21.133617 10.697532-52.398298 35.927149-52.398298 35.927149s-90.939915 63.901957-132.814978 96.016341c-92.421447 70.939234-241.467915 210.464681-280.989958 278.353702 26.798298-31.003234 59.936681-76.081021 110.83166-116.169532z" fill="#5C8E36" p-id="1037"></path><path d="M127.193872 911.316426c-34.380255 2.091574-75.928511-28.127319-58.324425-61.941107 29.30383-56.341787 85.667404-27.01617 127.825702-51.417872 42.180085-24.401702 219.76783-155.234043 281.708936-213.580256 11.525447 10.24 22.397277 9.564596 22.724085 14.989618 0.326809 5.446809 11.874043 15.665021 22.745873 14.989617 1.089362-0.370383-301.491745 224.299574-312.995405 237.306553-30.632851 34.598128-40.197447 56.995404-83.662978 59.653447z" fill="#F2F2F4" p-id="1038"></path><path d="M65.971745 856.543319c8.453447 20.218553 35.927149 34.489191 59.914893 33.029447 35.687489-2.178723 48.52017-17.64766 68.913022-42.267234 4.466383-5.381447 9.259574-11.198638 14.749957-17.386213 10.610383-11.982979 240.596426-178.393872 301.818553-218.918128 3.769191 2.178723 8.192 3.616681 12.505873 3.355235-31.308255 23.748085-301.491745 224.299574-312.995405 237.306553-5.490383 6.187574-10.305362 11.982979-14.749957 17.364425-2.549106 3.093787-4.989277 6.013277-7.364085 8.802043-16.601872 19.499574-30.32783 31.591489-61.570724 33.486979-31.940085 1.939064-70.045957-23.987745-61.222127-54.773107z" fill="#D7DAD4" p-id="1039"></path><path d="M76.756426 818.80783c-33.988085-5.577532-67.801872-44.249872-43.138724-73.314043 41.068936-48.454809 89.523745-7.364085 136.061277-21.787234 46.515745-14.444936 248.701277-102.617872 322.015319-145.756596 68.36834-40.241021 330.752-265.804255 676.210383-352.517446-175.278298 107.737872-345.850553 146.279489-551.391319 299.291234C747.302128 447.335489 1243.876766 230.726809 1391.724936 207.044085 1273.638128 253.864851 642.069787 536.401702 592.002723 572.350638c57.278638-12.68017 687.082213-284.475915 812.380596-308.027915C1123.56766 427.901277 564.289362 606.621957 529.429787 617.254128c-34.859574 10.610383-343.715404 151.835234-357.833532 161.94451-37.539404 26.950809-51.83183 46.690043-94.818042 39.609192z" fill="#75A550" p-id="1040"></path><path d="M29.194894 751.833872c3.769191 21.591149 27.386553 41.59183 51.091063 45.491745 35.295319 5.795404 51.243574-6.449021 76.582128-25.926808 5.533957-4.270298 11.525447-8.867404 18.257702-13.682383 14.09634-10.131064 321.187404-140.593021 356.046979-151.203405 31.744-9.673532 561.914553-194.647149 778.392511-302.581106 35.774638-16.187915 77.540766-36.362894 94.818042-39.609192C1123.56766 427.901277 564.289362 606.621957 529.429787 617.254128c-34.859574 10.610383-343.715404 151.835234-357.833532 161.94451-6.732255 4.836766-12.701957 9.433872-18.235915 13.682383-25.338553 19.477787-41.286809 31.744-76.582127 25.926809-31.591489-5.185362-62.965106-38.912-47.539745-66.973958z" fill="#5C8E36" p-id="1041"></path><path d="M764.557617 486.4c210.31217-98.325787 544.506553-246.587915 627.167319-279.355915-32.855149 5.272511-69.370553 24.379915-128.849702 45.056-227.741957 99.633021-631.56834 282.536851-670.872511 320.250553 16.667234-3.70383 85.405957-50.851404 172.554894-85.950638zM756.169532 433.413447c68.84766-39.325957 134.340085-69.435915 198.350979-98.870468 72.115745-33.16017 142.379574-65.448851 213.38417-109.110468-22.941957 5.773617-59.043404 23.421277-59.043404 23.421276s-102.835745 42.136511-150.789447 64.185192c-105.885957 48.672681-282.144681 151.660936-335.741277 209.092085 33.00766-24.292766 75.318468-60.895319 133.838979-88.717617z" fill="#5C8E36" p-id="1042"></path><path d="M76.756426 818.80783c-33.988085-5.577532-67.801872-44.249872-43.138724-73.314043 41.068936-48.454809 89.523745-7.364085 136.061277-21.787234 46.515745-14.444936 248.701277-102.617872 322.015319-145.756596 8.998128 12.505872 19.739234 14.270638 18.867745 19.630298-0.871489 5.381447 8.104851 17.909106 18.845957 19.673873 1.154723-0.130723-343.715404 151.835234-357.833532 161.94451-37.539404 26.950809-51.83183 46.690043-94.818042 39.609192z" fill="#F2F2F4" p-id="1043"></path><path d="M29.194894 751.833872c3.769191 21.591149 27.386553 41.59183 51.091063 45.491745 35.295319 5.795404 51.243574-6.449021 76.582128-25.926808 5.533957-4.270298 11.525447-8.867404 18.257702-13.682383 12.985191-9.324936 274.148766-120.59234 342.843915-146.519149 3.180936 2.963064 7.189787 5.337872 11.438298 6.056851-35.774638 16.187915-343.715404 151.835234-357.833532 161.94451-6.732255 4.836766-12.701957 9.433872-18.235915 13.682383-3.159149 2.44017-6.187574 4.749617-9.128851 6.950128-20.501787 15.316426-36.580766 24.053106-67.453276 18.976681-31.591489-5.185362-62.965106-38.912-47.539745-66.973958z" fill="#D7DAD4" p-id="1044"></path><path d="M98.042553 860.595745c-34.445617 0-74.076596-32.680851-54.468085-65.361702 32.680851-54.468085 87.148936-21.787234 130.723404-43.574469s228.765957-141.617021 294.12766-196.085106c60.917106-50.764255 283.234043-315.914894 610.042553-457.531915-155.473702 134.732255-317.527149 200.442553-495.528851 384.784341C699.413787 385.241872 1154.28766 90.918128 1296.340426 43.574468 1187.404255 108.93617 610.042553 490.212766 566.468085 533.787234c54.468085-21.787234 631.829787-392.170213 751.659575-435.744681C1067.574468 305.021277 544.680851 572.132766 512 588.255319c-32.680851 16.122553-314.520511 205.58434-326.808511 217.872341-32.680851 32.680851-43.574468 54.468085-87.148936 54.468085z" fill="#75A550" p-id="1045"></path><path d="M40.262809 802.205957c7.211574 20.697872 33.770213 36.602553 57.779744 36.602554 35.774638 0 49.522383-14.684596 71.374979-38.018724 4.771404-5.098213 9.913191-10.588596 15.773957-16.449361 12.288-12.288 294.12766-190.85617 326.808511-206.978724 29.761362-14.684596 522.893617-283.234043 718.978723-424.851064 32.680851-21.787234 70.612426-48.454809 87.148937-54.468085C1067.574468 305.021277 544.680851 572.132766 512 588.255319c-32.680851 16.122553-314.520511 205.58434-326.808511 217.872341-5.860766 5.860766-11.002553 11.351149-15.773957 16.449361C147.564936 845.911149 133.817191 860.595745 98.042553 860.595745c-31.98366 0-68.455489-28.192681-57.779744-58.389788z" fill="#5C8E36" p-id="1046"></path><path d="M722.813277 420.994723C914.366638 289.835574 1220.085106 89.32766 1296.340426 43.574468c-31.591489 10.523234-64.490213 35.295319-119.829788 65.361702-208.547404 135.255149-577.361702 381.276596-610.042553 424.851064 15.861106-6.340085 76.037447-64.010894 156.345192-112.792511zM705.92817 370.077957c61.527149-50.001702 121.289532-90.329872 179.679319-129.764766 65.797447-44.402383 129.851915-87.67183 192.860596-142.270638C1056.768 107.454638 1024 130.723404 1024 130.723404s-94.643745 58.280851-138.392511 87.802553C789.046468 283.713362 631.829787 413.957447 588.255319 479.319149c28.628426-29.325617 64.446638-72.31183 117.672851-109.241192z" fill="#5C8E36" p-id="1047"></path><path d="M98.042553 860.595745c-34.445617 0-74.076596-32.680851-54.468085-65.361702 32.680851-54.468085 87.148936-21.787234 130.723404-43.574469s228.765957-141.617021 294.12766-196.085106c10.893617 10.893617 21.787234 10.893617 21.787234 16.340426s10.893617 16.340426 21.787234 16.340425c1.132936-0.305021-314.520511 205.58434-326.808511 217.872341-32.680851 32.680851-43.574468 54.468085-87.148936 54.468085z" fill="#F2F2F4" p-id="1048"></path><path d="M40.262809 802.205957c7.211574 20.697872 33.770213 36.602553 57.779744 36.602554 35.774638 0 49.522383-14.684596 71.374979-38.018724 4.771404-5.098213 9.913191-10.588596 15.773957-16.449361 11.307574-11.307574 250.967149-163.469617 314.520511-200.224681 3.660255 2.418383 7.974128 4.139574 12.288 4.139574-32.680851 21.787234-314.520511 205.58434-326.808511 217.872341-5.860766 5.860766-11.002553 11.351149-15.773957 16.449361-2.745191 2.919489-5.337872 5.708255-7.886979 8.344511C143.795745 849.353532 129.329021 860.595745 98.042553 860.595745c-31.98366 0-68.455489-28.192681-57.779744-58.389788z" fill="#D7DAD4" p-id="1049"></path></svg>