<?xml version="1.0" standalone="no"?><!DOCTYPE svg PUBLIC "-//W3C//DTD SVG 1.1//EN" "http://www.w3.org/Graphics/SVG/1.1/DTD/svg11.dtd"><svg t="1626481063210" class="icon" viewBox="0 0 2000 2000" version="1.1" xmlns="http://www.w3.org/2000/svg" p-id="2535" xmlns:xlink="http://www.w3.org/1999/xlink" width="100px" height="100px"><defs><style type="text/css"></style></defs><path d="M511.36 60.8c0-0.64 0-1.28-0.64-1.92-0.64-1.28-0.64-2.56-0.64-3.84-0.64-1.28-0.64-3.2-1.28-4.48-0.64-1.28-0.64-2.56-1.28-3.84L504.96 38.4c0-1.28-0.64-1.92-0.64-3.2v-0.64l7.04 26.24z" fill="#FBEF7F" p-id="2536"></path><path d="M641.28 96.64c0-1.92-1.28-3.84-2.56-5.12l-49.92-44.8c-8.32-5.76-17.92-8.96-28.16-8.96H454.4c-10.24 0-19.84 3.2-28.16 8.96l-54.4 44.8c-1.28 1.28-2.56 3.2-2.56 5.12v1.92c-7.04 1.92-112 33.28-134.4 64.64-56.32 78.72-168.32 582.4-179.84 636.16-0.64 3.2 0.64 5.76 2.56 7.68 6.4 5.12 21.12 14.72 47.36 24.96 23.68 8.96 47.36 12.16 58.24 13.44 3.84 0.64 7.04-1.92 8.32-5.76l16-58.88 38.4-143.36 0.64-1.28c-3.2 29.44-5.76 58.24-7.04 82.56-6.4 88.32-3.2 237.44-2.56 259.2 0 1.92 1.28 3.2 3.2 3.84 9.6 1.92 48.64 8.96 164.48 13.44 125.44 4.48 213.76-4.48 213.76-4.48v-9.6c72.96 8.96 128 9.6 200.96 0.64 1.92 0 3.2-1.92 3.2-3.84 0-23.68 1.92-170.88-4.48-259.2-1.28-21.76-3.84-47.36-6.4-73.6l51.84 195.2c1.28 3.84 4.48 6.4 8.32 5.76 10.88-1.28 34.56-4.48 58.24-13.44 26.24-9.6 40.96-19.84 47.36-24.96 2.56-1.92 3.2-5.12 2.56-7.68-1.92-9.6-14.72-66.56-14.72-66.56-35.2-147.84-113.28-476.8-160.64-560.64v-0.64c-1.92-3.84-3.84-7.04-5.76-9.6-23.04-32.64-135.68-65.28-135.68-65.28m0 155.52c0.64-1.28 0-2.56-0.64-3.84M368.64 99.84" fill="#F2A490" p-id="2537"></path><path d="M457.6 190.72s46.72 18.56 92.8 0l-46.72 139.52c-4.48 0-46.08-139.52-46.08-139.52z" fill="#FFEDC4" p-id="2538"></path><path d="M536.96 167.68h-70.4c-2.56 0-4.48-1.92-4.48-4.48v-28.16c0-2.56 1.92-4.48 4.48-4.48h70.4c2.56 0 4.48 1.92 4.48 4.48v28.16c0 2.56-2.56 4.48-4.48 4.48z" fill="#B9D4DB" p-id="2539"></path><path d="M922.88 816.64c-96-434.56-151.68-602.88-176-627.2-23.68-23.68-41.6-29.44-106.88-53.12l7.68-45.44c51.2 16 116.48 41.6 136.96 71.04 57.6 80.64 154.88 539.52 175.36 632.96l-37.12 21.76z" fill="#E89182" p-id="2540"></path><path d="M149.76 558.72h-1.92c-4.48-1.28-7.68-5.76-6.4-10.88 11.52-48 23.04-90.24 32.64-124.8 1.28-4.48 6.4-7.68 10.88-6.4 4.48 1.28 7.68 6.4 6.4 10.88-10.24 34.56-21.12 76.8-32.64 124.16-1.28 4.48-5.12 7.04-8.96 7.04z m46.08-169.6c-0.64 0-1.92 0-2.56-0.64-4.48-1.28-7.04-6.4-5.76-10.88 5.12-15.36 9.6-28.8 14.08-40.32 1.92-4.48 7.04-7.04 11.52-5.12 4.48 1.92 7.04 7.04 5.12 11.52-4.48 10.88-8.96 24.32-13.44 39.04-1.28 3.84-5.12 6.4-8.96 6.4z" fill="#FFFFFF" p-id="2541"></path><path d="M696.32 360.96H588.16c-3.2 0-5.76-2.56-5.76-5.76v-19.84c0-3.2 2.56-5.76 5.76-5.76h108.16c3.2 0 5.76 2.56 5.76 5.76v19.84c0 3.2-2.56 5.76-5.76 5.76z m0-25.6H588.16v19.84h107.52v-19.84z" fill="#3F4C75" p-id="2542"></path><path d="M450.56 998.4c-21.76 0-45.44-0.64-69.76-1.28-99.2-3.84-142.08-8.96-159.36-12.16-7.68-1.28-13.44-8.32-14.08-16-0.64-39.04-3.2-172.16 2.56-254.08C216.96 620.8 236.8 456.96 237.44 450.56v-1.28c0.64-3.2 23.04-81.92 23.04-142.08 0-93.44-37.12-132.48-37.76-132.48l8.32-8.32c1.92 1.92 40.96 42.24 40.96 141.44 0 62.08-22.4 142.08-23.04 145.28-0.64 6.4-21.12 169.6-27.52 263.68-5.76 81.92-3.2 214.4-2.56 253.44 0 2.56 1.92 4.48 3.84 4.48 16.64 3.2 58.88 8.32 157.44 12.16 106.24 3.84 186.24-2.56 207.36-3.84l-2.56-404.48c-5.76-16-58.24-156.8-101.76-277.76-30.72-85.76-44.16-154.24-49.92-196.48-1.28-8.96 1.28-18.56 7.68-25.6s14.72-10.88 24.32-10.88h75.52c9.6 0 18.56 3.84 24.32 11.52 6.4 7.04 8.96 16.64 7.04 25.6-6.4 41.6-26.24 146.56-65.28 225.28 40.32 112 84.48 229.76 89.6 243.84 0.64 1.28 0.64 2.56 0.64 4.48l2.56 415.36-5.12 0.64c0-1.92-57.6 3.84-144 3.84z m15.36-920.32c-5.76 0-11.52 2.56-15.36 7.04-3.84 4.48-5.76 10.24-4.48 16 5.76 41.6 19.2 109.44 49.28 194.56 1.92 5.76 4.48 11.52 6.4 17.92 35.2-76.8 53.12-172.8 59.52-211.84 0.64-5.76-0.64-11.52-4.48-16s-9.6-7.04-15.36-7.04H465.92z" fill="#3F4C75" p-id="2543"></path><path d="M696.96 991.36c-32.64 0-65.92-2.56-103.04-7.04l1.92-14.08c70.4 8.96 124.8 8.96 193.28 1.28 1.92 0 3.2-1.92 3.2-3.84 0.64-38.4 1.28-170.88-4.48-252.16-6.4-92.16-26.24-253.44-27.52-263.68-1.92-7.68-23.04-84.48-23.04-145.28 0-99.2 39.68-140.16 41.6-142.08l9.6 9.6c-0.64 0.64-37.12 39.04-37.12 131.84 0 60.8 22.4 141.44 23.04 142.08v1.28c0 1.92 21.12 170.24 28.16 264.96 5.76 81.92 5.12 214.4 4.48 253.44 0 8.96-7.04 16.64-16 17.28-34.56 4.48-64 6.4-94.08 6.4zM398.72 208l-38.4-4.48c-5.12-0.64-8.32-5.12-8.32-9.6l8.96-100.48c0-3.84 1.92-7.04 5.12-8.96l54.4-44.8c9.6-7.04 20.48-10.24 32-10.24h105.6c11.52 0 22.4 3.2 31.36 10.24l0.64 0.64 49.92 44.8c2.56 1.92 4.48 5.12 5.12 8.96l8.96 100.48c0.64 5.12-3.2 9.6-8.32 9.6l-35.84 4.48-1.92-12.16 33.92-3.84L633.6 94.72s0-0.64-0.64-0.64l-0.64-0.64-49.28-44.8c-7.04-5.12-16-7.68-24.32-7.68H452.48c-8.96 0-17.28 2.56-24.96 7.68l-54.4 44.8-0.64 0.64L364.16 192l35.84 3.84-1.28 12.16z m245.12-16z m-282.24 0z" fill="#3F4C75" p-id="2544"></path><path d="M584.96 576.64c-26.88-45.44-80.64-119.68-128-185.6C408.96 325.76 368 268.8 362.24 252.8c-1.28-3.2-0.64-6.4 1.28-8.96l30.72-44.8 56.96-33.28 5.76 10.24-54.4 32-28.8 41.6c7.04 16 48.64 73.6 92.8 134.4C513.92 449.92 567.68 524.8 595.2 570.88l-10.24 5.76z m-211.84-326.4z m0-1.92z" fill="#3F4C75" p-id="2545"></path><path d="M535.68 413.44l-9.6-7.04 16-22.4c44.16-60.8 85.12-118.4 92.16-134.4l-30.08-42.88-54.4-32 5.76-10.24 56.96 33.28 32 46.08c1.92 2.56 2.56 5.76 1.28 8.96-6.4 16-46.72 72.96-94.08 138.24l-16 22.4z m99.84-162.56z m-0.64-1.92zM390.4 752.64s-0.64 0 0 0l-154.88-8.32c-1.28 0-3.2-0.64-3.84-1.92-1.28-1.28-1.28-2.56-1.28-4.48l7.68-64c0.64-3.2 2.56-5.12 5.76-5.12l146.56 7.68c3.2 0 5.12 2.56 5.12 5.76l0.64 64c0 1.92-0.64 3.2-1.92 4.48-1.28 1.28-2.56 1.92-3.84 1.92z m0-5.76z m-147.2-71.68l-7.04 63.36 154.24 8.32-0.64-64-146.56-7.68zM616.32 752.64c-1.28 0-2.56-0.64-3.84-1.28-1.28-1.28-1.92-2.56-1.92-4.48l0.64-64c0-3.2 2.56-5.76 5.12-5.76l146.56-7.68c3.2 0 5.76 1.92 5.76 5.12l7.68 64c0 1.92 0 3.2-1.28 4.48-1.28 1.28-2.56 1.92-3.84 1.92l-154.88 7.68c0.64 0 0.64 0 0 0z m147.2-77.44l-146.56 8.32v64l154.24-8.32-7.68-64zM446.08 606.72c-10.88 0-19.2-8.32-19.2-19.2s8.32-19.2 19.2-19.2 19.2 8.32 19.2 19.2-8.96 19.2-19.2 19.2z m0-32.64c-7.04 0-13.44 5.76-13.44 13.44 0 7.04 5.76 13.44 13.44 13.44s13.44-5.76 13.44-13.44c0-7.04-6.4-13.44-13.44-13.44zM543.36 606.72c-10.88 0-19.2-8.32-19.2-19.2s8.32-19.2 19.2-19.2 19.2 8.32 19.2 19.2-8.32 19.2-19.2 19.2z m0-32.64c-7.04 0-13.44 5.76-13.44 13.44 0 7.04 5.76 13.44 13.44 13.44S556.8 595.2 556.8 587.52c0-7.04-5.76-13.44-13.44-13.44zM446.08 753.28c-10.88 0-19.2-8.32-19.2-19.2s8.32-19.2 19.2-19.2 19.2 8.32 19.2 19.2-8.96 19.2-19.2 19.2z m0-32.64c-7.04 0-13.44 5.76-13.44 13.44s5.76 13.44 13.44 13.44 13.44-5.76 13.44-13.44-6.4-13.44-13.44-13.44zM543.36 753.28c-10.88 0-19.2-8.32-19.2-19.2s8.32-19.2 19.2-19.2 19.2 8.32 19.2 19.2-8.32 19.2-19.2 19.2z m0-32.64c-7.04 0-13.44 5.76-13.44 13.44s5.76 13.44 13.44 13.44 13.44-5.76 13.44-13.44-5.76-13.44-13.44-13.44z" fill="#3F4C75" p-id="2546"></path><path d="M188.16 784c-83.84-4.48-119.04-48-120.32-49.92l4.48-3.84c0.64 0.64 35.2 42.88 116.48 47.36l-0.64 6.4z" fill="#3F4C75" p-id="2547"></path><path d="M453.76 1001.6c-21.76 0-45.44-0.64-70.4-1.28-114.56-4.48-154.24-10.88-165.76-13.44-5.76-1.28-9.6-6.4-9.6-12.16-0.64-16.64-3.84-157.44 1.92-248.32l-12.8 53.12-16 59.52c-1.92 7.68-9.6 13.44-17.92 12.16-12.16-1.28-35.84-4.48-60.8-14.08-27.52-10.24-42.88-20.48-49.28-25.6-5.12-3.84-7.68-10.24-5.76-16.64 12.8-56.96 124.16-559.36 181.76-639.36 19.84-27.52 89.6-52.48 129.92-65.28 2.56-0.64 4.48-2.56 7.04-5.76 0.64-0.64 1.28-1.92 2.56-2.56l53.76-44.8s0.64 0 0.64-0.64C432.64 29.44 444.16 25.6 456.32 25.6h105.6c12.16 0 23.68 3.84 33.28 10.88l0.64 0.64 49.92 44.8 1.28 1.28c3.2 3.2 6.4 5.12 9.6 6.4 40.32 12.8 111.36 37.76 130.56 65.28 1.92 3.2 5.76 9.6 6.4 10.24 48 85.76 128 421.76 160 561.92 0 0 12.8 57.6 15.36 67.2 1.28 6.4-1.28 12.8-5.76 16.64-7.04 5.12-22.4 16-49.92 26.24-24.96 8.96-48.64 12.8-60.8 14.08-8.32 0.64-15.36-4.48-17.92-12.16l-26.24-96.64c4.48 87.68 3.2 206.72 3.2 232.32 0 6.4-5.12 11.52-10.88 12.16-70.4 8.32-123.52 8.96-193.28 0.64-0.64 4.48-3.84 7.68-7.68 8.32-1.92 0-58.88 5.76-145.92 5.76z m-227.84-31.36c14.08 2.56 55.68 8.32 158.72 12.16 101.76 3.84 179.84-1.92 204.16-3.84v-1.28c0-2.56 1.28-5.12 3.2-6.4 1.92-1.92 4.48-2.56 7.04-1.92 71.04 8.96 124.16 8.96 194.56 0.64 0.64-36.48 1.28-170.88-4.48-253.44-0.64-11.52-2.56-26.24-4.48-41.6-1.92-12.8-3.2-25.6-4.48-37.76-0.64-4.48 2.56-8.96 7.04-9.6 4.48-0.64 8.96 1.92 10.24 6.4l54.4 199.68c11.52-1.28 33.28-4.48 55.04-12.8 24.32-8.96 37.76-17.92 44.16-23.04-2.56-11.52-14.72-65.92-14.72-65.92-32-139.52-111.36-473.6-158.08-556.8-1.28-2.56-4.48-7.04-5.76-8.96-14.08-19.84-72.32-43.52-121.6-58.88-6.4-1.92-12.16-5.76-17.28-10.88l-49.28-44.8c-6.4-4.48-14.72-7.04-22.4-7.04H455.04c-8.32 0-16 2.56-23.04 7.04l-53.76 44.16c-4.48 5.76-9.6 9.6-15.36 11.52-49.28 15.36-106.24 39.04-120.32 58.88-44.8 62.72-133.12 426.24-178.56 632.32 6.4 4.48 19.84 13.44 44.16 23.04 22.4 8.32 43.52 11.52 55.04 12.8l15.36-58.24 35.84-147.2c1.28-4.48 5.76-7.68 10.24-6.4 4.48 0.64 7.68 5.12 7.04 9.6-1.92 17.92-2.56 35.84-3.2 53.76-0.64 11.52-0.64 21.76-1.92 31.36-4.48 83.2-1.28 223.36-0.64 253.44z m567.04 3.84zM633.6 96s0.64 0 0 0c0.64 0 0 0 0 0z m-255.36 0z" fill="#3F4C75" p-id="2548"></path><path d="M826.24 784l-0.64-5.76c81.28-4.48 115.84-47.36 116.48-47.36l4.48 3.84c-1.28 1.28-35.84 44.16-120.32 49.28z" fill="#3F4C75" p-id="2549"></path></svg>