<?xml version="1.0" standalone="no"?><!DOCTYPE svg PUBLIC "-//W3C//DTD SVG 1.1//EN" "http://www.w3.org/Graphics/SVG/1.1/DTD/svg11.dtd"><svg t="1626481071908" class="icon" viewBox="0 0 2000 2000" version="1.1" xmlns="http://www.w3.org/2000/svg" p-id="2693" xmlns:xlink="http://www.w3.org/1999/xlink" width="100px" height="100px"><defs><style type="text/css"></style></defs><path d="M376.32 74.88l3.2 304c1.28 36.48-7.68 72.32-25.6 103.68l-184.96 325.76c-16 27.52-19.84 60.8-12.16 91.52 14.72 58.88 69.76 97.92 130.56 92.8l12.8-1.28c35.84-3.2 68.48-21.12 89.6-50.56l211.2-315.52c26.24-39.68 37.76-87.68 32-135.04l-8.96-71.04V76.8l-247.68-1.92z" fill="#F2A490" p-id="2694"></path><path d="M200.96 828.8c54.4 10.24 100.48 46.08 123.52 96.64l21.76 48c-14.08 7.04-30.08 12.16-46.08 13.44l-12.8 1.28c-60.16 5.12-115.2-34.56-130.56-92.8-6.4-24.32-4.48-49.92 3.84-73.6l40.32 7.04zM588.8 451.84c-53.12 37.12-63.36 112-22.4 162.56l23.68 27.52 10.88-16c26.24-39.68 37.76-87.68 32-135.04l-8.32-64.64-35.84 25.6z" fill="#FFEDC4" p-id="2695"></path><path d="M200.32 835.84l-33.28-18.56 193.92-344.96c16-28.8 24.32-60.8 23.04-93.44l-3.2-297.6 37.76-0.64L422.4 377.6c1.28 39.04-8.32 78.72-28.16 113.28l-193.92 344.96z" fill="#E89182" p-id="2696"></path><path d="M277.12 1000.32c-59.52 0-112-40.32-126.72-98.56-8.32-32.64-3.84-67.2 12.8-96.64l184.96-325.76c17.28-30.72 25.6-65.28 24.32-99.84l-3.2-296.96c0-3.84 1.28-7.04 3.84-10.24 2.56-2.56 6.4-4.48 10.24-3.84l233.6 1.92c7.68 0 14.08 6.4 14.08 14.08v336l8.96 70.4c6.4 49.28-5.76 98.56-33.28 139.52l-211.2 315.52c-22.4 30.72-56.96 50.56-94.72 53.76l-12.8 1.28c-3.84-1.28-7.04-0.64-10.88-0.64zM383.36 81.92l3.2 296.96c1.28 37.12-7.68 74.88-26.24 107.52l-184.96 325.76c-14.72 26.24-19.2 56.96-11.52 86.4 14.08 55.68 65.92 92.16 122.88 87.68l12.8-1.28c33.92-2.56 64.64-19.84 84.48-47.36l210.56-315.52c25.6-38.4 36.48-84.48 30.72-129.92l-8.96-71.68V83.2l-232.96-1.28z m0 0z" fill="#3F4C75" p-id="2697"></path><path d="M339.2 979.2l-21.12-46.08c-21.76-48-66.56-82.56-118.4-92.8l-39.68-7.04 2.56-14.08 39.68 7.04c56.96 10.24 104.96 48 128.64 100.48L352 972.8l-12.8 6.4z" fill="#3F4C75" p-id="2698"></path><path d="M581.76 644.48l-21.12-26.24c-21.12-25.6-30.08-58.88-25.6-91.52 4.48-32.64 22.4-62.08 49.28-81.28l35.2-24.96 8.32 11.52-35.2 24.96c-24.32 16.64-39.68 42.24-43.52 71.68-3.84 29.44 3.84 57.6 23.04 80.64l21.12 26.24-11.52 8.96z" fill="#3F4C75" p-id="2699"></path><path d="M499.2 720.64c-1.28 0-2.56-0.64-3.84-1.28-3.2-1.92-3.84-6.4-1.92-9.6l15.36-22.4c1.92-3.2 6.4-3.84 9.6-1.92s3.84 6.4 1.92 9.6l-15.36 22.4c-1.28 1.92-3.84 3.2-5.76 3.2zM411.52 851.2c-1.28 0-2.56-0.64-3.84-1.28-3.2-1.92-3.84-6.4-1.92-9.6l67.2-100.48c1.92-3.2 6.4-3.84 9.6-1.92s3.84 6.4 1.92 9.6l-67.2 100.48c-1.28 2.56-3.2 3.2-5.76 3.2z" fill="#FFFFFF" p-id="2700"></path><path d="M533.12 32l3.2 304c1.28 36.48-7.68 72.32-25.6 103.68L326.4 765.44c-16 27.52-19.84 60.8-12.16 91.52 14.72 58.88 69.76 97.92 130.56 92.8l12.8-1.28c35.84-3.2 68.48-21.12 89.6-50.56l211.2-315.52c26.24-39.68 37.76-87.68 32-135.04l-9.6-70.4V33.92L533.12 32z" fill="#F2A490" p-id="2701"></path><path d="M357.76 785.92c54.4 10.24 100.48 46.08 123.52 96.64l21.76 48c-14.08 7.04-30.08 12.16-46.08 13.44l-12.8 1.28c-60.16 5.12-115.2-34.56-130.56-92.8-6.4-24.32-4.48-49.92 3.84-73.6l40.32 7.04zM745.6 408.96c-53.12 37.12-63.36 112-22.4 162.56l23.68 27.52 10.88-16c26.24-39.68 37.76-87.68 32-135.04l-8.32-64.64-35.84 25.6z" fill="#FFEDC4" p-id="2702"></path><path d="M357.12 792.96l-33.28-18.56 193.92-344.96c16-28.8 24.32-60.8 23.04-93.44L537.6 38.4l38.4-0.64 3.2 296.96c1.28 39.04-8.32 78.72-28.16 113.28l-193.92 344.96z" fill="#E89182" p-id="2703"></path><path d="M433.92 957.44c-59.52 0-112-40.32-126.72-98.56-8.32-32.64-3.84-67.2 12.8-96.64l184.96-325.76c17.28-30.72 25.6-65.28 24.32-99.84l-3.2-297.6c0-3.84 1.28-7.04 3.84-10.24 2.56-2.56 6.4-3.84 9.6-3.84l233.6 1.92c7.68 0 14.08 6.4 14.08 14.08v336l8.96 70.4c6.4 49.28-5.76 98.56-33.28 139.52l-211.2 315.52c-22.4 30.72-56.96 50.56-94.72 53.76l-12.8 1.28h-10.24zM540.16 39.04l3.84 296.96c1.28 37.12-7.68 74.88-26.24 107.52L332.8 768.64c-14.72 26.24-19.2 56.96-11.52 86.4 14.08 55.68 65.92 92.16 122.88 87.68l12.8-1.28c33.92-2.56 64.64-19.84 84.48-47.36l210.56-315.52c25.6-38.4 36.48-84.48 30.72-129.92l-8.96-71.68V40.32l-233.6-1.28z m0 0z" fill="#3F4C75" p-id="2704"></path><path d="M496 936.32l-21.12-46.08c-21.76-48-66.56-82.56-118.4-92.8l-39.68-7.04 2.56-14.08 39.68 7.04c56.96 10.24 104.96 48 128.64 100.48l21.12 46.08-12.8 6.4z" fill="#3F4C75" p-id="2705"></path><path d="M739.2 601.6l-21.12-26.24c-21.12-25.6-30.08-58.88-25.6-91.52 4.48-32.64 22.4-62.08 49.28-81.28l35.2-24.96 8.32 11.52-35.2 24.96c-24.32 16.64-39.68 42.24-43.52 71.68-3.84 29.44 3.84 57.6 23.04 80.64l21.12 26.24-11.52 8.96z" fill="#3F4C75" p-id="2706"></path><path d="M656 677.76c-1.28 0-2.56-0.64-3.84-1.28-3.2-1.92-3.84-6.4-1.92-9.6l15.36-22.4c1.92-3.2 6.4-3.84 9.6-1.92s3.84 6.4 1.92 9.6l-15.36 22.4c-1.28 1.92-3.2 3.2-5.76 3.2zM568.32 808.96c-1.28 0-2.56-0.64-3.84-1.28-3.2-1.92-3.84-6.4-1.92-9.6L629.76 697.6c1.92-3.2 6.4-3.84 9.6-1.92s3.84 6.4 1.92 9.6l-67.2 100.48c-1.28 1.92-3.2 3.2-5.76 3.2z" fill="#FFFFFF" p-id="2707"></path></svg>