<?xml version="1.0" standalone="no"?><!DOCTYPE svg PUBLIC "-//W3C//DTD SVG 1.1//EN" "http://www.w3.org/Graphics/SVG/1.1/DTD/svg11.dtd"><svg t="1626481502037" class="icon" viewBox="0 0 2000 2000" version="1.1" xmlns="http://www.w3.org/2000/svg" p-id="35724" xmlns:xlink="http://www.w3.org/1999/xlink" width="100px" height="100px"><defs><style type="text/css"></style></defs><path d="M623.1 272.3C619 213.3 503.3 166 360.7 166S102.4 213.3 98.4 272.3H98V754c0 60.5 117.6 109.5 262.7 109.5s262.7-49 262.7-109.5V272.3h-0.3z" fill="#FFFFFF" p-id="35725"></path><path d="M360.7 209.8c139.1 0 217.4 46.5 218.7 65.5 0.1 0.9 0.2 1.9 0.3 2.8V754c0 16.9-75.3 65.7-218.9 65.7s-219-48.9-219-65.7V278.1c0.1-0.9 0.2-1.9 0.3-2.8 1.3-19 79.5-65.5 218.6-65.5m0-43.8c-142.5 0-258.3 47.3-262.4 106.3H98V754c0 60.5 117.6 109.5 262.7 109.5s262.7-49 262.7-109.5V272.3h-0.4c-4-59-119.7-106.3-262.3-106.3z" fill="#436DAA" p-id="35726"></path><path d="M862.4 383.5L365 384c-128.3 0-233.4-41.2-243.7-93.6h-1v448.7C120.2 792.3 229.8 843 365 843l497.5-0.5c23.5 0 42.5-19.1 42.5-42.6V426.1c0-23.5-19.1-42.6-42.6-42.6z" fill="#FFFFFF" p-id="35727"></path><path d="M365 864.9c-147.1 0-266.7-56.4-266.7-125.8V290.5c0-12.1 9.8-21.9 21.9-21.9 10.5 0 20.5 7.4 22.5 17.7 7.2 36.6 98.2 75.9 222.2 75.9l497.4-0.5h0.1c17.2 0 33.4 6.7 45.6 18.9 12.2 12.2 18.9 28.4 18.9 45.6V800c0 35.5-28.9 64.4-64.4 64.5l-497.5 0.4zM142.1 352v387.1c0 32.6 88.9 82 222.8 82l497.5-0.5c11.4 0 20.6-9.3 20.6-20.7V426.1c0-5.5-2.1-10.7-6.1-14.6s-9.1-6.1-14.6-6.1l-497.3 0.5c-83.8 0-171.9-18.3-222.9-53.9z" fill="#436DAA" p-id="35728"></path><path d="M264.6 284.1a99.9 35.7 0 1 0 199.8 0 99.9 35.7 0 1 0-199.8 0Z" fill="#FFFFFF" p-id="35729"></path><path d="M364.5 341.7c-60.6 0-121.8-17.8-121.8-57.6s61.2-57.6 121.8-57.6 121.8 17.8 121.8 57.6c0.1 39.8-61.1 57.6-121.8 57.6z m-74-57.6c10.7 6.1 36.6 13.8 74 13.8s63.3-7.7 74-13.8c-10.8-6.1-36.6-13.8-74-13.8s-63.2 7.7-74 13.8z m153 3.9h0.2-0.2z" fill="#436DAA" p-id="35730"></path><path d="M550.1 572.8c-12.1 0-21.9-9.8-21.9-21.9v-88.5c0-12.1 9.8-21.9 21.9-21.9s21.9 9.8 21.9 21.9V551c0 12.1-9.8 21.8-21.9 21.8zM550.1 782.7c-12.1 0-21.9-9.8-21.9-21.9v-88.5c0-12.1 9.8-21.9 21.9-21.9s21.9 9.8 21.9 21.9v88.5c0 12.1-9.8 21.9-21.9 21.9z" fill="#FFBC00" p-id="35731"></path></svg>