<?xml version="1.0" standalone="no"?><!DOCTYPE svg PUBLIC "-//W3C//DTD SVG 1.1//EN" "http://www.w3.org/Graphics/SVG/1.1/DTD/svg11.dtd"><svg t="1626481616829" class="icon" viewBox="0 0 2000 2000" version="1.1" xmlns="http://www.w3.org/2000/svg" p-id="37781" xmlns:xlink="http://www.w3.org/1999/xlink" width="100px" height="100px"><defs><style type="text/css"></style></defs><path d="M946.322286 296.630857H478.305524l-7.838476-109.714286h485.010285l-9.155047 109.714286z m-445.318096-24.380952h422.88762l5.083428-60.952381H496.65219l4.352 60.952381z" fill="#CB6A3D" p-id="37782"></path><path d="M885.845333 211.297524h-97.523809v-146.285714h97.523809v146.285714z m-73.142857-24.380953h48.761905v-97.523809h-48.761905v97.523809z" fill="#CB6A3D" p-id="37783"></path><path d="M885.845333 930.535619h-365.714285v-438.857143h400.091428z" fill="#FFCBB6" p-id="37784"></path><path d="M901.046857 967.107048H525.531429l-48.956953-694.857143h471.576381l-47.104 694.857143z m-352.792381-24.380953h330.008381l43.800381-646.095238H502.735238l45.519238 646.095238z" fill="#CB6A3D" p-id="37785"></path><path d="M593.273905 906.154667c0 13.458286-11.910095 24.380952-26.61181 24.380952H140.897524c-14.689524 0-23.05219-10.922667-23.052191-24.380952v-109.714286c0-13.458286 8.362667-24.380952 23.052191-24.380952h425.764571c14.701714 0 26.61181 10.922667 26.61181 24.380952v109.714286zM606.415238 686.726095c0.621714-7.046095 1.084952-14.128762 1.084952-21.333333 0-135.216762-109.616762-244.821333-244.833523-244.821333-135.216762 0-244.821333 109.616762-244.821334 244.821333 0 7.204571 0.475429 14.287238 1.072762 21.333333h487.497143z" fill="#FFCBB6" p-id="37786"></path><path d="M117.845333 674.535619h475.428572v97.52381h-475.428572z" fill="#FFCBB6" p-id="37787"></path><path d="M133.095619 954.916571c-32.804571 0-51.821714-32.926476-51.821714-65.743238v-103.740952c0-11.032381 1.29219-13.372952 12.324571-13.372952H589.409524c11.044571 0 16.042667 2.340571 16.042666 13.372952v103.740952c0 32.816762-22.735238 65.743238-55.552 65.743238H133.095619zM105.654857 889.173333c0 19.041524 8.399238 41.362286 27.440762 41.362286h416.889905c19.053714 0 31.097905-22.320762 31.097905-41.362286v-92.732952h-475.428572v92.732952zM86.089143 735.488c-6.887619 0-12.483048-5.315048-12.483048-12.190476 0-6.887619 5.595429-12.190476 12.483048-12.190476h510.854095c6.875429 0 12.470857 5.302857 12.470857 12.190476 0 6.875429-5.595429 12.190476-12.470857 12.190476H86.089143z m0-48.761905c-6.887619 0-12.483048-9.654857-12.483048-16.554666 0-6.777905 0.597333-22.808381 3.462095-50.919619 0.816762-7.558095 6.168381-13.372952 12.568381-13.372953l1.26781-0.451047c6.826667 0.768 11.800381 11.044571 11.117714 17.846857a692.72381 692.72381 0 0 0-2.986666 39.070476h485.205333c-5.12-146.285714-100.266667-239.823238-242.712381-239.823238-82.041905 0-150.881524 28.623238-193.865143 84.553143-2.230857 2.925714-4.425143 4.827429-6.534095 7.887238-2.304 3.376762-6.144 4.85181-10.252191 4.864a12.678095 12.678095 0 0 1-7.094857-2.499048 12.55619 12.55619 0 0 1-5.205333-8.143238c-0.609524-3.279238 0.109714-6.656 2.023619-9.411048 2.31619-3.388952 4.778667-6.765714 7.302095-10.032762 47.823238-62.232381 123.708952-96.52419 213.699048-96.52419 37.436952 0 72.630857 5.936762 104.594286 17.65181 32.743619 11.958857 61.476571 29.647238 85.443047 52.540952 50.944 48.688762 77.872762 122.843429 77.872762 206.787048-0.073143 6.887619-5.692952 16.542476-12.544 16.542476H86.089143z m398.421333-75.056762a38.607238 38.607238 0 0 1 0-77.190095 38.595048 38.595048 0 0 1 0 77.190095z m0-52.272762c-7.472762 0-13.55581 6.107429-13.555809 13.616762s6.083048 13.616762 13.555809 13.616762 13.55581-6.107429 13.55581-13.616762-6.083048-13.616762-13.55581-13.616762z m-273.152 52.272762a38.607238 38.607238 0 0 1 0-77.190095 38.607238 38.607238 0 0 1 0 77.190095z m0-52.272762c-7.472762 0-13.55581 6.107429-13.555809 13.616762s6.083048 13.616762 13.555809 13.616762 13.55581-6.107429 13.55581-13.616762-6.083048-13.616762-13.55581-13.616762z m-111.811047 24.990477a12.434286 12.434286 0 0 1-11.934477-16.164572c2.011429-6.473143 4.278857-12.885333 6.729143-19.053714 0.560762-1.511619 1.206857-3.023238 1.828572-4.486095a12.434286 12.434286 0 0 1 16.298666-6.704762 12.434286 12.434286 0 0 1 6.741334 16.310857 72.362667 72.362667 0 0 0-1.609143 4.010667 226.742857 226.742857 0 0 0-6.107429 17.286095 12.495238 12.495238 0 0 1-11.946666 8.801524z m248.405333-50.968381a38.607238 38.607238 0 0 1 0-77.202286 38.607238 38.607238 0 0 1 0 77.202286z m0-52.272762c-7.472762 0-13.543619 6.107429-13.543619 13.616762s6.083048 13.616762 13.543619 13.616762c7.472762 0 13.55581-6.107429 13.555809-13.616762a13.592381 13.592381 0 0 0-13.555809-13.616762z" fill="#CB6A3D" p-id="37788"></path><path d="M549.912381 947.46819H133.095619a58.392381 58.392381 0 0 1-58.282667-58.294857v-103.740952c0-10.325333 8.448-18.785524 18.785524-18.785524H589.409524c10.337524 0 18.785524 8.448 18.785524 18.785524v103.740952a58.38019 58.38019 0 0 1-58.282667 58.294857zM97.353143 789.187048v99.986285a35.779048 35.779048 0 0 0 35.754667 35.754667h416.889904a35.779048 35.779048 0 0 0 35.742476-35.754667v-99.986285H97.353143z m499.590095-56.088381H86.089143a11.300571 11.300571 0 0 1-11.264-11.276191c0-6.192762 5.071238-11.264 11.264-11.264h510.854095c6.192762 0 11.264 5.071238 11.264 11.264a11.300571 11.300571 0 0 1-11.264 11.276191z m0-55.722667H86.089143a11.300571 11.300571 0 0 1-11.264-11.264c0-15.213714 2.937905-43.702857 3.510857-49.273905l0.060952-0.694857a11.300571 11.300571 0 0 1 12.397715-10.020571 11.312762 11.312762 0 0 1 10.020571 12.397714l-0.060952 0.694857a778.569143 778.569143 0 0 0-3.011048 35.620572h487.753143c-4.644571-144.932571-99.352381-237.897143-243.980191-237.897143-82.456381 0-151.625143 30.98819-194.82819 87.210666-2.255238 2.937905-4.449524 5.948952-6.570667 9.020953a11.190857 11.190857 0 0 1-15.652571 2.876952 11.190857 11.190857 0 0 1-2.876952-15.652571c2.31619-3.376762 4.754286-6.692571 7.265523-9.947429 47.579429-61.915429 123.136-96.036571 212.736-96.036571 37.180952 0 72.252952 5.87581 104.17981 17.590857 32.548571 11.897905 61.17181 29.488762 85.016381 52.284952 50.724571 48.457143 77.507048 118.25981 77.507047 201.837714a11.385905 11.385905 0 0 1-11.349333 11.25181z m-112.432762-66.925714a37.38819 37.38819 0 0 1 0-74.752 37.38819 37.38819 0 0 1 0 74.752z m0-52.272762c-8.131048 0-14.774857 6.631619-14.774857 14.835809s6.64381 14.83581 14.774857 14.83581 14.774857-6.631619 14.774857-14.83581-6.64381-14.83581-14.774857-14.835809z m-273.152 52.272762a37.38819 37.38819 0 0 1 0-74.752 37.376 37.376 0 0 1 0 74.752z m0-52.272762c-8.143238 0-14.774857 6.631619-14.774857 14.835809s6.631619 14.83581 14.774857 14.83581c8.131048 0 14.774857-6.631619 14.774857-14.83581s-6.64381-14.83581-14.774857-14.835809z m-111.811047 24.978286a11.227429 11.227429 0 0 1-10.764191-14.592 271.811048 271.811048 0 0 1 8.508952-23.417905 11.264 11.264 0 0 1 20.796953 8.643047 85.394286 85.394286 0 0 0-1.633524 4.059429c-2.255238 5.632-4.315429 11.459048-6.131809 17.347048a11.324952 11.324952 0 0 1-10.776381 7.960381z m248.405333-50.956191a37.376 37.376 0 0 1 0-74.739809 37.38819 37.38819 0 0 1 37.327238 37.376 37.424762 37.424762 0 0 1-37.327238 37.363809z m0-52.272762c-8.131048 0-14.762667 6.631619-14.762667 14.83581s6.631619 14.83581 14.762667 14.835809c8.143238 0 14.774857-6.631619 14.774857-14.835809s-6.631619-14.83581-14.774857-14.83581z m0 0" fill="#CB6A3D" p-id="37789"></path></svg>