<?xml version="1.0" standalone="no"?><!DOCTYPE svg PUBLIC "-//W3C//DTD SVG 1.1//EN" "http://www.w3.org/Graphics/SVG/1.1/DTD/svg11.dtd"><svg t="1626481642035" class="icon" viewBox="0 0 2000 2000" version="1.1" xmlns="http://www.w3.org/2000/svg" p-id="37919" xmlns:xlink="http://www.w3.org/1999/xlink" width="100px" height="100px"><defs><style type="text/css"></style></defs><path d="M259.397742 713.786223s-84.693178-11.423731-115.419074-11.423731c0 0-88.632395 0-123.29751 44.119237 0 0-25.014032 15.559909 7.681474 39.392175l32.892467 15.362949a40.770902 40.770902 0 0 1 25.014031 48.058454 92.374652 92.374652 0 0 0 5.711866 40.573941s15.362949 36.437762 44.316198 32.695506l39.392175 5.711865s19.696088-1.969609 26.983641 34.665115c0 0 15.362949 44.316198 36.634723 50.028063 0 0 53.77032 15.362949 86.662786-59.088264 0 0 23.044423-55.739929 0-152.053798l-1.969608-28.953249" fill="#FFBDB6" p-id="37920"></path><path d="M249.746659 1023.999606a45.301002 45.301002 0 0 1-13.393339-1.969609c-25.014032-7.681474-40.37698-51.997672-42.346589-55.739928-3.939218-23.241384-13.39334-28.953249-17.332557-28.953249l-39.392176-5.711866c-34.468154 3.742257-51.800711-36.634723-53.77032-39.392175a108.722405 108.722405 0 0 1-5.908826-44.316198 31.119819 31.119819 0 0 0-19.696088-39.392176l-32.695506-15.362948c-17.332557-11.620692-25.210992-23.241384-25.210992-34.665115a25.210992 25.210992 0 0 1 11.620692-21.271775c39.392176-46.088846 125.070158-46.088846 129.009375-46.088845 30.725897 0 113.646427 11.423731 118.176527 11.423731l-1.772648 19.696088s-84.890139-11.620692-113.646427-11.620692c0 0-84.693178 0-115.616035 40.573941l-1.772648 1.772648a13.787261 13.787261 0 0 0-3.939218 7.878435c0 1.772648 1.969609 7.681474 13.39334 15.362948l28.953249 13.39334a49.24022 49.24022 0 0 1 30.725897 59.088263 93.162495 93.162495 0 0 0 3.939218 32.695506c0 1.969609 13.39334 30.922858 34.665114 28.953249h1.969609l39.392176 5.711866c5.908826 0 26.98364 3.939218 34.665114 42.346589 5.711865 15.559909 19.696088 40.573941 28.953249 42.346588 1.969609 0 46.088846 11.620692 75.042095-53.770319 0 0 21.271775-53.967281 0-146.341933v-29.15021l19.696088-1.772648 1.969608 28.756288a285.987195 285.987195 0 0 1 0 155.993016c-27.771484 59.679146-66.375816 69.52719-85.677982 69.52719z" fill="" p-id="37921"></path><path d="M813.842615 309.42554s84.890139 11.620692 115.616035 11.620692c0 0 88.632395 0 123.29751-44.316198 0 0 25.014032-15.362949-7.878435-38.407371l-32.695506-15.362949a40.770902 40.770902 0 0 1-25.014031-48.255415 74.05729 74.05729 0 0 0-21.074814-61.648755c-17.332557-17.332557-44.316198-13.39334-67.360621-17.332557 0 0-19.696088 1.969609-26.98364-34.468154 0 0-15.559909-44.316198-36.634723-50.225024 0 0-53.967281-15.362949-86.662787 59.088264 0 0-23.044423 55.936889 0 152.250759l1.969609 28.756288" fill="#FFBDB6" p-id="37922"></path><path d="M929.45865 330.697315c-30.725897 0-113.646427-11.620692-118.176527-11.620692l1.772648-19.696088s84.890139 11.423731 113.646427 11.423731c0 0 84.693178 0 115.616036-40.37698l1.772647-1.969609a12.999418 12.999418 0 0 0 3.939218-7.681474c0-1.969609-1.969609-7.681474-13.39334-15.362949l-26.98364-13.5903a49.043259 49.043259 0 0 1-30.922858-59.088264 98.480439 98.480439 0 0 0-3.742257-32.695506c0-1.772648-13.590301-30.725897-34.665114-28.756288h-1.969609l-39.392176-5.908826c-5.908826 0-26.98364-3.742257-34.665114-42.346589-5.908826-15.362949-19.696088-40.37698-28.953249-42.346589-1.969609 0-46.285806-11.423731-75.042095 53.967281 0 0-21.271775 53.967281 0 146.341932l1.969609 30.725897-19.696088 1.969609-1.969609-28.953249a285.199352 285.199352 0 0 1 0-155.796055C773.268674-15.75687 834.917429 1.575687 834.917429 1.575687c25.014032 7.681474 40.37698 51.800711 42.346589 55.739929 3.742257 23.044423 13.39334 28.953249 17.332557 28.953249h1.969609l36.437762 5.711865c34.665115-3.939218 51.997672 36.634723 53.967281 39.392176a107.7376 107.7376 0 0 1 5.711865 44.316197 31.31678 31.31678 0 0 0 19.696088 39.392176l32.695506 15.362949c15.362949 11.620692 23.044423 21.074814 23.044423 32.695505a25.210992 25.210992 0 0 1-9.651083 19.499127c-36.634723 48.058454-125.267119 48.058454-129.009376 48.058455z" fill="" p-id="37923"></path><path d="M698.42354 686.802582c-140.630067 127.039766-319.667505 159.932233-400.421465 71.299838S265.306569 494.371804 405.739675 365.362429c96.313869-86.662786 209.960296-129.009375 296.623083-119.358292a159.341351 159.341351 0 0 1 102.025735 48.058454c82.723569 88.632395 34.665115 263.730616-105.964953 392.739991z" fill="#B9D7FB" p-id="37924"></path><path d="M342.318272 779.374195l-19.696088-5.908826a210.74814 210.74814 0 0 1 40.37698-73.072486 159.341351 159.341351 0 0 1 55.93689-44.316198 147.720659 147.720659 0 0 1 48.649337-11.620691l32.695506-5.711866a158.750468 158.750468 0 0 0 40.37698-19.696088 222.762753 222.762753 0 0 0 84.496216-93.950339l3.742257-9.651083a327.742901 327.742901 0 0 1 26.98364-51.997671 168.992434 168.992434 0 0 1 39.392176-42.346589 315.137405 315.137405 0 0 1 34.665115-17.332558 154.614289 154.614289 0 0 0 39.392175-21.074814 87.844552 87.844552 0 0 0 36.634724-63.618363l19.696087 1.969609a107.934561 107.934561 0 0 1-44.316197 78.784351 136.296928 136.296928 0 0 1-44.316198 23.044423 165.841059 165.841059 0 0 0-30.725897 15.362948 221.580988 221.580988 0 0 0-36.634723 36.634723 280.472291 280.472291 0 0 0-25.014032 48.058455l-3.939217 9.651083a248.170707 248.170707 0 0 1-92.374652 102.025735 279.093564 279.093564 0 0 1-44.316198 21.271775 110.888974 110.888974 0 0 1-34.468153 5.711865 155.993016 155.993016 0 0 0-41.361785 9.848044 124.873197 124.873197 0 0 0-48.058454 39.392176 186.521952 186.521952 0 0 0-37.816489 68.542385zM265.306569 694.484057l-19.696088-5.711866a231.625993 231.625993 0 0 1 36.634723-73.072486 135.312123 135.312123 0 0 1 52.391594-44.710119 137.872615 137.872615 0 0 1 46.088845-11.620692l28.95325-5.711865a303.910635 303.910635 0 0 0 36.437762-17.332557 214.884318 214.884318 0 0 0 78.784351-94.344261c1.969609-5.711865 5.908826-11.620692 7.681475-17.332557a340.93928 340.93928 0 0 1 21.271774-44.316198 139.05438 139.05438 0 0 1 36.634724-42.346589 156.386937 156.386937 0 0 1 34.665114-19.696088 158.553507 158.553507 0 0 0 34.468154-19.696088 96.116909 96.116909 0 0 0 34.665115-67.557581l19.696087 1.969609a114.631231 114.631231 0 0 1-42.346588 78.784351 112.858583 112.858583 0 0 1-39.392176 23.044423 151.462915 151.462915 0 0 0-30.922858 15.559909 114.237309 114.237309 0 0 0-32.695506 38.407372 297.410926 297.410926 0 0 0-19.696088 42.346589c-1.772648 5.711865-5.711865 11.620692-7.681474 19.696087a227.686775 227.686775 0 0 1-86.662786 102.025735 196.960878 196.960878 0 0 1-39.392176 21.074814 95.722987 95.722987 0 0 1-32.695506 5.908827 142.008793 142.008793 0 0 0-40.37698 9.651083 120.343097 120.343097 0 0 0-44.316197 39.392175 177.26479 177.26479 0 0 0-32.498545 65.587973z" fill="" p-id="37925"></path><path d="M440.40479 817.781567h-12.211575a203.854509 203.854509 0 0 1-146.144972-61.648755c-92.571613-100.056126-50.225024-288.744648 92.374652-421.49628 96.313869-86.662786 216.656966-130.978984 311.789071-113.646427a234.777367 234.777367 0 0 1 78.784351 28.756289 146.341933 146.341933 0 0 1 37.422567 30.922858c92.374652 102.025735 51.997672 286.775039-92.374652 421.69324-78.981312 71.102877-179.037438 115.419075-269.639442 115.419075zM646.425868 234.383445c-82.723569 0-178.840477 41.164824-257.624829 111.676818-134.721241 125.267119-177.26479 302.334948-92.374651 393.921757a179.825282 179.825282 0 0 0 131.766827 56.527772c88.632395 3.939218 188.688521-39.392176 267.669834-111.479857 134.721241-125.267119 175.295182-302.334948 92.374652-393.921757a109.116327 109.116327 0 0 0-32.695506-26.98364 188.885482 188.885482 0 0 0-71.299838-25.801875 234.777367 234.777367 0 0 0-37.816489-3.939218z" fill="" p-id="37926"></path></svg>