<?xml version="1.0" standalone="no"?><!DOCTYPE svg PUBLIC "-//W3C//DTD SVG 1.1//EN" "http://www.w3.org/Graphics/SVG/1.1/DTD/svg11.dtd"><svg t="1626481710036" class="icon" viewBox="0 0 2000 2000" version="1.1" xmlns="http://www.w3.org/2000/svg" p-id="39130" xmlns:xlink="http://www.w3.org/1999/xlink" width="100px" height="100px"><defs><style type="text/css"></style></defs><path d="M508 1005.6c31.2 0 56.8-20.8 64-49.6-43.2-37.6-70.4-92.8-70.4-154.4 0-62.4 28-118.4 72.8-156V386.4c0-36-29.6-65.6-65.6-65.6H72c-36 0-65.6 29.6-65.6 65.6v552.8c0 36 29.6 65.6 65.6 65.6" fill="#5B9ED6" p-id="39131"></path><path d="M508 320.8h-48.8c36 0 65.6 29.6 65.6 65.6v225.6c0 10.4-4 20-10.4 28-20 24-36 51.2-45.6 81.6-10.4 24.8-16 51.2-16 80 0 28.8 5.6 55.2 16 80v0.8c9.6 28-11.2 57.6-40.8 57.6H72c-36 0-65.6-29.6-65.6-65.6v65.6c0 36 29.6 65.6 65.6 65.6h436c21.6 0 40-10.4 52-25.6 0.8-0.8 0.8-1.6 1.6-1.6v-0.8c0.8-0.8 0.8-0.8 0.8-1.6 0 0 0-0.8 0.8-0.8 0-0.8 0.8-0.8 0.8-1.6 0 0 0-0.8 0.8-0.8 0-0.8 0.8-0.8 0.8-1.6 0 0 0-0.8 0.8-0.8 0-0.8 0.8-0.8 0.8-1.6 0 0 0-0.8 0.8-0.8 0-0.8 0.8-0.8 0.8-1.6 0 0 0-0.8 0.8-0.8 0-0.8 0.8-0.8 0.8-1.6v-0.8c0-0.8 0.8-1.6 0.8-1.6v-0.8c0-0.8 0.8-1.6 0.8-2.4-2.4-1.6-4.8-4-6.4-5.6l-0.8-0.8c-2.4-1.6-4-4-6.4-6.4l-0.8-0.8c-1.6-2.4-4-4-5.6-6.4 0 0 0-0.8-0.8-0.8-1.6-2.4-4-4.8-5.6-7.2-28-34.4-44-79.2-44-126.4 0-62.4 28-118.4 72.8-156V386.4c-0.8-36-30.4-65.6-66.4-65.6z" fill="#4C83B3" p-id="39132"></path><path d="M134.4 259.2h311.2v61.6H134.4v-61.6z" fill="#5A67AD" p-id="39133"></path><path d="M365.6 259.2h80v61.6h-80v-61.6z" fill="#48538A" p-id="39134"></path><path d="M69.6 171.2v63.2c0 13.6 11.2 24.8 24.8 24.8h391.2c13.6 0 24.8-11.2 24.8-24.8V108c0-13.6-11.2-24.8-24.8-24.8H94.4c-13.6 0-24.8 11.2-24.8 24.8v63.2z" fill="#5B9ED6" p-id="39135"></path><path d="M399.2 83.2v176h86.4c13.6 0 24.8-11.2 24.8-24.8V108c0-13.6-11.2-24.8-24.8-24.8H399.2z" fill="#4C83B3" p-id="39136"></path><path d="M460.8 663.2c0 94.4-76.8 170.4-170.4 170.4-94.4 0-170.4-76.8-170.4-170.4 0-94.4 76.8-170.4 170.4-170.4 93.6 0 170.4 76 170.4 170.4z" fill="#EF2D57" p-id="39137"></path><path d="M386.4 522.4c19.2 27.2 30.4 60.8 30.4 96.8 0 94.4-76.8 170.4-170.4 170.4-36 0-69.6-11.2-96.8-30.4 30.4 44.8 82.4 73.6 140.8 73.6 94.4 0 170.4-76.8 170.4-170.4 0-57.6-29.6-108.8-74.4-140z" fill="#D9294F" p-id="39138"></path><path d="M908.8 801.6c0 112.8-91.2 204-204 204s-204-91.2-204-204S592 597.6 704.8 597.6s204 91.2 204 204z" fill="#FCDA55" p-id="39139"></path><path d="M828.8 639.2c26.4 34.4 41.6 76.8 41.6 123.2 0 112.8-91.2 204-204 204-46.4 0-88.8-15.2-123.2-41.6 37.6 48.8 96 80.8 162.4 80.8 112.8 0 204-91.2 204-204-0.8-66.4-32-124.8-80.8-162.4z" fill="#D9BC4A" p-id="39140"></path><path d="M565.6 948c8 6.4 16 12.8 24.8 18.4L872 684.8c-5.6-8.8-12-16.8-18.4-24.8-1.6 0.8-2.4 1.6-3.2 2.4L568 944c-0.8 1.6-2.4 2.4-2.4 4z" fill="#D9BC4A" p-id="39141"></path><path d="M832.8 344.8c-72.8 17.6-129.6 77.6-129.6 155.2v98.4h2.4c112.8 0 204 91.2 204 204 0 55.2-22.4 105.6-58.4 142.4h9.6c87.2 0 157.6-70.4 157.6-157.6v-288c0-77.6-56-142.4-129.6-155.2-0.8 0.8-36.8-4-56 0.8z" fill="#F084AD" p-id="39142"></path><path d="M888 344.8c-20-2.4-38.4-2.4-55.2 0h-1.6c72.8 13.6 128 77.6 128 154.4v287.2c0 66.4-40.8 122.4-98.4 146.4-3.2 4-6.4 7.2-10.4 11.2h9.6c87.2 0 157.6-70.4 157.6-157.6V499.2c0.8-77.6-55.2-141.6-129.6-154.4z" fill="#D47499" p-id="39143"></path><path d="M833.6 643.2c46.4 37.6 75.2 94.4 75.2 158.4 0 55.2-22.4 105.6-58.4 142.4h9.6c87.2 0 157.6-70.4 157.6-157.6v-144h-184z" fill="#EF2D57" p-id="39144"></path><path d="M960 787.2c0 66.4-40.8 122.4-98.4 146.4-1.6 1.6-3.2 3.2-4.8 5.6l-0.8 0.8-4.8 4.8h9.6c87.2 0 157.6-70.4 157.6-157.6v-144H960v144z" fill="#CC264B" p-id="39145"></path><path d="M368 647.2h-62.4v-62.4c0-8.8-7.2-16-16-16s-16 7.2-16 16v62.4h-62.4c-8.8 0-16 7.2-16 16s7.2 16 16 16h62.4v62.4c0 8.8 7.2 16 16 16s16-7.2 16-16v-62.4H368c8.8 0 16-7.2 16-16s-7.2-16-16-16z" fill="#FFFFFF" p-id="39146"></path><path d="M177.6 274.4c-8.8 0-16-7.2-16-16v-176c0-8.8 7.2-16 16-16s16 7.2 16 16v176c0 9.6-7.2 16-16 16zM290.4 274.4c-8.8 0-16-7.2-16-16v-176c0-8.8 7.2-16 16-16s16 7.2 16 16v176c-0.8 9.6-8 16-16 16zM402.4 274.4c-8.8 0-16-7.2-16-16v-176c0-8.8 7.2-16 16-16s16 7.2 16 16v176c0 9.6-7.2 16-16 16z" fill="#674297" p-id="39147"></path><path d="M562.4 960c-4 0-8-1.6-11.2-4.8-6.4-6.4-6.4-16 0-22.4l281.6-281.6c6.4-6.4 16-6.4 22.4 0s6.4 16 0 22.4l-281.6 281.6c-3.2 3.2-7.2 4.8-11.2 4.8z" fill="#E69326" p-id="39148"></path></svg>