<?xml version="1.0" standalone="no"?><!DOCTYPE svg PUBLIC "-//W3C//DTD SVG 1.1//EN" "http://www.w3.org/Graphics/SVG/1.1/DTD/svg11.dtd"><svg t="1626481793527" class="icon" viewBox="0 0 2000 2000" version="1.1" xmlns="http://www.w3.org/2000/svg" p-id="43137" xmlns:xlink="http://www.w3.org/1999/xlink" width="100px" height="100px"><defs><style type="text/css"></style></defs><path d="M972.416 755.072c0 76.518-206.131 148.787-460.416 148.787S51.584 831.59 51.584 755.072 257.715 616.55 512 616.55s460.416 62.004 460.416 138.522z" fill="#FFA869" p-id="43138"></path><path d="M512 926.874c-123.469 0-241.664-16.64-332.8-46.874-98.56-32.691-150.63-75.878-150.63-124.954 0-48.742 52.3-90.24 151.244-120.012 89.063-26.804 207.028-41.55 332.186-41.55s243.149 14.746 332.186 41.55c98.944 29.772 151.244 71.27 151.244 120.012 0 49.05-52.096 92.263-150.63 124.954-91.136 30.234-209.331 46.874-332.8 46.874z m0-287.31c-120.78 0-234.06 14.055-318.925 39.604-87.424 26.317-118.451 57.318-118.451 75.904 0 19.251 31.18 52.07 119.066 81.203 86.579 28.723 199.628 44.519 318.31 44.519s231.731-15.821 318.31-44.519c87.885-29.133 119.066-61.952 119.066-81.203 0-18.56-31.027-49.587-118.451-75.904C746.06 653.645 632.78 639.565 512 639.565z" fill="#474E54" p-id="43139"></path><path d="M236.493 755.072a275.507 82.893 0 1 0 551.014 0 275.507 82.893 0 1 0-551.014 0z" fill="#FEF8E3" p-id="43140"></path><path d="M512 861.005c-143.795 0-298.547-33.152-298.547-105.933S368.205 649.139 512 649.139s298.547 33.152 298.547 105.933S655.795 861.005 512 861.005z m0-165.786c-71.398 0-138.24 8.269-188.186 23.296-53.376 16.051-64.307 32.922-64.307 36.557s10.906 20.506 64.307 36.557C373.76 806.656 440.602 814.925 512 814.925s138.24-8.269 188.186-23.296c53.376-16.051 64.307-32.922 64.307-36.557s-10.906-20.506-64.307-36.557C650.24 703.488 583.398 695.22 512 695.22z" fill="#474E54" p-id="43141"></path><path d="M232.32 295.168a263.987 62.976 0 1 0 527.974 0 263.987 62.976 0 1 0-527.974 0z" fill="#FEF8E3" p-id="43142"></path><path d="M496.307 380.134c-68.813 0-134.605-6.22-185.216-17.536a22.01 22.01 0 0 1-5.785-40.78c33.05-18.1 106.854-29.338 192.588-29.338 84.455 0 157.773 10.982 191.335 28.646A22.042 22.042 0 0 1 700.8 343.45a22.036 22.036 0 0 1-16.922 18.61c-50.892 11.649-117.53 18.074-187.57 18.074z" fill="#8D545A" p-id="43143"></path><path d="M496.307 358.144c-137.728 0-250.829-25.165-262.886-57.267h-1.101l39.603 306.841c11.827 91.648 89.856 160.256 182.272 160.256h91.495c94.054 0 172.953-71.014 182.784-164.582l31.795-302.54h-1.101c-12.032 32.127-125.107 57.292-262.86 57.292z" fill="#FFDE77" p-id="43144"></path><path d="M760.294 300.877h-1.1c-7.143 18.97-49.485 35.507-111.36 45.85L627.2 544.536s-4.992 127.617-179.789 127.617S273.87 534.4 273.87 534.4l-8.371 23.629 6.4 49.664c11.827 91.648 89.856 160.256 182.272 160.256h91.494c94.054 0 172.954-71.015 182.784-164.583l31.846-302.49z" fill="#FFA869" p-id="43145"></path><path d="M825.626 341.043l-72.73 20.531-5.504 64.564 51.66-16.487c28.57-8.243 38.708 8.218 36.48 34.176-2.662 31.079-13.644 69.018-27.52 94.285-5.682 9.83-16.665 41.395-77.644 47.334l-1.894 17.92a184.366 184.366 0 0 1-8.807 40.039c90.163-1.69 129.127-56.243 137.805-72.064 28.186-51.354 37.914-102.093 42.317-153.498 3.66-42.905-39.731-88.832-74.163-76.8z" fill="#FFA869" p-id="43146"></path><path d="M882.586 332.928c-20.199-15.667-43.418-20.71-63.821-13.9l-38.349 10.828 2.79-26.598c0.18-1.664 0.154-3.354-0.025-4.992 0.077-1.024 0.153-2.074 0.153-3.124 0-34.918-44.953-55.654-99.43-67.993l105.83-114.893c8.628-9.37 8.013-23.936-1.33-32.563-9.345-8.627-23.937-8.039-32.564 1.331L629.914 217.702c-61.236-8.09-120.448-8.601-133.632-8.601-29.39 0-287.028 2.406-287.028 86.016 0 1.1 0.077 2.15 0.154 3.225a22.648 22.648 0 0 0 0.026 5.428l39.654 306.892c13.26 102.81 101.453 180.352 205.133 180.352h91.494c84.915 0 158.439-50.97 190.157-125.363 95.616-7.987 134.656-70.17 141.798-83.149 32.743-59.622 41.293-118.246 45.082-162.636 2.662-31.31-13.491-66.228-40.166-86.938zM768.46 443.622l37.273-11.878c3.098-0.87 5.172-1.126 6.4-1.152 0.487 1.869 0.973 5.53 0.461 11.315-2.38 27.853-12.493 62.771-24.653 84.992a127.719 127.719 0 0 0-1.945 3.635c-3.712 7.066-9.728 18.56-29.363 25.933l11.827-112.845zM665.318 270.31c43.239 9.012 62.874 19.277 69.786 24.858-1.46 1.178-3.456 2.56-6.118 4.07-0.103 0.052-0.18 0.103-0.282 0.154-0.794 0.46-1.664 0.922-2.56 1.382-0.205 0.103-0.384 0.205-0.589 0.308-1.05 0.537-2.15 1.075-3.353 1.638-0.026 0.026-0.077 0.026-0.103 0.051-0.537 0.256-1.1 0.512-1.664 0.768l-1.229 0.538c-0.844 0.358-1.715 0.742-2.636 1.126-0.538 0.23-1.076 0.435-1.639 0.666l-1.766 0.691c-0.947 0.384-1.946 0.742-2.97 1.126-0.589 0.23-1.203 0.436-1.817 0.666-0.82 0.282-1.639 0.589-2.51 0.87-0.818 0.282-1.638 0.564-2.482 0.845-0.948 0.307-1.92 0.64-2.944 0.947-0.64 0.205-1.255 0.41-1.92 0.59-1.383 0.434-2.79 0.844-4.25 1.28-0.64 0.178-1.28 0.358-1.946 0.562-1.305 0.384-2.636 0.743-4.019 1.127-0.717 0.205-1.433 0.384-2.15 0.589-1.46 0.384-2.97 0.768-4.48 1.152-0.666 0.179-1.357 0.332-2.048 0.512-1.843 0.435-3.712 0.896-5.658 1.33l-2.073 0.462c-1.844 0.41-3.712 0.819-5.632 1.228-0.333 0.077-0.64 0.128-0.948 0.205-22.886 4.762-49.024 8.5-77.107 11.034l59.136-64.18c6.17 1.05 12.16 2.177 17.971 3.405z m-169.01-15.078c32.92 0 65.126 1.51 95.103 4.326l-69.273 75.213c-8.55 0.205-17.152 0.307-25.805 0.307-62.413 0-122.42-5.35-168.986-15.052a7.211 7.211 0 0 1-0.793-0.18c-1.997-0.41-3.943-0.844-5.863-1.28-0.665-0.153-1.331-0.307-1.971-0.435-1.971-0.46-3.866-0.896-5.709-1.357-0.665-0.153-1.331-0.332-1.997-0.486a167.794 167.794 0 0 1-4.556-1.178c-0.717-0.179-1.408-0.384-2.1-0.563-1.382-0.384-2.713-0.742-4.044-1.126-0.666-0.18-1.306-0.384-1.946-0.563-1.46-0.436-2.867-0.845-4.224-1.28-0.666-0.205-1.28-0.41-1.92-0.615a76.711 76.711 0 0 1-2.893-0.947 75.042 75.042 0 0 1-2.56-0.87c-0.819-0.282-1.638-0.564-2.432-0.845-0.64-0.23-1.254-0.461-1.869-0.666-0.998-0.384-1.996-0.742-2.918-1.1-0.614-0.231-1.229-0.487-1.818-0.717-0.537-0.205-1.05-0.41-1.536-0.64a98.836 98.836 0 0 1-2.739-1.152c-0.384-0.18-0.768-0.333-1.152-0.512-1.894-0.845-3.61-1.69-5.171-2.484-0.18-0.076-0.333-0.179-0.512-0.256a79.833 79.833 0 0 1-2.662-1.433c-0.077-0.051-0.154-0.077-0.205-0.128-2.688-1.536-4.71-2.919-6.144-4.096 6.912-5.581 26.521-15.821 69.785-24.858 46.49-9.677 106.522-15.027 168.91-15.027z m49.407 489.702h-91.494c-80.563 0-149.12-60.262-159.437-140.16l-32.998-255.641c2.534 0.998 5.17 1.971 7.91 2.944 0.256 0.102 0.512 0.179 0.794 0.281 1.177 0.41 2.38 0.845 3.61 1.255 14.668 4.966 30.924 9.037 47.794 12.365 0.282 0.05 0.59 0.128 0.87 0.179 0.18 0.025 0.36 0.077 0.513 0.102 46.873 9.293 104.934 14.515 165.58 14.925 3.2 0.026 5.735 0.051 7.45 0.051 1.715 0 4.25 0 7.45-0.051 60.749-0.41 118.886-5.632 165.785-14.95 0.103-0.026 0.205-0.052 0.333-0.052 0.307-0.05 0.589-0.128 0.896-0.179 15.309-3.02 30.08-6.656 43.648-11.008 0.23-0.077 0.435-0.153 0.666-0.205 1.331-0.435 2.637-0.87 3.942-1.305a138.93 138.93 0 0 0 3.482-1.203 232.776 232.776 0 0 0 9.625-3.61l-0.41 3.968a22.414 22.414 0 0 0-1.766 7.04l-4.403 51.507-18.073 171.955v0.103l-1.87 17.792-0.076 0.512c-0.282 2.662-0.64 5.325-1.075 7.961-0.077 0.538-0.205 1.101-0.282 1.639-0.41 2.406-0.845 4.813-1.382 7.193l-0.23 0.973c-1.28 5.658-2.817 11.264-4.711 16.768-0.077 0.205-0.102 0.41-0.154 0.589a160.374 160.374 0 0 1-151.987 108.262z m331.11-329.01c-3.609 42.367-11.135 92.646-39.551 144.383-2.842 5.197-26.727 45.389-87.424 57.011 0.05-0.281 0.076-0.563 0.128-0.844l0.307-2.1c0.41-2.841 0.793-5.708 1.1-8.576l0.026-0.179c52.864-10.803 68.915-41.446 75.367-53.734a75.7 75.7 0 0 1 1.177-2.227c0.077-0.154 0.18-0.282 0.256-0.436 15.437-28.108 27.315-68.71 30.285-103.424 2.483-29.03-7.86-44.032-16.947-51.481-8.602-7.066-24.064-13.952-48.896-6.784-0.205 0.051-0.41 0.128-0.615 0.179l-18.33 5.837 1.511-14.362 56.653-16c0.46-0.128 0.896-0.256 1.331-0.435 5.479-1.894 13.363 0.538 21.12 6.554 14.387 11.187 23.86 30.77 22.503 46.617z" fill="#474E54" p-id="43147"></path><path d="M466.714 458.752c-81.664 0-129.818-15.488-130.407-15.693a17.92 17.92 0 0 1-11.161-22.758 17.95 17.95 0 0 1 22.604-11.213c1.818 0.563 76.34 23.552 197.12 9.011 9.83-1.177 18.74 5.837 19.943 15.642s-5.837 18.739-15.642 19.942c-30.259 3.661-57.881 5.069-82.457 5.069z" fill="#F7F8F8" p-id="43148"></path></svg>