<?xml version="1.0" standalone="no"?><!DOCTYPE svg PUBLIC "-//W3C//DTD SVG 1.1//EN" "http://www.w3.org/Graphics/SVG/1.1/DTD/svg11.dtd"><svg t="1626481815777" class="icon" viewBox="0 0 2000 2000" version="1.1" xmlns="http://www.w3.org/2000/svg" p-id="43284" xmlns:xlink="http://www.w3.org/1999/xlink" width="100px" height="100px"><defs><style type="text/css"></style></defs><path d="M738.304 907.546H422.63c-34.662 0-62.745-28.084-62.745-62.746V334.976h441.19V844.8c-0.025 34.662-28.109 62.746-62.771 62.746z" fill="#F9C05D" p-id="43285"></path><path d="M801.05 844.8V334.976H697.114V825.19s16.819 82.356-90.624 82.356h131.788c34.688 0 62.772-28.084 62.772-62.746z" fill="#EFAC4B" p-id="43286"></path><path d="M856.858 430.592h-32.743v-95.616a23.04 23.04 0 0 0-23.04-23.04H359.86a23.04 23.04 0 0 0-23.04 23.04V844.8c0 47.309 38.477 85.786 85.786 85.786h315.699c47.309 0 85.786-38.477 85.786-85.786v-31.872h4.787c78.873 0 143.027-64.154 143.027-143.027V545.664c0.026-63.437-51.61-115.072-115.046-115.072zM778.01 844.8c0 21.888-17.818 39.706-39.706 39.706H422.63c-21.888 0-39.705-17.818-39.705-39.706V358.016h395.11V844.8z m147.84-174.9c0 53.454-43.495 96.948-96.948 96.948h-4.787V476.672h32.743c38.041 0 68.992 30.95 68.992 68.992v124.237z" fill="#474E54" p-id="43287"></path><path d="M536.346 722.79c-9.908 0-17.92-8.012-17.92-17.92V524.8c0-9.907 8.012-17.92 17.92-17.92s17.92 8.013 17.92 17.92v180.07c0 9.908-8.013 17.92-17.92 17.92z" fill="#F7F8F8" p-id="43288"></path><path d="M837.222 240.538c-24.985 0-46.873 13.26-59.033 33.1l-4.506-0.588c-2.688-29.44-27.443-52.506-57.6-52.506-24.985 0-46.259 15.82-54.349 38.016l-6.272-0.82c-5.043-32.742-33.33-57.83-67.507-57.83-17.561 0-33.587 6.63-45.67 17.536-12.314-17.843-32.896-29.542-56.218-29.542-29.645 0-54.86 18.893-64.307 45.286a73.46 73.46 0 0 0-41.344-12.646c-40.78 0-73.856 33.075-73.856 73.856 0 40.78 33.075 73.856 73.856 73.856a73.917 73.917 0 0 0 20.582-2.918c-0.281 2.432-0.46 4.89-0.46 7.398 0 34.79 28.185 62.976 62.976 62.976 27.955 0 51.66-18.227 59.878-43.443 7.757 19.789 26.982 33.817 49.51 33.817 14.336 0 27.341-5.708 36.89-14.924a52.762 52.762 0 0 0 22.554 5.068c20.89 0 38.912-12.057 47.641-29.568 9.498 8.807 22.17 14.208 36.122 14.208 28.953 0 52.454-23.142 53.145-51.916l10.368-0.794c12.416 18.586 33.588 30.848 57.6 30.848 38.247 0 69.223-31.002 69.223-69.222s-30.976-69.248-69.223-69.248z" fill="#FFFFFF" p-id="43289"></path><path d="M463.514 458.752c-41.063 0-75.495-28.928-83.994-67.456-53.018-0.486-95.974-43.75-95.974-96.896 0-53.427 43.468-96.896 96.896-96.896 10.854 0 21.504 1.792 31.59 5.274 16.896-23.348 44.314-37.914 74.06-37.914 22.196 0 43.367 8.09 59.777 22.298a91.27 91.27 0 0 1 42.137-10.292c31.31 0 59.06 15.744 75.546 39.91 14.208-12.134 32.64-19.276 52.582-19.276 28.39 0 53.428 14.72 67.866 36.915 15.283-10.803 33.792-16.947 53.274-16.947 50.867 0 92.262 41.395 92.262 92.262s-41.395 92.263-92.262 92.263a92.109 92.109 0 0 1-54.298-17.69c-13.005 23.552-38.067 39.552-66.816 39.552a76.108 76.108 0 0 1-30.438-6.349c-13.978 13.748-32.922 21.71-53.325 21.71a75.177 75.177 0 0 1-18.253-2.228 75.804 75.804 0 0 1-41.165 12.083c-17.766 0-34.355-6.016-47.539-16.537a86.029 86.029 0 0 1-61.926 26.214z m-62.516-116.48a22.986 22.986 0 0 1 14.9 5.478 23.086 23.086 0 0 1 7.987 20.276 38.021 38.021 0 0 0-0.282 4.71c0 22.016 17.92 39.936 39.936 39.936 17.331 0 32.589-11.06 37.965-27.546a23.099 23.099 0 0 1 21.222-15.897c9.626-0.256 18.56 5.555 22.119 14.617 4.582 11.648 15.59 19.175 28.057 19.175 7.808 0 15.258-3.021 20.916-8.474a23.066 23.066 0 0 1 25.779-4.275c4.07 1.92 8.371 2.893 12.749 2.893 11.494 0 21.836-6.426 27.008-16.794a23.007 23.007 0 0 1 16.486-12.39 23.037 23.037 0 0 1 19.814 5.76c5.632 5.222 12.903 8.09 20.48 8.09 16.64 0 30.183-13.543 30.183-30.183 0-0.384-0.026-0.794-0.051-1.178l-0.026-0.512a23.068 23.068 0 0 1 18.458-23.833l7.398-1.485a23.081 23.081 0 0 1 24.73 11.443c8.14 14.746 23.654 23.885 40.448 23.885 25.472 0 46.182-20.71 46.182-46.182s-20.71-46.183-46.182-46.183c-18.33 0-34.919 10.855-42.317 27.648-4.48 10.215-15.667 15.744-26.522 13.133a23.084 23.084 0 0 1-17.587-23.808c0.051-0.717 0.077-1.434 0.077-2.15 0-19.2-15.616-34.79-34.79-34.79-16.282 0-30.234 11.058-33.895 26.905a23.04 23.04 0 0 1-26.138 17.561l-3.558-0.588a23.03 23.03 0 0 1-19.328-21.581c-1.203-24.064-21.069-42.931-45.21-42.931a45.12 45.12 0 0 0-30.259 11.622 23.06 23.06 0 0 1-34.38-4.02 45.317 45.317 0 0 0-37.274-19.583c-19.072 0-36.199 12.057-42.624 30.003a22.994 22.994 0 0 1-14.541 14.131c-6.784 2.202-14.182 1.178-20.07-2.816a50.501 50.501 0 0 0-28.416-8.678c-28.007 0-50.816 22.784-50.816 50.816s22.784 50.816 50.816 50.816c4.787 0 9.548-0.691 14.156-2.023 2.1-0.69 4.25-0.998 6.4-0.998z" fill="#474E54" p-id="43290"></path><path d="M383.462 449.408L342.63 77.133H195.405l-40.653 370.585c-37.734 20.634-63.309 60.698-63.309 106.727V904.37c0 14.72 11.93 26.624 26.624 26.624H417.23c14.72 0 26.624-11.93 26.624-26.624V554.445c0-44.826-24.295-83.968-60.39-105.037z" fill="#70E7D3" p-id="43291"></path><path d="M417.229 930.995c14.72 0 26.624-11.93 26.624-26.624V554.445c0-44.826-24.295-83.968-60.416-105.037L342.63 77.133h-72.499l49.331 426.931s43.136 7.398 43.136 68.173v358.758h54.63z" fill="#04B29D" p-id="43292"></path><path d="M91.443 555.238h223.335v287.59H91.443z" fill="#77C5E8" p-id="43293"></path><path d="M405.146 435.968l-36.813-335.795h15.078a23.04 23.04 0 0 0 0-46.08H157.363a23.04 23.04 0 0 0 0 46.08h12.34L133.093 433.92a144.63 144.63 0 0 0-64.69 120.525V904.37c0 27.392 22.271 49.664 49.663 49.664H417.23c27.392 0 49.664-22.272 49.664-49.664V554.445c0-47.181-23.373-91.571-61.747-118.477z m-113.408 142.31v241.51H114.483v-241.51h177.255z m129.075 326.093a3.595 3.595 0 0 1-3.584 3.584H118.067a3.595 3.595 0 0 1-3.584-3.584V865.87h200.295a23.04 23.04 0 0 0 23.04-23.04v-287.59a23.04 23.04 0 0 0-23.04-23.04h-197.71a98.637 98.637 0 0 1 48.743-64.257 23.027 23.027 0 0 0 11.853-17.715l38.4-350.08h105.907l38.58 351.744a23.078 23.078 0 0 0 11.289 17.383c30.208 17.638 48.973 50.252 48.973 85.145v349.952z" fill="#474E54" p-id="43294"></path><path d="M218.035 639.18h-65.357c-9.907 0-17.92-8.012-17.92-17.92s8.013-17.92 17.92-17.92h65.357c9.907 0 17.92 8.014 17.92 17.92s-8.013 17.92-17.92 17.92z" fill="#F7F8F8" p-id="43295"></path></svg>