<?xml version="1.0" standalone="no"?><!DOCTYPE svg PUBLIC "-//W3C//DTD SVG 1.1//EN" "http://www.w3.org/Graphics/SVG/1.1/DTD/svg11.dtd"><svg t="1626446648078" class="icon" viewBox="0 0 2000 2000" version="1.1" xmlns="http://www.w3.org/2000/svg" p-id="1540" xmlns:xlink="http://www.w3.org/1999/xlink" width="100px" height="100px"><defs><style type="text/css"></style></defs><path d="M179.541333 256c-40.576 8.533333-114.517333 56.896-117.333333 117.333333l938.666667 53.333334c-21.333333-96-28.8-138.666667-138.666667-170.666667-42.282667-12.309333-145.706667-32-213.333333 10.666667-25.386667-21.333333-100.842667-42.666667-160-42.666667-51.413333 0-139.285333 23.509333-164.650667 42.666667-42.24-19.157333-93.973333-21.333333-144.682667-10.666667z" fill="#E77C1E" p-id="1541"></path><path d="M693.482667 247.850667c13.973333 49.066667 21.973333 109.610667 18.837333 162.432L435.52 362.666667c-30.250667-42.282667-114.666667-62.72-110.250667-96.768 26.666667-19.008 112.853333-41.898667 163.584-41.898667 59.157333 0 134.613333 21.333333 160 42.666667a157.354667 157.354667 0 0 1 44.608-18.816z" fill="#E78526" p-id="1542"></path><path d="M616.874667 341.333333c10.666667-21.333333 21.333333 0 21.333333-42.666666 32-42.666667 24.32-40.618667 10.666667-32a63.872 63.872 0 0 0-4.629334-3.52C627.52 277.333333 606.186667 309.333333 616.853333 341.333333z" fill="#DD7A1B" p-id="1543"></path><path d="M658.218667 261.269333c-26.282667 26.816-44.629333 53.333333-40.853334 72.234667 2.176 10.922667 14.677333 38.421333 34.346667 73.322667l349.162667 19.84-1.216-5.482667c-20.458667-92.16-29.696-133.802667-137.472-165.184-40.341333-11.733333-136.490667-30.250667-203.968 5.269333z" fill="#F08C2B" p-id="1544"></path><path d="M766.208 320c-32 10.666667-96.490667 18.496-106.666667 32 2.176 10.922667-27.52 19.925333-7.850666 54.826667l349.162666 19.84-1.216-5.482667c-11.093333-50.026667-18.88-85.162667-40.917333-111.850667-42.24-25.6-139.178667-7.104-192.512 10.666667z" fill="#EA8321" p-id="1545"></path><path d="M691.541333 341.333333c-129.066667 52.266667-201.728 51.690667-330.666666 0 0-42.666667 74.666667-42.666667 96-96 21.333333-85.333333 32-181.333333 117.333333-245.333333 14.208 7.104 32 21.333333 74.666667 53.333333-64 32-74.666667 117.333333-74.666667 192s117.333333 53.333333 117.333333 96z" fill="#6B7E5F" p-id="1546"></path><path d="M366.784 338.965333c2.368-2.368 4.757333-4.736 26.090667 2.368 0-18.368 15.786667-28.821333 33.813333-40.746666 23.829333-15.765333 51.52-34.069333 51.52-76.586667 0-68.437333 53.76-172.693333 112-214.272-6.250667-4.266667-11.306667-7.381333-16-9.728-64.384 48.277333-86.272 114.773333-102.293333 181.162667-2.282667 9.472-4.458667 18.965333-6.613334 28.373333l-0.512 2.282667c-2.581333 11.285333-5.162667 22.485333-7.914666 33.514666-10.602667 26.453333-34.304 39.786667-55.509334 51.712-21.546667 12.117333-40.490667 22.784-40.490666 44.288 3.541333 0 4.736-1.194667 5.909333-2.368z" fill="#5A6C4F" p-id="1547"></path><path d="M8.874667 448c32-149.333333 160-170.666667 309.333333-128-138.666667 74.666667 32 586.666667-128 597.333333s-213.333333-320-181.333333-469.333333z" fill="#E27516" p-id="1548"></path><path d="M51.541333 448c25.130667-117.333333 149.333333-160 330.666667-128-138.666667 74.666667 20.629333 624.554667-149.333333 640-234.666667 21.333333-213.333333-362.666667-181.333334-512z" fill="#D96D0E" p-id="1549"></path><path d="M1043.541333 437.333333c-32-149.333333-149.333333-149.333333-298.666666-106.666666 138.666667 74.666667-32 586.666667 128 597.333333s202.666667-341.333333 170.666666-490.666667z" fill="#F79537" p-id="1550"></path><path d="M1022.208 490.666667c-32-149.333333-170.666667-181.333333-277.333333-160 277.333333 85.333333 160 480 128 597.333333 192-42.666667 173.546667-324.330667 149.333333-437.333333z" fill="#EA8321" p-id="1551"></path><path d="M62.208 458.666667c25.6-119.466667 170.666667-181.333333 320-138.666667-138.666667 74.666667 20.629333 624.554667-149.333333 640-234.666667 21.333333-202.666667-352-170.666667-501.333333z" fill="#E77C1E" p-id="1552"></path><path d="M531.52 960V373.333333c0-32-74.453333-62.826667-160-53.333333-298.666667 33.194667-240.746667 512-192 597.333333 48.768 85.333333 213.333333 138.666667 352 42.666667z" fill="#E27516" p-id="1553"></path><path d="M1000.853333 472.149333c-25.6-119.466667-181.333333-173.482667-330.666666-130.816 138.666667 74.666667-53.674667 640 106.666666 640 298.666667 0 257.706667-352 224-509.184z" fill="#F08C2B" p-id="1554"></path><path d="M904.874667 586.666667c-16.256-138.112-85.333333-266.666667-234.666667-245.333334 138.666667 74.666667-53.696 640 106.666667 640 117.333333-32 149.333333-213.333333 128-394.666666z" fill="#DD7A1B" p-id="1555"></path><path d="M531.52 960V373.333333c0-32-53.12-62.826667-138.666667-53.333333-298.666667 33.194667-251.413333 512-202.666666 597.333333 48.768 85.333333 202.666667 138.666667 341.333333 42.666667z" fill="#EB8123" p-id="1556"></path><path d="M531.52 960V373.333333c-10.666667-42.666667-26.282667 32.149333-21.333333 106.666667 10.666667 160 9.173333 295.168 0 394.666667s11.946667 88.896 21.333333 85.333333z" fill="#E17515" p-id="1557"></path><path d="M531.541333 960V375.530667c0-42.666667 81.408-50.218667 181.333334-34.197334 213.333333 34.197333 192 394.666667 160 522.666667s-213.333333 192-341.333334 96z" fill="#E78526" p-id="1558"></path><path d="M531.541333 957.76v-586.666667c21.333333-40.426667 10.645333 44.906667 10.645334 76.906667 0 160.362667-5.717333 353.237333 10.666666 437.333333 16.405333 84.096-11.264 91.306667-21.333333 72.426667z" fill="#E17515" p-id="1559"></path><path d="M294.144 256.213333c7.957333 8.490667 19.733333 17.258667 32.746667 26.944 14.528 10.837333 30.613333 22.826667 44.650666 36.842667 0-7.893333-21.333333-38.997333-38.186666-59.029333a71.893333 71.893333 0 0 0-9.109334 5.696 180.138667 180.138667 0 0 0-30.08-10.453334z" fill="#E27516" p-id="1560"></path></svg>