<?xml version="1.0" standalone="no"?><!DOCTYPE svg PUBLIC "-//W3C//DTD SVG 1.1//EN" "http://www.w3.org/Graphics/SVG/1.1/DTD/svg11.dtd"><svg t="1626481864861" class="icon" viewBox="0 0 2000 2000" version="1.1" xmlns="http://www.w3.org/2000/svg" p-id="43429" xmlns:xlink="http://www.w3.org/1999/xlink" width="100px" height="100px"><defs><style type="text/css"></style></defs><path d="M119.322 589.85h786.841v335.616H119.322z" fill="#BC88B8" p-id="43430"></path><path d="M769.254 584.269s43.136 11.776 43.136 74.521v284.98h105.856V622.72s-0.742-38.426-44.8-38.426-104.192-0.025-104.192-0.025z" fill="#B571B4" p-id="43431"></path><path d="M64.333 715.366a44.8 44.8 0 1 0 89.6 0 44.8 44.8 0 1 0-89.6 0zM338.202 715.366a44.8 44.8 0 1 0 89.6 0 44.8 44.8 0 1 0-89.6 0zM597.53 715.366a44.8 44.8 0 1 0 89.6 0 44.8 44.8 0 1 0-89.6 0zM867.072 715.366a44.8 44.8 0 1 0 89.6 0 44.8 44.8 0 1 0-89.6 0zM753.306 330.24H274.074c-26.343 0-47.719 21.35-47.719 47.718v196.66h574.669v-196.66c0-26.368-21.376-47.718-47.718-47.718z" fill="#FFC97B" p-id="43432"></path><path d="M675.66 336.896s49.793 4.89 49.793 53.914v178.432h81.382v-210.79s12.186-33.332-131.174-21.556z" fill="#F9B55A" p-id="43433"></path><path d="M698.214 484.147c-28.544 0-43.878-10.163-56.217-18.355-10.829-7.194-18.637-12.365-36.403-12.365-17.741 0-25.55 5.197-36.378 12.365-12.314 8.166-27.648 18.355-56.192 18.355s-43.878-10.163-56.192-18.355c-10.829-7.194-18.637-12.365-36.378-12.365-17.74 0-25.548 5.197-36.377 12.365-12.314 8.166-27.648 18.355-56.192 18.355s-43.879-10.163-56.192-18.355c-10.829-7.194-18.637-12.365-36.378-12.365-9.907 0-17.92-8.013-17.92-17.92s8.013-17.92 17.92-17.92c28.544 0 43.879 10.163 56.192 18.355 10.829 7.194 18.637 12.365 36.378 12.365s25.549-5.197 36.377-12.365c12.314-8.166 27.648-18.355 56.192-18.355s43.879 10.163 56.192 18.355c10.83 7.194 18.637 12.365 36.378 12.365s25.574-5.197 36.378-12.365c12.313-8.166 27.648-18.355 56.192-18.355s43.878 10.163 56.217 18.355c10.829 7.194 18.637 12.365 36.403 12.365s25.575-5.197 36.404-12.365c12.313-8.166 27.648-18.355 56.217-18.355 9.907 0 17.92 8.013 17.92 17.92s-8.013 17.92-17.92 17.92c-17.74 0-25.574 5.197-36.403 12.365-12.314 8.166-27.648 18.355-56.218 18.355z" fill="#F7F8F8" p-id="43434"></path><path d="M353.69 186.778h-3.021c-22.912 0-41.498 18.585-41.498 41.497V330.24h86.016V228.275c0-22.912-18.585-41.497-41.497-41.497z m159.82 0h-3.02c-22.912 0-41.498 18.585-41.498 41.497V330.24h86.016V228.275c0-22.912-18.586-41.497-41.498-41.497z m163.661 0h-3.02c-22.913 0-41.498 18.585-41.498 41.497V330.24h86.016V228.275c0-22.912-18.56-41.497-41.498-41.497z" fill="#EE82A6" p-id="43435"></path><path d="M391.834 146.176c0-21.914-28.186-75.008-39.655-75.008-14.336 0-39.654 53.12-39.654 75.008s17.766 39.654 39.654 39.654c21.914 0 39.655-17.766 39.655-39.654z m159.82 0c0-21.914-28.185-75.008-39.654-75.008-14.336 0-39.654 53.12-39.654 75.008S490.112 185.83 512 185.83s39.654-17.766 39.654-39.654z m163.661 0c0-21.914-28.185-75.008-39.654-75.008-14.336 0-39.655 53.12-39.655 75.008s17.767 39.654 39.655 39.654c21.913 0 39.654-17.766 39.654-39.654z" fill="#FFC97B" p-id="43436"></path><path d="M962.842 914.714h-21.556V779.162c26.112-9.447 44.8-34.484 44.8-63.821s-18.713-54.349-44.8-63.821v-30.438c0-38.35-31.206-69.556-69.555-69.556h-47.667V377.907c0-39.014-31.744-70.758-70.758-70.758h-11.597v-78.874c0-16.691-6.375-31.897-16.794-43.366 8.423-10.675 13.44-24.115 13.44-38.733 0-19.968-12.723-46.157-18.201-56.5-19.508-36.838-34.023-41.548-44.493-41.548-16.717 0-31.258 13.312-45.747 41.907-8.192 16.154-16.948 39.373-16.948 56.141 0 14.618 5.044 28.058 13.44 38.733-10.419 11.469-16.793 26.7-16.793 43.366V307.2h-31.54v-78.925c0-16.691-6.374-31.897-16.793-43.366 8.422-10.675 13.44-24.115 13.44-38.733 0-19.968-12.723-46.157-18.202-56.5-19.507-36.838-34.022-41.548-44.492-41.548-16.717 0-31.258 13.312-45.748 41.907-8.192 16.154-16.947 39.373-16.947 56.141 0 14.618 5.043 28.058 13.44 38.733-10.419 11.469-16.793 26.7-16.793 43.366V307.2h-27.776v-78.925c0-16.691-6.375-31.897-16.794-43.366 8.422-10.675 13.44-24.115 13.44-38.733 0-19.968-12.723-46.157-18.202-56.5-19.507-36.838-34.022-41.548-44.492-41.548-16.717 0-31.258 13.312-45.748 41.907-8.192 16.154-16.947 39.373-16.947 56.141 0 14.618 5.043 28.058 13.44 38.733-10.419 11.469-16.793 26.7-16.793 43.366V307.2h-12.058c-39.014 0-70.758 31.744-70.758 70.758v173.62h-47.642c-38.349 0-69.555 31.206-69.555 69.555v30.438c-26.112 9.447-44.8 34.483-44.8 63.821s18.713 54.349 44.8 63.82v135.553H64.538a23.04 23.04 0 0 0 0 46.08h898.304c12.723 0 23.04-10.317 23.04-23.04s-10.317-23.091-23.04-23.091z m-22.836-199.348c0 12.007-9.753 21.76-21.76 21.76-12.006 0-21.76-9.753-21.76-21.76 0-11.187 8.5-20.428 19.38-21.632 0.793 0.077 1.587 0.128 2.38 0.128s1.613-0.05 2.381-0.128c10.88 1.204 19.38 10.445 19.38 21.632zM675.072 103.373c8.14 13.67 17.203 34.304 17.203 42.803 0 9.165-7.45 16.614-16.614 16.614s-16.615-7.45-16.615-16.614c0-9.293 8.397-29.645 16.026-42.803z m-19.38 124.902c0-10.163 8.27-18.457 18.458-18.457h3.021c10.163 0 18.458 8.268 18.458 18.457V307.2h-39.936v-78.925zM511.438 103.373c8.14 13.67 17.229 34.304 17.229 42.803 0 9.165-7.45 16.614-16.615 16.614s-16.614-7.45-16.614-16.614c-0.026-9.293 8.371-29.645 16-42.803z m-19.354 124.902c0-10.163 8.269-18.457 18.458-18.457h3.02c10.164 0 18.458 8.268 18.458 18.457V307.2h-39.936v-78.925zM351.59 103.373c8.141 13.67 17.23 34.304 17.23 42.803 0 9.165-7.45 16.614-16.615 16.614s-16.615-7.45-16.615-16.614c-0.025-9.293 8.372-29.645 16-42.803z m-19.379 124.902c0-10.163 8.269-18.457 18.458-18.457h3.02c10.164 0 18.458 8.268 18.458 18.457V307.2h-39.936v-78.925z m-82.816 149.683c0-13.593 11.06-24.678 24.679-24.678H753.33c13.594 0 24.679 11.06 24.679 24.678v173.62H249.395v-173.62z m-93.747 219.7h716.083c12.928 0 23.475 10.521 23.475 23.475v30.438c-26.112 9.447-44.8 34.483-44.8 63.821 0 14.797 4.762 28.493 12.852 39.654-12.852 5.94-22.733 13.594-31.54 20.404-15.564 12.057-26.803 20.761-51.942 20.761-25.14 0-36.378-8.704-51.942-20.761-8.474-6.58-17.997-13.901-30.157-19.738a67.226 67.226 0 0 0 13.363-40.32c0-37.274-30.31-67.584-67.584-67.584s-67.584 30.31-67.584 67.584c0 16.512 5.965 31.642 15.82 43.392-9.394 5.222-17.151 11.187-24.191 16.64-15.565 12.058-26.778 20.762-51.917 20.762s-36.378-8.704-51.917-20.762c-7.782-6.042-16.435-12.723-27.238-18.304 9.037-11.52 14.438-26.01 14.438-41.754 0-37.401-30.438-67.84-67.84-67.84s-67.84 30.439-67.84 67.84c0 15.898 5.504 30.516 14.695 42.112-10.47 5.504-18.919 12.032-26.548 17.946-15.564 12.058-26.777 20.762-51.916 20.762s-36.378-8.704-51.917-20.762c-9.447-7.322-20.173-15.59-34.458-21.658 7.527-10.93 11.93-24.14 11.93-38.374 0-29.312-18.714-54.349-44.8-63.82v-30.44c0-12.953 10.521-23.474 23.475-23.474zM643.456 736.87c-11.853 0-21.504-9.65-21.504-21.504s9.651-21.504 21.504-21.504 21.504 9.652 21.504 21.504-9.651 21.504-21.504 21.504z m-260.454 0.256c-12.007 0-21.76-9.753-21.76-21.76s9.753-21.76 21.76-21.76c12.006 0 21.76 9.754 21.76 21.76s-9.754 21.76-21.76 21.76z m-273.87-43.52c12.007 0 21.76 9.754 21.76 21.76s-9.753 21.76-21.76 21.76c-12.006 0-21.76-9.753-21.76-21.76s9.754-21.76 21.76-21.76z m23.04 221.108V791.936c16.666 2.509 26.446 10.086 39.066 19.866 17.485 13.568 39.245 30.438 80.154 30.438s62.669-16.87 80.154-30.438c15.564-12.058 26.777-20.762 51.916-20.762s36.378 8.704 51.943 20.762c17.485 13.568 39.245 30.438 80.153 30.438s62.67-16.87 80.154-30.438c15.565-12.058 26.778-20.762 51.917-20.762s36.377 8.704 51.942 20.762c17.485 13.568 39.245 30.438 80.18 30.438s62.668-16.87 80.153-30.438c11.622-9.012 20.838-16.154 35.277-19.2v122.086H132.173z" fill="#474E54" p-id="43437"></path></svg>