<?xml version="1.0" standalone="no"?><!DOCTYPE svg PUBLIC "-//W3C//DTD SVG 1.1//EN" "http://www.w3.org/Graphics/SVG/1.1/DTD/svg11.dtd"><svg t="1626481895939" class="icon" viewBox="0 0 2000 2000" version="1.1" xmlns="http://www.w3.org/2000/svg" p-id="44567" xmlns:xlink="http://www.w3.org/1999/xlink" width="100px" height="100px"><defs><style type="text/css"></style></defs><path d="M567.731 752.691H455.066c-197.581 0-357.735-160.153-357.735-357.734v-16.538h828.16v16.538c-0.025 197.555-160.179 357.734-357.76 357.734z" fill="#BA8288" p-id="44568"></path><path d="M796.058 378.394S814.899 735.462 512 752.666c112.102 0.563 361.19-35.072 419.994-367.104-47.053-7.168-135.936-7.168-135.936-7.168z" fill="#935F66" p-id="44569"></path><path d="M567.731 775.731H455.066c-209.972 0-380.775-170.829-380.775-380.774v-16.538a23.04 23.04 0 0 1 23.04-23.04h828.16a23.04 23.04 0 0 1 23.04 23.04v16.538c-0.025 209.945-170.829 380.774-380.8 380.774zM120.422 401.434c3.482 181.555 152.27 328.217 334.644 328.217H567.73c182.375 0 331.162-146.637 334.643-328.217H120.422z" fill="#474E54" p-id="44570"></path><path d="M551.194 760.371h-79.59c-61.16 0-118.887-14.669-169.882-40.678l-34.688 207.974h488.678l-41.037-204.8c-49.382 24.013-104.857 37.504-163.481 37.504z" fill="#8D545A" p-id="44571"></path><path d="M755.738 950.682H267.059a23.02 23.02 0 0 1-17.587-8.141 23.014 23.014 0 0 1-5.146-18.688l34.688-207.975a23.043 23.043 0 0 1 33.204-16.742c49.638 25.318 103.27 38.17 159.385 38.17h79.59c53.786 0 105.421-11.853 153.421-35.2a22.994 22.994 0 0 1 20.301 0.076 23.048 23.048 0 0 1 12.365 16.103l41.037 204.8c1.357 6.758-0.384 13.798-4.762 19.123a22.945 22.945 0 0 1-17.817 8.474z m-461.492-46.08h433.357l-29.875-149.12c-46.515 18.534-95.693 27.904-146.56 27.904h-79.59c-52.992 0-104.013-10.138-152.116-30.157l-25.216 151.373z" fill="#474E54" p-id="44572"></path><path d="M367.77 378.394l50.227-216.756c9.907-42.726 47.974-72.985 91.827-72.985 44.16 0 82.38 30.643 92.006 73.728l48.205 215.987H367.77z" fill="#935F66" p-id="44573"></path><path d="M650.035 401.434H367.77c-7.015 0-13.67-3.2-18.048-8.704s-5.99-12.698-4.404-19.533l50.228-216.755c12.39-53.479 59.392-90.83 114.278-90.83 55.347 0 102.426 37.735 114.483 91.751l48.205 215.987c1.51 6.836-0.128 13.978-4.506 19.43a22.95 22.95 0 0 1-17.97 8.654z m-253.286-46.08h224.537l-41.932-187.93c-7.322-32.794-35.892-55.706-69.504-55.706-33.332 0-61.85 22.682-69.376 55.143l-43.725 188.493z" fill="#474E54" p-id="44574"></path><path d="M331.315 642.611c-2.688 0-5.401-0.614-7.961-1.869C254.54 606.566 199.987 500.48 197.709 496a17.907 17.907 0 0 1 7.859-24.09c8.806-4.48 19.61-0.972 24.09 7.834 0.512 0.998 51.507 100.02 109.644 128.896 8.858 4.403 12.493 15.155 8.09 24.013a17.912 17.912 0 0 1-16.077 9.958z" fill="#F7F8F8" p-id="44575"></path><path d="M179.38 336c-4.84 0-9.729-1.51-13.876-4.66-30.106-22.783-37.069-47-37.606-63.308-0.743-22.4 9.753-44.186 29.568-61.338 4.864-4.224 5.632-7.91 5.734-10.956 0.512-14.9-16.256-36.788-24.013-44.468-9.037-8.96-9.062-23.552-0.102-32.588 8.96-9.037 23.552-9.063 32.589-0.103 3.993 3.968 38.912 39.834 37.555 78.72-0.589 17.178-8.064 32.461-21.607 44.211-8.96 7.783-13.977 16.87-13.696 24.986 0.384 11.392 10.727 21.555 19.354 28.083 10.138 7.68 12.16 22.119 4.48 32.282A22.989 22.989 0 0 1 179.38 336z m108.44 0c-4.838 0-9.727-1.51-13.874-4.66-30.106-22.783-37.07-47-37.607-63.308-0.742-22.4 9.754-44.186 29.568-61.338 4.864-4.224 5.632-7.91 5.735-10.956 0.512-14.9-16.256-36.788-24.013-44.468-9.037-8.96-9.063-23.552-0.103-32.588 8.96-9.037 23.552-9.063 32.59-0.103 3.993 3.968 38.911 39.834 37.554 78.72-0.588 17.178-8.064 32.461-21.606 44.211-8.96 7.783-13.978 16.87-13.696 24.986 0.384 11.392 10.726 21.555 19.354 28.083 10.137 7.68 12.16 22.119 4.48 32.282A22.989 22.989 0 0 1 287.82 336z m460.954 0c-4.838 0-9.728-1.51-13.875-4.66-30.105-22.783-37.069-47-37.606-63.308-0.743-22.4 9.753-44.186 29.593-61.338 4.864-4.224 5.632-7.91 5.735-10.956 0.512-14.9-16.256-36.788-24.013-44.468-9.011-8.96-9.062-23.552-0.102-32.588 8.96-9.012 23.552-9.063 32.588-0.103 3.994 3.968 38.887 39.834 37.556 78.72-0.59 17.178-8.064 32.461-21.607 44.211-8.96 7.783-13.977 16.87-13.696 24.986 0.384 11.392 10.752 21.555 19.38 28.083 10.137 7.68 12.16 22.119 4.48 32.282A23.158 23.158 0 0 1 748.773 336z m108.442 0c-4.838 0-9.728-1.51-13.875-4.66-30.106-22.783-37.069-47-37.607-63.308-0.742-22.4 9.754-44.186 29.568-61.338 4.864-4.224 5.632-7.91 5.735-10.956 0.512-14.9-16.256-36.788-24.013-44.468-9.037-8.96-9.062-23.552-0.102-32.588 8.96-9.037 23.552-9.063 32.588-0.103 3.994 3.968 38.912 39.834 37.556 78.72-0.59 17.178-8.064 32.461-21.607 44.211-8.96 7.783-13.977 16.87-13.696 24.986 0.384 11.392 10.727 21.555 19.354 28.083 10.137 7.68 12.16 22.119 4.48 32.282A22.989 22.989 0 0 1 857.216 336z" fill="#474E54" p-id="44576"></path></svg>