<?xml version="1.0" standalone="no"?><!DOCTYPE svg PUBLIC "-//W3C//DTD SVG 1.1//EN" "http://www.w3.org/Graphics/SVG/1.1/DTD/svg11.dtd"><svg t="1626481916329" class="icon" viewBox="0 0 2000 2000" version="1.1" xmlns="http://www.w3.org/2000/svg" p-id="44712" xmlns:xlink="http://www.w3.org/1999/xlink" width="100px" height="100px"><defs><style type="text/css"></style></defs><path d="M556.66688 81.42848V36.12672c0-13.312 10.752-24.1664 24.14592-24.1664h163.24608c13.29152 0 24.14592 10.83392 24.14592 24.1664V86.2208" fill="#FFFAD9" p-id="44713"></path><path d="M555.19232 86.20032l-203.12064 203.10016a49.52064 49.52064 0 0 0-14.39744 32.91136h-0.16384v1.49504a14.86848 14.86848 0 0 0 0 1.35168v555.27424a54.72256 54.72256 0 0 0 54.76352 54.76352h538.58304a54.76352 54.76352 0 0 0 54.76352-54.76352V322.84672a48.9472 48.9472 0 0 0-14.336-35.67616L770.33472 86.2208H555.19232z" fill="#FFFBE9" p-id="44714"></path><path d="M930.87744 945.3568H392.2944a65.08544 65.08544 0 0 1-65.00352-65.00352V314.83904l0.9216-0.26624a59.392 59.392 0 0 1 16.62976-32.48128L550.95296 75.96032h223.6416l203.93984 203.93984c11.4688 11.42784 17.6128 26.7264 17.34656 43.08992v557.34272a65.08544 65.08544 0 0 1-65.00352 65.024zM347.77088 326.00064v554.35264c0 24.53504 19.968 44.52352 44.52352 44.52352h538.58304a44.58496 44.58496 0 0 0 44.52352-44.52352V322.84672a38.74816 38.74816 0 0 0-11.32544-28.42624L766.11584 96.4608H559.43168l-200.11008 200.11008a39.424 39.424 0 0 0-11.40736 26.13248l-0.14336 3.29728z" fill="" p-id="44715"></path><path d="M760.38144 86.30272l15.5648 13.33248-196.608 229.31456-15.5648-13.33248z" fill="" p-id="44716"></path><path d="M337.69472 311.99232h647.94624v20.48H337.69472z" fill="" p-id="44717"></path><path d="M573.70624 785.75616l-228.1472-62.73024v-118.80448l228.1472 62.68928v118.84544z m0 0l403.5584-105.32864v-118.80448l-403.5584 105.28768v118.84544z" fill="#124296" p-id="44718"></path><path d="M561.31584 322.23232h20.48V935.1168h-20.48z" fill="" p-id="44719"></path><path d="M256.47104 160.78848V115.46624c0-13.312 10.81344-24.14592 24.18688-24.14592h163.20512c13.33248 0 24.1664 10.81344 24.1664 24.14592v50.09408" fill="#FFFAD9" p-id="44720"></path><path d="M478.26944 165.56032h-20.48V115.46624a13.9264 13.9264 0 0 0-13.9264-13.90592h-163.20512a13.94688 13.94688 0 0 0-13.94688 13.90592v45.32224h-20.48V115.46624c0-18.96448 15.44192-34.38592 34.42688-34.38592h163.20512c18.96448 0 34.4064 15.42144 34.4064 34.38592v50.09408z" fill="" p-id="44721"></path><path d="M256.06144 163.1232l-203.14112 203.12064a49.43872 49.43872 0 0 0-14.39744 32.91136h-0.14336v1.45408a15.33952 15.33952 0 0 0 0 1.37216v555.3152a54.72256 54.72256 0 0 0 54.74304 54.72256h538.58304a54.74304 54.74304 0 0 0 54.76352-54.72256V399.79008a49.00864 49.00864 0 0 0-14.29504-35.69664l-200.97024-200.94976H256.06144z" fill="#FFFBE9" p-id="44722"></path><path d="M631.7056 1022.27968H93.12256a65.04448 65.04448 0 0 1-64.98304-64.96256V391.76192l0.9216-0.26624a59.53536 59.53536 0 0 1 16.62976-32.48128L251.82208 152.8832h223.58016l203.9808 203.93984c11.4688 11.4688 17.59232 26.78784 17.3056 43.13088v557.34272a65.024 65.024 0 0 1-64.98304 64.98304zM48.61952 402.96448v554.35264c0 24.51456 19.968 44.48256 44.50304 44.48256h538.58304a44.56448 44.56448 0 0 0 44.52352-44.48256V399.79008a38.8096 38.8096 0 0 0-11.30496-28.4672L466.944 173.3632H260.3008l-200.15104 200.13056a39.36256 39.36256 0 0 0-11.40736 26.13248l-0.12288 3.33824z" fill="" p-id="44723"></path><path d="M461.312 163.30752l15.52384 13.33248-196.73088 229.1712-15.54432-13.33248z" fill="" p-id="44724"></path><path d="M38.52288 388.93568h647.92576v20.48H38.52288z" fill="" p-id="44725"></path><path d="M274.5344 862.67904L46.3872 799.9488v-118.84544l228.1472 62.75072v118.82496z m0 0l403.59936-105.32864v-118.76352l-403.59936 105.28768v118.80448z" fill="#124296" p-id="44726"></path><path d="M262.16448 399.17568h20.48v612.864h-20.48z" fill="" p-id="44727"></path><path d="M556.66688 81.42848V36.12672c0-13.312 10.752-24.1664 24.14592-24.1664h163.24608c13.29152 0 24.14592 10.83392 24.14592 24.1664V86.2208" fill="#FFFAD9" p-id="44728"></path><path d="M778.42432 91.32032h-20.48V41.24672a13.9264 13.9264 0 0 0-13.90592-13.9264h-163.24608a13.9264 13.9264 0 0 0-13.90592 13.9264v45.30176h-20.48V41.24672c0-18.96448 15.42144-34.4064 34.38592-34.4064h163.24608a34.4064 34.4064 0 0 1 34.38592 34.4064v50.0736z" fill="" p-id="44729"></path><path d="M591.40096 283.3408l169.00096-197.05856 15.5648 13.35296-170.02496 198.2464zM630.29248 311.99232h355.34848v20.48H630.29248z" fill="" p-id="44730"></path><path d="M631.7056 1022.27968H93.12256a65.04448 65.04448 0 0 1-64.98304-64.96256V391.76192l0.9216-0.26624a59.53536 59.53536 0 0 1 16.62976-32.48128L251.82208 152.8832h223.58016l13.78304 13.78304 190.19776 190.17728c11.4688 11.4688 17.59232 26.78784 17.3056 43.13088v557.34272a65.024 65.024 0 0 1-64.98304 64.96256zM48.61952 402.96448v554.35264c0 24.51456 19.968 44.48256 44.50304 44.48256h538.58304a44.56448 44.56448 0 0 0 44.52352-44.48256V399.79008a38.8096 38.8096 0 0 0-11.30496-28.4672L466.944 173.3632H260.3008l-200.15104 200.13056a39.36256 39.36256 0 0 0-11.40736 26.13248l-0.12288 3.33824z" fill="" p-id="44731"></path><path d="M461.312 163.30752l15.52384 13.33248-196.73088 229.1712-15.54432-13.33248z" fill="" p-id="44732"></path><path d="M38.52288 388.93568h647.92576v20.48H38.52288z" fill="" p-id="44733"></path><path d="M274.5344 862.67904L46.3872 799.9488v-118.84544l228.1472 62.75072v118.82496z m0 0l403.59936-105.32864v-118.76352l-403.59936 105.28768v118.80448z" fill="#124296" p-id="44734"></path><path d="M262.16448 399.17568h20.48v612.864h-20.48zM978.5344 279.92064L774.59456 75.9808h-223.6416L474.7264 152.20736l-0.69632 0.69632h28.95872l56.44288-56.44288h206.68416l197.95968 197.95968c7.4752 7.4752 11.50976 17.48992 11.32544 28.42624v557.52704a44.58496 44.58496 0 0 1-44.52352 44.52352H696.70912v20.48h234.1888a65.08544 65.08544 0 0 0 65.00352-65.00352V323.01056a58.90048 58.90048 0 0 0-17.36704-43.08992z" fill="" p-id="44735"></path></svg>