<?xml version="1.0" standalone="no"?><!DOCTYPE svg PUBLIC "-//W3C//DTD SVG 1.1//EN" "http://www.w3.org/Graphics/SVG/1.1/DTD/svg11.dtd"><svg t="1626481952002" class="icon" viewBox="0 0 2000 2000" version="1.1" xmlns="http://www.w3.org/2000/svg" p-id="46706" xmlns:xlink="http://www.w3.org/1999/xlink" width="100px" height="100px"><defs><style type="text/css"></style></defs><path d="M1213.515521 555.396199a507.979746 507.979746 0 0 0-47.566743-191.769869 423.141117 423.141117 0 0 0-232.348132-226.862552 377.979012 377.979012 0 0 0-38.173626-56.959859 166.521171 166.521171 0 0 0-123.913994-71.988846h-7.514494a175.914288 175.914288 0 0 0-99.94276 42.607177 87.769282 87.769282 0 0 1-53.352903 24.572393 86.191238 86.191238 0 0 1-53.202612-24.797828 177.191752 177.191752 0 0 0-99.942761-42.607177h-7.514493a166.295736 166.295736 0 0 0-123.913994 71.988846 383.840317 383.840317 0 0 0-38.173626 56.959859A422.615102 422.615102 0 0 0 55.60725 363.551185a508.130036 508.130036 0 0 0-47.717032 191.920159 451.545902 451.545902 0 0 0 40.578264 208.226609 348.371909 348.371909 0 0 0 117.902399 139.619285 543.373009 543.373009 0 0 0 159.833273 75.144933 1018.288985 1018.288985 0 0 0 284.42357 38.173626 1018.21384 1018.21384 0 0 0 284.423571-38.173626 548.55801 548.55801 0 0 0 159.833272-75.144933 348.371909 348.371909 0 0 0 118.05269-139.84472 450.869597 450.869597 0 0 0 40.578264-208.076319z m-88.370441 186.434578c-91.526528 200.411536-390.227636 222.128422-514.442211 222.128422a967.79159 967.79159 0 0 1-269.394584-35.919278 364.678359 364.678359 0 0 1-245.047626-186.133999 400.522492 400.522492 0 0 1-35.844133-184.18023 451.996771 451.996771 0 0 1 42.682322-171.631027 441.62677 441.62677 0 0 1 93.630586-131.954502 281.568063 281.568063 0 0 1 116.174066-69.959933 26.075292 26.075292 0 0 0 16.75732-14.052102c14.653262-30.508843 65.000367-109.786747 120.231893-109.786747h3.982681a127.295516 127.295516 0 0 1 71.988846 32.162031 135.260879 135.260879 0 0 0 84.613195 35.167829 136.087473 136.087473 0 0 0 84.763484-35.167829 127.220371 127.220371 0 0 1 71.988845-32.162031 39.375945 39.375945 0 0 1 3.982682 0c55.306671 0 105.202906 79.277904 120.231892 109.786747a26.075292 26.075292 0 0 0 16.75732 14.052102 280.065165 280.065165 0 0 1 116.174067 69.959933 442.678799 442.678799 0 0 1 93.630586 131.954502 452.597931 452.597931 0 0 1 42.682322 171.631027 402.100536 402.100536 0 0 1-35.543553 184.105085z m0 0" fill="#333333" p-id="46707"></path><path d="M507.078007 214.989653a26.225582 26.225582 0 0 0-34.416379-14.052103 614.309826 614.309826 0 0 0-244.371322 204.544508 26.375871 26.375871 0 0 0 6.988479 36.520437 25.624422 25.624422 0 0 0 15.028986 4.508696 26.300726 26.300726 0 0 0 21.792031-11.497175 571.10149 571.10149 0 0 1 221.376972-185.683129 26.375871 26.375871 0 0 0 13.601233-34.341234z m241.741249-14.052103a26.300726 26.300726 0 1 0-20.364277 48.468482 569.147721 569.147721 0 0 1 221.376972 185.532839 26.300726 26.300726 0 0 0 21.792031 11.497175 26.676451 26.676451 0 0 0 15.028986-4.508696 26.375871 26.375871 0 0 0 6.988479-36.595582 615.512145 615.512145 0 0 0-244.822191-204.394218z m-173.735085 20.138842a26.300726 26.300726 0 0 0-34.942394 12.624349 897.981948 897.981948 0 0 0-71.613121 199.209217 26.300726 26.300726 0 0 0 24.948118 27.653335h1.352609a26.375871 26.375871 0 0 0 26.300726-24.948117 847.785132 847.785132 0 0 1 66.578411-179.671535 26.300726 26.300726 0 0 0-12.624349-34.867249z m106.254935 12.624349a26.300726 26.300726 0 1 0-47.566742 22.54348 845.15506 845.15506 0 0 1 66.57841 179.671534 26.375871 26.375871 0 0 0 26.300727 24.948118h1.352608a26.150437 26.150437 0 0 0 24.797828-27.653335 885.958758 885.958758 0 0 0-71.462831-199.509797z m0 0" fill="#3EBC5B" p-id="46708"></path></svg>