<?xml version="1.0" standalone="no"?><!DOCTYPE svg PUBLIC "-//W3C//DTD SVG 1.1//EN" "http://www.w3.org/Graphics/SVG/1.1/DTD/svg11.dtd"><svg t="1626481986396" class="icon" viewBox="0 0 2000 2000" version="1.1" xmlns="http://www.w3.org/2000/svg" p-id="48436" xmlns:xlink="http://www.w3.org/1999/xlink" width="100px" height="100px"><defs><style type="text/css"></style></defs><path d="M522.88 132.48c-4.48 0-8.96 0-13.44 0.64-43.52 1.92-78.08 12.8-106.24 33.28-24.96 17.92-40.32 40.32-45.44 67.84-4.48 21.12 5.12 40.32 24.32 49.28 12.16 5.76 23.68 14.72 35.84 24.32 46.08 35.2 88.32 76.16 127.36 115.2 39.04 38.4 72.32 73.6 103.04 109.44l10.88 12.8c23.68 26.88 46.08 52.48 62.72 81.28 8.32 14.08 24.32 22.4 42.88 22.4 3.84 0 7.04-0.64 8.32-0.64 1.28 0 1.92 0 3.2-0.64 17.28-2.56 30.08-11.52 39.04-18.56 24.96-19.84 41.6-48 50.56-85.12 14.72-60.16 7.04-120.96-22.4-186.88a333.44 333.44 0 0 0-37.76-64.64H812.16c8.96 0 17.28-2.56 24.32-7.68l19.2-14.72-8.96-22.4a41.088 41.088 0 0 0-8.96-14.08c7.68-17.28 2.56-30.08-1.28-35.84a38.08 38.08 0 0 0-29.44-17.92c-4.48-1.28-10.24-1.28-16.64-1.28-5.76 0-10.24 0.64-14.08 1.28h-1.28c-19.2 3.84-36.48 13.44-51.84 28.16l-7.68-5.76c-48.64-35.2-97.28-56.32-148.48-64-0.64 0-1.28 0-1.28-0.64l-1.92-1.92h-1.92c-13.44-1.92-26.24-3.2-39.04-3.2z" fill="#D3BC4C" p-id="48437"></path><path d="M334.72 313.6c1.28 0 3.2 0 4.48 1.28 32 17.92 59.52 40.96 87.04 64.64 71.04 61.44 136.96 128 199.04 198.4 23.04 26.24 46.08 53.12 64 83.84 8.32 14.08 8.32 14.08-3.84 24.96-83.2 73.6-175.36 130.56-282.88 161.28-16 4.48-46.08 9.6-49.28 10.24-2.56 0-22.4 1.28-22.4 1.28h-27.52-10.24l-10.24-1.28s-55.04-15.36-77.44-33.92c-2.56-1.92-4.48-3.84-7.04-3.84-1.28 0-3.2 0.64-4.48 1.92-1.28 0.64-2.56 1.28-3.84 1.28a5.76 5.76 0 0 1-5.12-2.56 6.848 6.848 0 0 1-0.64-8.96c3.2-4.48 0.64-7.68-1.92-10.88-18.56-22.4-33.28-77.44-33.28-77.44s-1.28-6.4-1.28-10.24c-5.76-42.88 1.92-84.48 14.72-124.8 30.72-96.64 83.2-181.76 149.12-258.56l11.52-11.52s5.12-5.12 11.52-5.12m0-32c-16.64 0-29.44 10.24-32.64 13.44l-1.28 0.64-0.64 0.64-12.8 13.44C213.12 396.16 162.56 484.48 131.84 579.2c-16.64 51.2-21.76 95.36-16.64 138.24 0.64 4.48 1.92 12.16 1.92 12.16v1.28l0.64 1.28c2.56 8.96 14.72 52.48 33.28 80a39.68 39.68 0 0 0 39.04 43.52h4.48c28.8 18.56 71.68 30.72 80.64 33.28 2.56 0.64 9.6 1.92 16 2.56h41.6s20.48-1.28 23.04-1.28c5.76-0.64 37.76-6.4 55.04-11.52 104.96-30.72 201.6-85.76 295.04-168.32 23.68-21.12 26.24-37.76 10.24-65.28-19.2-32.64-42.88-60.8-67.2-88.96-62.08-70.4-130.56-138.24-202.24-200.96-28.8-25.6-58.24-49.92-92.8-68.48a41.024 41.024 0 0 0-19.2-5.12z" fill="#182F18" p-id="48438"></path><path d="M522.88 164.48c11.52 0 23.04 0.64 34.56 2.56 1.28 0.64 2.56 0.64 4.48 1.28 50.56 7.04 95.36 28.8 136.32 58.88 8.32 6.4 16.64 12.8 24.32 19.84 1.92 1.92 3.2 2.56 5.12 2.56 1.28 0 3.2-1.28 4.48-3.2 3.84-5.12 8.32-10.24 12.8-14.72 10.88-10.88 23.04-18.56 38.4-21.76h1.28c1.92-0.64 4.48-0.64 7.68-0.64 5.12 0 10.24 0.64 10.88 0.64 6.4 0.64 10.24 2.56 6.4 10.24-2.56 6.4-3.2 12.8-3.2 19.84-1.28 1.92 1.92 7.04 1.92 7.68 2.56 3.84 7.68 5.76 9.6 10.24-1.92 1.28-3.2 1.28-5.12 1.28h-4.48c-5.12 0-10.88 0.64-16 0.64-3.2 0-6.4 0-9.6-1.28-1.28 0-2.56-0.64-4.48-0.64-10.24 0-17.28 7.04-24.96 12.16-5.12 3.2 0 5.76 1.92 7.68 24.32 27.52 45.44 56.96 60.8 90.88 23.68 53.12 34.56 108.8 20.48 166.4-6.4 26.24-17.92 49.92-39.68 67.2-7.68 5.76-15.36 10.88-25.6 12.16h-1.92-3.84c-4.48 0-11.52-1.28-15.36-7.04-21.76-35.84-49.92-67.2-77.44-98.56-33.28-36.48-68.48-73.6-104.32-108.8-41.6-40.96-83.84-81.92-130.56-117.76-13.44-10.24-26.88-20.48-42.24-27.52-6.4-3.2-8.32-7.68-7.04-14.72 3.84-20.48 16-35.84 32.64-48 26.88-18.56 57.6-25.6 89.6-26.88 3.84-0.64 7.68-0.64 12.16-0.64m0-32c-4.48 0-8.96 0-13.44 0.64-43.52 1.92-78.08 12.8-106.24 33.28-24.96 17.92-40.32 40.32-45.44 67.84-4.48 21.12 5.12 40.32 24.32 49.28 12.16 5.76 23.68 14.72 35.84 24.32 46.08 35.2 88.32 76.16 127.36 115.2 39.04 38.4 72.32 73.6 103.04 109.44l10.88 12.8c23.68 26.88 46.08 52.48 62.72 81.28 8.32 14.08 24.32 22.4 42.88 22.4 3.84 0 7.04-0.64 8.32-0.64 1.28 0 1.92 0 3.2-0.64 17.28-2.56 30.08-11.52 39.04-18.56 24.96-19.84 41.6-48 50.56-85.12 14.72-60.16 7.04-120.96-22.4-186.88a333.44 333.44 0 0 0-37.76-64.64H812.16c8.96 0 17.28-2.56 24.32-7.68l19.2-14.72-8.96-22.4a41.088 41.088 0 0 0-8.96-14.08c7.68-17.28 2.56-30.08-1.28-35.84a38.08 38.08 0 0 0-29.44-17.92c-4.48-1.28-10.24-1.28-16.64-1.28-5.76 0-10.24 0.64-14.08 1.28h-1.28c-19.2 3.84-36.48 13.44-51.84 28.16l-7.68-5.76c-48.64-35.2-97.28-56.32-148.48-64-0.64 0-1.28 0-1.28-0.64l-1.92-1.92h-1.92c-13.44-1.92-26.24-3.2-39.04-3.2z" fill="#182F18" p-id="48439"></path></svg>