<?xml version="1.0" standalone="no"?><!DOCTYPE svg PUBLIC "-//W3C//DTD SVG 1.1//EN" "http://www.w3.org/Graphics/SVG/1.1/DTD/svg11.dtd"><svg t="1626483846572" class="icon" viewBox="0 0 2000 2000" version="1.1" xmlns="http://www.w3.org/2000/svg" p-id="2712" xmlns:xlink="http://www.w3.org/1999/xlink" width="100px" height="100px"><defs><style type="text/css"></style></defs><path d="M880.04166 614.154366a325.766403 325.766403 0 0 1-49.627929 76.261817q21.069121 166.173064 42.126575 332.322796l52.929458 1.073289c4.666472-161.203272 4.258156-290.814529 2.858214-382.522368 0 0-2.123245-139.469179-13.49777-139.83083-6.264739-0.209991-6.264739 51.319525-34.788548 112.695296z" fill="#A1C1E2" p-id="2713"></path><path d="M356.953493 705.978867q-55.297692 55.997663-110.105405 112.415308Q151.640396 916.471748 57.832644 1016.054258c108.367144 7.66468 200.156646 8.632973 269.768741 7.606349C497.239304 1021.140713 544.312339 1006.616319 582.810733 974.744316c41.566598-34.426896 28.733801-52.357815 84.836459-126.82304 80.286649-106.570552 120.418307-88.231317 181.070775-173.324433 39.046704-54.831045 55.67101-121.328269 88.907956-254.416047 21.780758-87.169695 33.07362-131.921161 26.832214-185.958905-10.324569-89.04795-52.812796-154.495218-80.846626-190.357055-4.666472 175.762664-41.508268 407.359664-181.584088 601.239905-50.164573 69.4721-120.756626 164.376473-211.671165 155.988489-66.485558-6.136411-112.870289-64.735631-133.402765-95.114363z" fill="#F2E633" p-id="2714"></path><path d="M701.957426 125.78475q-19.750842 60.582471-39.991664 120.978284c-22.84238 68.235485-32.058662 103.117363-48.087993 141.534092-12.237823 29.31711-33.061953 78.536722-71.070367 136.225981-43.339858 65.785588-64.992287 98.625884-97.762586 116.77846-13.766092 7.629682-43.036537 21.31411-73.496932 51.891167-23.414023 23.48402-24.498977 33.761924-24.498978 38.055078-0.163327 37.331775 73.496932 62.682384 77.813419 64.163989 54.53939 18.187574 105.205609 3.744844 132.621131-7.069705a328.204635 328.204635 0 0 0 64.233986-41.858253c36.515143-30.425397 58.330899-62.122407 81.966579-100.189152 44.15649-71.163696 72.773629-117.361768 101.495764-189.598753 12.167825-30.553725 29.725426-97.097614 64.840627-230.185392 0 0 4.036498-15.294362 11.794507-57.082618C896.199319 92.16282 895.46435 61.270776 879.866667 37.518434a75.130198 75.130198 0 0 0-9.169617-11.409524c-5.98475-5.553102-31.032038-27.555517-64.163989-23.962333-24.592307 2.659889-40.458311 18.234239-53.221111 30.437063-32.303652 30.880378-45.568098 68.912124-51.354524 93.20111z" fill="#754390" p-id="2715"></path></svg>