<?xml version="1.0" standalone="no"?><!DOCTYPE svg PUBLIC "-//W3C//DTD SVG 1.1//EN" "http://www.w3.org/Graphics/SVG/1.1/DTD/svg11.dtd"><svg t="1626483947666" class="icon" viewBox="0 0 2000 2000" version="1.1" xmlns="http://www.w3.org/2000/svg" p-id="4812" xmlns:xlink="http://www.w3.org/1999/xlink" width="100px" height="100px"><defs><style type="text/css"></style></defs><path d="M272.018286 298.76419h133.607619l96.353524 201.996191-211.772953-181.979429h-1.828571l-16.335238-20.016762z m475.769904 0l-7.801904 14.384762a21.869714 21.869714 0 0 1-3.218286 4.486096l-2.023619 1.926095-211.163429 179.565714 91.672381-200.362667h132.534857z m-315.050666 0h158.329905l-77.775239 189.805715-80.554666-189.805715z m129.243428 19.480381h-99.791238l50.761143 119.637334 49.030095-119.637334z m144.188953 0h-78.409143L577.828571 427.373714l128.341334-109.129143z m-312.880762 0h-73.825524l125.074286 107.446858-51.248762-107.446858z m242.688-36.083809l50.614857-77.580191 51.44381 60.391619c0.633905 0.75581 0.828952 1.024 1.121523 1.462858l9.703619 15.725714h-112.883809z m-216.673524 0l93.817905-73.801143 90.89219 73.801143h-184.710095z m-133.193143-17.212952L337.432381 204.55619l50.541714 77.604572H271.60381l14.531047-17.212952z m402.553905-27.867429l-16.700952 25.575619h38.473142l-21.77219-25.575619z m-175.737905-3.754667l-37.302857 29.330286h73.435429L512.926476 233.325714z m-177.566476 3.779048l-21.723429 25.551238h38.375619l-16.65219-25.551238zM648.557714 185.295238c2.584381 0 5.266286 0.292571 7.899429 0.853333l3.900952 0.999619 12.873143 4.022858-49.639619 69.315047L525.409524 185.295238h123.123809z m-267.727238 0h121.514667l-99.401143 75.166476-48.128-67.974095 11.702857-4.486095c3.364571-1.29219 7.070476-2.169905 10.703238-2.535619l3.608381-0.170667z m63.366095 19.504762h-56.807619l19.821715 27.964952L444.196571 204.8z m195.267048 0H582.948571l36.498286 27.940571 20.016762-27.940571z" fill="#651363" p-id="4813"></path><path d="M438.467048 467.675429l1.121523 1.950476 45.153524 47.177143a211.309714 211.309714 0 0 1 63.658667 1.389714l35.718095-44.885333c2.681905-6.656 8.825905-9.069714 13.702095-5.36381 4.33981 3.267048 6.217143 10.24 4.681143 16.432762l-0.731428 2.267429-21.577143 39.789714C654.214095 552.131048 707.047619 618.447238 707.047619 696.368762 707.047619 796.672 619.568762 877.714286 512 877.714286s-195.047619-81.042286-195.047619-181.345524c0-80.11581 55.832381-147.968 133.144381-172.007619l-27.550476-39.984762c-2.974476-6.41219-1.584762-14.921143 3.120762-19.017143 4.193524-3.608381 9.557333-2.486857 12.8 2.316191zM512 547.05981c-89.892571 0-162.54781 66.974476-162.54781 149.333333 0 82.334476 72.655238 149.333333 162.54781 149.333333s162.54781-66.998857 162.54781-149.357714c0-82.334476-72.655238-149.333333-162.54781-149.333333z" fill="#651363" fill-opacity=".85" p-id="4814"></path></svg>