<?xml version="1.0" encoding="utf-8"?>
<!-- Generator: Adobe Illustrator 16.0.0, SVG Export Plug-In . SVG Version: 6.00 Build 0)  -->
<!DOCTYPE svg PUBLIC "-//W3C//DTD SVG 1.1//EN" "http://www.w3.org/Graphics/SVG/1.1/DTD/svg11.dtd">
<!-- <svg version="1.1" id="图层_1" xmlns="http://www.w3.org/2000/svg" xmlns:xlink="http://www.w3.org/1999/xlink" x="0px" y="0px"
	 width="100px" height="100px" viewBox="0 0 100 100" enable-background="new 0 0 100 100" xml:space="preserve">
<path fill="#39c" d="M67.255,30.602L64.57,47.936l-12.27-14.423l0.383-2.911l8.436-6.291C67.638,16.642,50,16.259,50,16.259
	s-17.638,0.383-11.119,8.052l8.436,6.291l0.383,2.911L35.43,47.936l-2.685-17.334l-11.503,5.595v47.546H50h28.758V36.196
	L67.255,30.602z M44.632,81.059l-8.253-28.415l7.87-8.395l2.3,4.602L44.632,81.059z M55.368,81.059l-1.917-32.208l2.3-4.602
	l7.895,8.42L55.368,81.059z"/>
</svg> -->
<svg t="1626446386104" class="icon" viewBox="0 0 2000 2000" version="1.1" xmlns="http://www.w3.org/2000/svg" p-id="1189" width="100px" height="100px"><path d="M332.967553 159.227611c-10.394271 79.201249 10.048986 329.449574 60.293915 479.208039 60.282009 33.278336 194.931277 39.934003 211.004892 0 20.097972-49.923457 104.740437-374.920045 100.489859-479.208039-7.941556-194.109736-341.641709-229.614566-371.788666 0z" fill="#628E43" p-id="1190"></path><path d="M352.446393 94.230675c47.696964 27.70615 228.48346 78.463054 300.433722 51.483193 23.848482-8.929786 37.44557-18.740644 44.470335-28.646754-8.286841-25.646346-22.955503-47.435024-41.791399-65.008842l-2.345557 1.190638c-21.145733-1.178732-41.946182-1.178732-62.758537 19.645529-93.64369-20.824261-135.256493-0.011906-166.475025 10.394271-10.406177-10.406177-22.503061-20.59804-43.934547-28.384813A166.141646 166.141646 0 0 0 352.446393 94.230675z" fill="#5A853C" opacity=".5" p-id="1191"></path><path d="M371.960952 863.621042c-24.979588-24.955775 17.335691-176.869296 41.612803-249.700631 27.741869-17.335691 101.966251-54.102597 176.881202-62.425158 93.64369-10.406177 83.225606 187.28738 83.225607 353.750499 0 166.475025-270.512986-10.394271-301.719612-41.612803z" fill="#E6DECB" p-id="1192"></path><path d="M548.830248 145.713868c-41.612803 49.94727 104.061774 489.018898 83.237513 686.700548l62.425157-83.225606c34.683289-204.634978 100.287451-515.748724 31.218532-624.287297-72.831335-114.444138-124.850316-41.612803-176.881202 20.812355z" fill="#6D9C4C" p-id="1193"></path><path d="M634.079939 795.909451l36.71928-48.95904c3.810042-22.40781 19.383589-35.647706 23.693699-60.198665 35.147638-199.681923 82.320721-454.788051 20.812355-551.444056-21.407674-33.635528-54.305006-63.73486-72.652739-70.033335 25.003401-3.774323 52.149951 11.072935 83.058916 59.627158 61.508366 96.656004 16.216492 353.97672-18.931146 553.646736-4.322016 24.562865-8.48925 48.232751-12.287386 70.628655l-62.425157 83.237512c1.202545-11.406313 1.845489-23.610354 2.012178-36.504965z" fill="#659344" opacity=".8" p-id="1194"></path><path d="M725.71145 957.276638c-18.216764 72.831335-93.64369 62.425158-156.068847 62.425158-10.406177-104.049867 72.831335-145.66267 72.831335-312.137695 0-48.99476-10.406177-114.456045-10.406177-156.068848 10.406177 31.218532 10.406177 52.030887 20.812354 72.831335-10.406177-41.612803 0-114.456045-20.812354-156.068847 20.812355 10.406177 20.812355 72.831335 31.218532 93.64369-10.406177-52.030887-10.406177-124.862222-20.812355-156.068848 20.812355 20.800448 20.812355 62.425158 31.218532 72.831335 0-31.218532 31.206626-83.237513 41.612803-197.693557 10.406177 93.64369-20.812355 312.137695-20.812355 405.781385 0 93.64369 49.423389 197.693557 31.218532 270.512986z" fill="#F9F4E6" p-id="1195"></path><path d="M601.134982 1020.130426c46.863517-0.916791 98.632464-9.798952 111.896172-62.865694 10.251394-41.005578 3.607634-92.274456-8.132058-145.650764-9.096475-41.410395-20.955231-83.951895-20.955232-124.862222 0-37.302693 5.250714-94.929579 10.549054-156.068848 3.845761-44.25602 7.953463-92.774524 10.406178-135.256493 8.096339-29.551639 5.893659-64.794528 10.406177-114.456044 6.262757 56.340997-2.547966 157.878618-10.549054 250.224512-5.29834 61.139269-10.251394 118.25418-10.251394 155.556873 0 40.910327 9.429854 83.797112 18.526329 125.207507 11.739692 53.376308 22.931691 104.299901 12.680296 145.317385-15.216355 60.865422-70.41434 63.591983-124.576468 62.853788z" fill="#F1EAD5" p-id="1196"></path><path d="M475.15356 145.713868C516.754456 195.673044 371.103692 634.732766 391.916047 832.426323l-62.425158-83.225606C294.8076 544.541926 229.203439 233.42818 298.272357 124.889607 371.103692 10.457375 423.122673 83.28871 475.15356 145.713868z" fill="#6D9C4C" p-id="1197"></path><path d="M330.336242 166.526223c20.812355-41.624709 72.831335-72.831335 104.049868-93.64369l-41.62471 645.087745c-13.870934-45.089466-39.529186-118.611372-72.831335-218.494005-41.612803-124.862222-20.800448-291.337247 10.406177-332.95005zM694.504825 156.120045c-19.300244-32.171043-93.64369-83.237513-114.456045-72.831335l41.612803 624.275391c13.882841-45.089466 49.94727-108.205194 83.249419-208.087828 41.612803-124.862222 20.800448-291.337247-10.406177-343.356228z" fill="#5A853C" opacity=".5" p-id="1198"></path><path d="M384.415027 65.833955c-20.050346 4.345829-51.137908 32.14723-74.891139 69.473735-61.49646 96.656004-15.180636 343.558636 19.955095 543.252466 4.322016 24.539052 17.026125 48.220845 20.812355 70.616748l39.731595 52.983397c0.26194 10.596679 0.881072 20.717104 1.893114 30.254115L329.467077 749.200717c-3.786229-22.40781-7.953463-46.077696-12.27548-70.628655-35.147638-199.693829-80.439513-457.002638-18.931146-553.646736C330.4434 74.347018 358.566273 60.3213 384.415027 65.822048z" fill="#659344" opacity=".8" p-id="1199"></path><path d="M298.272357 957.276638c18.216764 72.831335 93.64369 62.425158 156.068848 62.425158 10.406177-104.049867-83.237513-145.66267-83.237513-312.137695 0-48.99476 10.406177-114.456045 10.406178-156.068848-10.406177 31.218532-10.406177 52.030887-20.812355 72.831335 10.406177-41.612803 0-114.456045 20.812355-156.068847-20.812355 10.406177-20.812355 72.831335-31.218532 93.64369 10.406177-52.030887 10.406177-124.862222 20.812354-156.068848-20.812355 20.800448-20.812355 62.425158-31.218532 72.831335 0-31.218532-31.206626-83.237513-41.612803-197.693557-10.406177 93.64369 20.812355 312.137695 20.812355 405.781385 0 93.64369-39.017212 197.681651-20.812355 270.512986z" fill="#F9F4E6" p-id="1200"></path><path d="M422.848826 1020.130426c-54.174035 0.738196-109.360113-1.988366-124.576469-62.865694-10.608586-42.422437-1.785957-95.441554 7.417676-150.83004 6.596135-39.683969 13.394679-80.594296 13.394679-119.682946 0-37.302693-4.953055-94.417605-10.263301-155.556873-8.001088-92.345894-16.811811-193.883515-10.549054-250.224512 4.524425 49.661517 3.155191 105.704854 11.263437 135.256493 2.452715 42.505782 6.560416 70.200025 10.394271 114.456044 5.310246 61.139269 10.406177 118.766155 10.406177 156.068848 0 39.08865-4.655395 85.166346-11.25153 124.862222-9.215539 55.37658-20.871887 103.228327-10.263301 145.66267 13.275615 53.054836 67.163898 61.936996 114.027415 62.853788z" fill="#F1EAD5" p-id="1201"></path><path d="M517.623622 72.882533c-176.881202 0-230.55517 153.88998-201.884603 364.156676 23.991359 175.940598 97.834736 312.137695 87.428559 384.96903h0.166689c21.55055 0 199.920051 0 218.327316 10.406177-20.800448-62.425158 58.234112-166.475025 89.452644-395.375207 25.955912-190.394945-16.609402-364.156676-193.490605-364.156676z" fill="#7AA959" p-id="1202"></path><path d="M406.048922 101.053031c29.694515-18.252483 66.66383-28.170498 111.562794-28.170498 176.893109 0 219.458422 173.761731 193.502511 364.156676-15.978364 117.1707-44.482241 201.622663-65.723226 264.524076-20.240848 59.996256-33.885562 100.370795-23.717511 130.851131-3.238536-1.821676-11.41822-3.333787-22.812627-4.57205-2.678936-28.539596 9.703701-65.223157 26.789358-115.872904 21.240984-62.901413 49.756768-147.353377 65.723225-264.524076 25.967818-190.406852-16.609402-364.156676-193.478698-364.156676-35.457204 0-65.961353 6.191318-91.845826 17.764321z" fill="#3F6227" opacity=".1" p-id="1203"></path><path d="M573.083547 1019.713703c26.836984-1.976459 50.9355-9.072663 69.390391-31.230439 25.241529-30.277928 6.024629-93.21506-16.228398-164.534285-8.215403 27.384677-18.431078 50.3759-27.96809 71.843106-17.954823 40.398352-33.492651 75.355488-28.634847 123.909711h3.45285z" fill="#999179" opacity=".2" p-id="1204"></path><path d="M445.863861 1019.749422c-15.121104-2.464621-32.14723-8.286841-53.102461-20.85998-40.838888-24.503333-27.087018-95.393928-1.905021-170.677978 9.108382 25.824941 20.16941 47.74459 30.527962 68.283097 20.217036 40.100693 37.778948 74.938765 32.956864 123.207235-2.809906 0-5.631718 0.023813-8.477344 0.047626z" fill="#999179" opacity=".2" p-id="1205"></path><path d="M618.673081 799.612336c-15.656892-50.911687-30.527962-104.573748-30.527962-152.723155 0-9.132195-0.214315-18.002449-0.428629-26.789358-1.273983-52.149951-2.464621-101.168523 42.053339-181.29847-34.980949 26.229758-46.280105 51.221253-55.174172 70.878689-1.690706 3.738604-3.286161 7.274799-4.953054 10.596679 5.334059-31.956728 2.476527-77.546262-0.178596-120.016325-2.536059-40.50551-4.893523-78.165394 0.178596-98.465774-20.812355 20.800448-31.206626 156.056941-31.206626 187.275473 0-44.482241-4.703021-91.298133-9.632263-140.471488-5.441216-54.352631-11.191999-111.5747-11.191998-171.666207-2.476527 22.419716-5.572187 46.030071-8.691659 69.830927-9.882297 75.629335-20.014627 153.19941-12.108789 200.682059a473.278662 473.278662 0 0 1-6.179412-20.919512c-9.334603-33.361681-22.574499-80.665734-56.245746-114.336981 8.739284 26.205946 15.311607 56.079057 21.68152 85.011563 8.798816 39.969722 17.192815 78.129675 30.33746 102.275817-4.000544 0-7.989182-9.227446-13.180364-21.169546-8.286841-19.133555-19.621717-45.256156-38.838616-51.673696 41.612803 93.64369 36.766906 146.686619 20.812354 218.505912-5.905565 26.539324-19.705061 62.710911-34.683289 101.990063-5.631718 14.787726-11.442033 30.027894-17.061844 45.351407 1.000136 10.763369 0.98823 20.621853-0.285753 29.527826h0.166689c21.55055 0 199.920051 0 218.339223 10.406177-3.274255-9.798952-4.083889-20.633759-3.000409-32.80208z" fill="#3F6227" opacity=".2" p-id="1206"></path><path d="M642.485844 978.077087c-30.694651 40.922233-62.437064 41.624709-114.456044 41.624709-34.683289 0-72.831335 10.406177-124.862222-20.812354-89.214516-53.531091 52.030887-291.325341 62.425157-364.156676 10.406177-72.831335 10.406177-135.256493-31.206625-208.087828 31.206626 10.394271 41.612803 72.831335 52.030887 72.831335-20.812355-41.624709-20.824261-124.862222-52.030887-187.28738 41.612803 41.612803 52.030887 104.049867 62.425158 135.256493 0-52.030887 10.406177-176.869296 20.812354-270.512986 0 114.444138 10.406177 228.900183 20.812355 312.137695 0-31.218532 10.394271-166.475025 31.206626-187.287379-10.406177 41.624709 0 206.659062 0 218.494005 10.406177-20.800448 20.812355-52.01898 62.425158-83.225606-62.425158 93.631784-52.01898 144.793505-52.018981 208.087828 0 93.631784 93.64369 291.325341 62.425158 332.938144z" fill="#FBF7EC" p-id="1207"></path><path d="M505.407675 1009.295619c52.030887 0 85.571163-0.702477 116.265815-41.612803 17.347598-23.134099 1.452579-91.583886-20.812355-166.475025-17.811947-59.865286-20.812355-72.831335-33.3974-129.208051 0-7.989182 0.166689-49.482921 0-57.198257-0.714383-33.718872-1.80977-43.636888 0-59.68669 1.797864-16.061709 2.178868-36.600217 2.178868-34.838072 1.404953-2.809906 2.809906-5.810314 4.286297-8.965505 9.501292-20.276568 22.145869-47.268334 58.138861-74.272007-54.531227 81.820653-53.483465 131.208323-52.35236 184.584631 0.166689 7.715335 0.333379 15.514015 0.333379 23.515103 0 41.58899 18.478704 103.728395 36.278744 163.593681 22.27684 74.891139 43.494011 146.210364 26.146414 169.344463-30.682745 40.922233-62.425158 41.624709-114.444138 41.624709-6.727106 0-13.585181 0.392911-20.657572 0.797728-28.027622 1.595455-59.305686 3.381412-98.584838-18.371547 29.027758 10.644305 53.542997 9.239352 75.97462 7.965369 7.060484-0.404817 13.930466-0.797728 20.645665-0.797727zM460.699213 487.355576c1.047762 1.107293 3.738604-1.012042 25.717784 12.120697-12.215947-7.298612-20.812355-52.030887-38.576676-64.318273-4.012451-3.857668-8.465437-6.858076-13.454211-8.513062 11.965913 20.931419 20.478976 41.005578 26.313103 60.710638zM457.758336 382.007914c7.846305 13.418492 7.846305 13.418492 18.240577 23.812762 10.406177 10.418084 18.823989 35.671519 20.812355 41.62471 0-14.04953-10.406177-41.612803-20.538508-66.485234-9.04885-23.872295-21.84821-48.732819-41.88665-68.771259 10.822901 21.633895 17.883385 45.76813 23.372226 69.807114zM502.157233 342.883544c3.810042 50.042521 31.349502 105.097629 36.278744 144.472032 0-17.597632-10.406177-71.116816-12.692203-121.599873-4.786365-59.150903-8.120152-123.993056-8.120152-188.835209a4927.491672 4927.491672 0 0 0-15.478296 165.96305zM543.281874 417.0603c0.845353 29.182541 2.143149 56.49578 2.952783 73.962442 0.476255 10.00136-0.059532 29.253979 21.229078 29.253979 1.404953-2.809906-1.488298-15.287794 0-18.454891 2.178868-12.751735 2.178868-14.466253 0-31.099468-2.357464-55.459925-4.881616-140.673897 2.178868-168.939646-12.608858 12.620764-21.395767 67.235336-26.360729 115.277584z" fill="#F1EAD5" p-id="1208"></path><path d="M493.977549 122.746458a7.870118 7.870118 0 0 1-5.405497 9.727514c-11.596816 3.32188-30.242209 10.358552-47.911279 20.574227-17.859572 10.334739-33.575996 23.253163-40.850795 37.802761a7.870118 7.870118 0 0 1-14.085249-7.036672c9.370322-18.740644 28.337188-33.575996 47.065926-44.398896 18.91924-10.941965 38.779084-18.454891 51.447474-22.074431 4.191046-1.190638 8.548782 1.226357 9.73942 5.405497z m-106.038233 90.964754a7.882025 7.882025 0 0 0-11.144373-11.132467l5.476935 5.476936-5.476935-5.476936h-0.011907l-0.023812 0.023813-0.03572 0.047626-0.13097 0.142876a57.519729 57.519729 0 0 0-5.977003 7.501021c-2.869438 4.286297-6.536603 11.084841-6.536604 18.657299a7.870118 7.870118 0 0 0 15.752143 0c0-2.833719 1.54783-6.429446 3.88148-9.941828a41.839024 41.839024 0 0 1 3.952919-5.024493l0.238128-0.238128 0.035719-0.047625z" fill="#FFFFFF" opacity=".5" p-id="1209"></path></svg>