<?xml version="1.0" encoding="utf-8"?>
<!-- Generator: Adobe Illustrator 16.0.0, SVG Export Plug-In . SVG Version: 6.00 Build 0)  -->
<!DOCTYPE svg PUBLIC "-//W3C//DTD SVG 1.1//EN" "http://www.w3.org/Graphics/SVG/1.1/DTD/svg11.dtd">
<!-- <svg version="1.1" id="图层_1" xmlns="http://www.w3.org/2000/svg" xmlns:xlink="http://www.w3.org/1999/xlink" x="0px" y="0px"
	 width="100px" height="100px" viewBox="0 0 100 100" enable-background="new 0 0 100 100" xml:space="preserve">
<path fill="#9c3" d="M75.83,81.813l8.24-0.704c0,0-3.47-37.665-8.24-58.115l-13.879-5.418l-3.903-3.423l-7.381,23.665
	l-7.381-23.665l-3.903,3.423l-13.879,5.418c-4.771,20.45-8.24,58.115-8.24,58.115l8.24,0.704c0.434-12.33,6.072-34.687,6.072-34.687
	c3.036,4.067,3.47,10.024,3.47,10.024c-3.903,10.922-5.205,27.225-5.205,27.225l9.976,1.724c8.675,0.409,10.851-7.633,10.851-7.633
	s2.176,8.042,10.851,7.633l9.976-1.724c0,0-1.302-16.303-5.205-27.225c0,0,0.434-5.957,3.47-10.024
	C69.758,47.127,75.396,69.483,75.83,81.813z"/>
</svg> -->
<svg t="1626447262974" class="icon" viewBox="0 0 2000 2000" version="1.1" xmlns="http://www.w3.org/2000/svg" p-id="1700" width="100px" height="100px"><path d="M478.800314 219.989333c58.679216-91.748392 146.241255-67.84502 182.683608-44.423529 21.955765 3.162353 65.134431 40.458039 77.803921 87.742745 15.841882 59.120941 1.827137 108.122353-40.237176 255.146667-42.054275 147.024314-111.415216 322.590118-230.972236 387.694431-114.517333 62.363608-189.460078 19.094588-235.981804-36.321882-46.521725-55.406431-66.058039-145.197176-27.316705-237.025883 38.751373-91.838745 153.489569-204.03702 172.032-236.15247 18.542431-32.12549 28.641882-61.982118 101.998431-176.660079z" fill="#3C1B65" p-id="1701"></path><path d="M685.798902 187.13098c13.673412 15.159216 25.921255 34.775843 31.744 56.490667 15.841882 59.110902 1.817098 108.122353-40.237177 255.136628-42.064314 147.024314-111.425255 322.590118-230.972235 387.694431-90.403137 49.232314-156.139922 32.627451-202.701804-3.794824 47.043765 48.750431 118.964706 80.946196 224.446745 23.491765 119.55702-65.104314 188.917961-240.670118 230.982275-387.694431 42.054275-147.024314 56.06902-196.025725 40.237176-255.136628-8.83451-32.988863-32.527059-61.118745-53.509019-76.187608z" fill="#1E0C36" p-id="1702"></path><path d="M585.396706 282.613961c19.777255-34.253804 61.239216-44.242824 87.391372-64.833255 3.473569 80.524549 47.48549 78.476549 66.419451 132.22651 18.773333-81.950118-21.102431-148.881569-47.86698-164.341961l28.641882-61.972079-22.849255-34.605176c-9.276235 16.062745-30.07749 39.735216-50.888784 63.407686-106.455843-25.770667-166.610824 53.689725-176.710274 83.556392 27.808627-48.188235 55.54698-9.677804 89.549804-68.567843-10.942745 43.670588 16.434196 95.151686 26.312784 115.129726z" fill="#1E0C36" p-id="1703"></path><path d="M586.691765 268.006902c19.777255-34.263843 66.118275-40.347608 92.28047-60.938039 3.473569 80.534588 47.957333 77.663373 66.891294 131.413333 18.763294-81.950118-21.584314-148.078431-48.348862-163.518745l28.651921-61.982118-22.849255-34.605176c-9.276235 16.062745-30.07749 39.735216-50.888784 63.407686-106.455843-25.770667-166.610824 53.709804-176.710274 83.556392 27.808627-48.178196 56.018824-10.480941 90.011607-69.37098-10.932706 43.65051 11.093333 92.059608 20.971922 112.037647z" fill="#5DAE11" p-id="1704"></path><path d="M564.103529 163.900235c0.431686-2.660392 0.963765-5.300706 1.626353-7.93098-17.849725 30.920784-34.103216 35.217569-49.543529 39.29349-13.964549 3.684392-27.26651 7.198118-40.478118 30.07749 2.218667-6.545569 6.836706-15.480471 13.83404-25.168313 10.139608-6.27451 20.620549-10.440784 30.699921-14.436393 19.064471-7.579608 36.723451-14.58698 48.107922-34.304a96.175686 96.175686 0 0 0-4.246589 12.468706zM584.553412 263.589647c0.752941 1.596235 1.475765 3.072 2.138353 4.417255 12.458667-21.584314 35.448471-31.974902 57.293804-41.863529 11.866353-5.37098 23.391373-10.581333 32.727843-17.357804 0.592314-4.718431 1.455686-9.607529 2.610196-14.687373-7.198118 5.672157-17.317647 10.741961-28.431059 16.323765-23.692549 11.896471-51.942902 26.071843-66.339137 53.167686zM745.180863 336.604863l0.682666 1.877333c18.763294-81.950118-21.584314-148.078431-48.348862-163.518745l28.651921-61.982118-22.849255-34.605176-0.351372 0.602353 10.059294 34.645333-28.641882 61.972079c39.835608 22.999843 67.021804 105.21098 60.79749 161.008941z" fill="#519413" p-id="1705"></path></svg>