<?xml version="1.0" encoding="utf-8"?>
<!-- Generator: Adobe Illustrator 16.0.0, SVG Export Plug-In . SVG Version: 6.00 Build 0)  -->
<!DOCTYPE svg PUBLIC "-//W3C//DTD SVG 1.1//EN" "http://www.w3.org/Graphics/SVG/1.1/DTD/svg11.dtd">
<!-- <svg version="1.1" id="图层_1" xmlns="http://www.w3.org/2000/svg" xmlns:xlink="http://www.w3.org/1999/xlink" x="0px" y="0px"
	 width="100px" height="100px" viewBox="0 0 100 100" enable-background="new 0 0 100 100" xml:space="preserve">
<g>
	<path fill="#93c" d="M15.015,82.181c1.705,0,8.521,0,8.521,0c1.705-2.841,5.067-28.405,5.067-28.405L25.241,26.79
		C12.743,49.799,15.015,82.181,15.015,82.181z"/>
	<rect x="14.854" y="85.306" fill="#123241" width="6.875" height="3.408"/>
	<polygon fill="#123241" points="35.183,72.523 35.183,78.204 50,78.204 64.818,78.204 64.818,72.523 50,72.523 	"/>
	<path fill="#123241" d="M61.855,21.622C54.916,28.561,50,27.404,50,27.404s-4.915,1.156-11.854-5.782l-9.542,2.927l4.916,43.914H50
		h16.48l4.916-43.914L61.855,21.622z"/>
	<path fill="#123241" d="M74.76,26.79l-3.363,26.985c0,0,3.363,25.564,5.068,28.405c0,0,6.816,0,8.521,0
		C84.986,82.181,87.258,49.799,74.76,26.79z"/>
	<rect x="78.271" y="85.306" fill="#123241" width="6.875" height="3.408"/>
</g>
</svg> -->
<svg t="1626446531730" class="icon" viewBox="0 0 2000 2000" version="1.1" xmlns="http://www.w3.org/2000/svg" p-id="1347" width="100px" height="100px"><path d="M22.314363 286.339834c47.627852-119.069629 202.418369-119.069629 273.860147-71.441777 39.674 178.604443 51.104685 656.287981-11.906963 666.789922-47.627852 7.930037-91.493103 7.406131-119.069629-11.906962-119.069629-83.34874-208.776687-418.744071-142.883555-583.441183z" fill="#C92930" p-id="1348"></path><path d="M81.849177 286.339834c33.053729-72.727729 142.883555-119.069629 214.325333-71.441777 39.697814 178.604443 51.128499 656.287981-11.906963 666.789922-47.627852 7.930037-64.17853 3.88167-83.348741-23.813925-107.162666-154.790518-178.604443-440.557627-119.069629-571.53422z" fill="#BE1E26" p-id="1349"></path><path d="M724.825174 202.991094c-59.534814-35.720889-178.604443-59.534814-261.953184 23.813926-31.767777 202.418369 21.432533 616.780678 107.162666 654.882959 142.883555 63.51174 154.790518-178.604443 214.325332-345.301924s-4.54846-300.412674-59.534814-333.394961z" fill="#DC353D" p-id="1350"></path><path d="M580.965248 886.045928c65.250157-38.745257 124.904041-139.359094 155.743075-361.566836C787.860636 156.434869 599.159087 163.078955 508.047007 193.108315a191.606847 191.606847 0 0 0-45.151203 33.696705c-31.767777 202.418369 21.432533 616.780678 107.162666 654.882959 3.738786 1.666975 7.382317 3.09581 10.954406 4.357949z" fill="#C7232A" p-id="1351"></path><path d="M308.081472 83.921465l-35.720888-71.441777c35.720889-11.906963 65.607366-20.789557 107.162666 0 47.627852 23.813926 71.441777 154.790518 83.34874 250.046221-51.604777 11.906963-149.789593 15.359982-119.069629 0 71.441777-35.720889 47.627852-190.511406 11.906963-202.41837-23.813926-7.930037-35.720889 0-47.627852 23.813926z" fill="#6EB983" p-id="1352"></path><path d="M641.476434 202.991094c-59.534814-35.720889-186.558295 7.930037-238.139258 35.720889-59.534814-35.720889-192.226009-59.534814-273.860147 11.906963-152.599637 133.524682 47.627852 678.696885 166.697481 654.882959 184.605553-36.911585 119.069629 35.720889 238.139258 0 166.697481-50.009244 285.76711-595.348145 107.162666-702.510811z" fill="#D53138" p-id="1353"></path><path d="M413.00563 396.217288l2.238509 9.192175c3.33395-10.025663 4.667529-23.671042 6.19162-39.483488 3.953112-40.45986 9.263617-95.017564 53.343194-139.120955 13.502496-13.502496 40.602743-23.5996 62.035277-31.577266 2.476648-0.952557 4.881855-1.833672 7.191805-2.690973-53.581333 7.858596-110.258476 29.767407-140.692673 46.175202-27.576526-16.550678-70.846429-30.553267-117.49791-33.696705 92.064637 44.841622 115.759493 143.597973 127.190178 191.20201z" fill="#C9242B" p-id="1354"></path><path d="M463.133943 913.812965l-3.810228-5.667714c-12.335614-18.527234-20.265651-26.457272-44.079576-38.364234s-54.914913 6.596457-84.968088 29.672151c71.656103-10.835336 94.779425-0.833487 114.140147 7.572828 6.143993 2.66716 11.906963 5.143808 18.717745 6.786969z" fill="#C9242B" p-id="1355"></path><path d="M919.742157 480.30426c-23.813926 23.71867-39.340605 53.605147-39.054839 87.158969-89.849942 40.626557-109.85364 134.024774-88.397292 206.085713 11.049662 37.12591 33.434752 70.132011 64.60718 88.206782 27.457456 15.95533 60.654069 19.575047 96.351144 5.596272 3.524461 44.055763 19.860814 77.109492 43.912879 100.066116 27.05262 25.838109 62.749694 37.7927 97.708538 39.36442 34.911215 1.595533 70.084384-7.072736 96.87505-23.71867 20.408534-12.692822 36.744888-30.577081 43.365159-52.628776 55.581703 37.7927 123.594275 32.077358 171.698405-1.500278 52.628776-36.744888 81.086417-106.472062 46.722922-187.487038 34.077728-97.803793 2.714788-184.081646-50.414081-234.09089-49.771105-46.841992-121.760603-63.51174-174.365564-21.718301-48.318455-67.012387-135.501238-79.133675-208.324223-60.225418-38.769071 10.097105-74.870983 29.172059-100.685278 54.891099z" fill="#BF272E" p-id="1356"></path><path d="M1058.220135 560.199981c54.891099-21.95644 110.139407 17.098399 99.232629 70.251081 19.932256-47.937433 88.754501-54.605332 115.092703-10.716266 35.720889 59.534814 0 95.255703-23.813926 95.255703 35.720889 11.906963 65.916947 53.152682 23.813926 95.255703-23.813926 23.813926-59.534814 35.720889-83.34874-35.720889 0 35.720889-10.930592 83.34874-83.34874 83.348741-33.815775 0-88.945013-42.650741-54.391007-87.611433-38.45949 37.030655-112.306474 11.978405-112.306474-55.272122 0-47.627852 35.720889-71.441777 107.162666-47.627852-59.534814-23.813926-47.627852-83.34874 11.906963-107.162666z" fill="#A81C22" p-id="1357"></path><path d="M1212.7487 484.328814c4.929483 5.905854 9.501756 12.335614 13.645379 19.289279a104.066856 104.066856 0 0 1 20.908627-16.431608c0.476279 0.523906 0.952557 1.000185 1.428835 1.452649l-6.382132 11.335429c-22.956624 40.483674-66.107458 116.545353-53.152682 155.362052 22.432718 67.321968 214.015751 81.777021 255.999702 73.275449a260.524348 260.524348 0 0 1-4.477018 13.145287c2.976741 6.620271 5.524831 13.169101 7.620457 19.598861-57.391561-23.17095-196.107679-38.078467-223.422252-10.763894-29.434012 29.434012-17.9557 58.891838-2.047998 99.54221 8.144363 20.884813 17.431794 44.698739 22.980438 72.989682a149.52764 149.52764 0 0 1-19.455977-14.669378c0 7.549014-1.285952 14.74082-3.714972 21.503975a2008.752269 2008.752269 0 0 1-0.595348-8.501571c-4.00074-56.915283-8.85878-126.142365-92.421847-147.050992-62.29723-15.574307-126.451946 52.628776-156.790887 84.896645l-7.668084 8.096735a216.087563 216.087563 0 0 1-0.762046-18.479606c-7.525201 4.048367-14.883704 7.239433-22.099323 9.597012a6.810783 6.810783 0 0 0-3.191066-0.762046c9.239803-9.239803 21.908812-18.098584 35.387494-27.505084 38.45949-26.909736 83.205857-58.177421 71.775172-115.378471-12.383241-61.797137-92.469474-105.638575-174.341751-129.738268 6.54883-3.691158 13.550124-7.072736 21.027697-10.07329a95.065192 95.065192 0 0 1-0.238139-13.954961c63.749879 51.152313 177.604259 94.160263 213.087008 82.324742 34.458751-11.478312 102.161742-89.468919 106.900713-159.077025z" fill="#F06D43" p-id="1358"></path></svg>