<?xml version="1.0" standalone="no"?><!DOCTYPE svg PUBLIC "-//W3C//DTD SVG 1.1//EN" "http://www.w3.org/Graphics/SVG/1.1/DTD/svg11.dtd"><svg t="1626480934397" class="icon" viewBox="0 0 2000 2000" version="1.1" xmlns="http://www.w3.org/2000/svg" p-id="1765" xmlns:xlink="http://www.w3.org/1999/xlink" width="100px" height="100px"><defs><style type="text/css"></style></defs><path d="M207.36 753.28c-10.24 102.4-14.72 172.8-16 197.12 0 4.48 3.84 8.32 8.32 7.68 20.48-3.84 74.88-10.24 135.68 1.92 67.84 13.44 150.4 5.12 179.2 1.28 28.8 3.84 111.36 12.16 179.2-1.28 60.8-12.16 115.2-5.12 135.68-1.92 4.48 0.64 8.96-3.2 8.32-7.68-1.92-33.28-16-196.48-16-196.48 16.64 66.56 39.04 88.96 39.04 88.96-5.12 9.6-5.76 57.6-5.76 69.76 0 1.92 1.28 3.2 2.56 3.84 20.48 5.12 31.36 4.48 41.6-0.64 10.88-5.12 10.88-36.48 35.84-28.8 16 5.12 32.64-1.92 42.24-15.36 7.68-11.52 17.28-14.72 23.04-16 2.56-0.64 3.84-3.2 2.56-5.12-14.08-26.24-53.76-51.2-53.76-51.2-5.76-111.36-142.08-597.76-167.04-629.12-21.12-26.24-92.16-48-99.84-49.92 0-1.28-2.56-8.32-5.12-9.6-24.32-14.72-55.68-41.6-72.32-49.92-2.56-1.28-5.76-1.92-8.96-1.28 0 0-44.16 4.48-81.28 4.48h-1.92c-37.76 0-81.28-4.48-81.28-4.48-3.2-0.64-6.4 0-8.96 1.28-16.64 7.68-47.36 34.56-72.32 49.92-2.56 1.28-3.84 3.84-4.48 7.04 0 0.64 0 1.92-0.64 3.2-7.68 1.92-78.72 23.68-99.84 49.92-24.96 31.36-161.28 517.76-167.04 629.12 0 0-39.68 24.96-53.76 51.2-1.28 1.92 0 4.48 2.56 5.12 5.76 1.28 16 5.12 23.04 16 9.6 14.08 26.24 20.48 42.24 15.36 24.96-7.68 24.96 23.68 35.84 28.8 10.88 5.12 21.12 5.76 41.6 0.64 1.92-0.64 2.56-1.92 2.56-3.84 0-12.16-0.64-60.16-5.76-69.76 1.92-0.64 24.32-23.04 40.96-90.24zM683.52 122.88" fill="#FFEDC4" p-id="1766"></path><path d="M972.16 876.8c-16.64-33.28-53.12-49.28-55.68-66.56-33.28-206.08-133.76-551.68-156.16-601.6-10.88-16.64-33.92-29.44-78.08-44.8l5.76-39.04c47.36 16.64 83.84 32.64 97.92 50.56 30.08 37.76 154.24 490.24 170.24 621.44 0.64 6.4 3.84 11.52 8.96 15.36 17.92 13.44 31.36 26.88 39.68 40.32l-32.64 24.32z" fill="#FFDF9F" p-id="1767"></path><path d="M291.84 538.24h-1.28c-4.48-0.64-7.68-4.48-7.04-9.6 1.28-12.16 3.2-24.32 5.12-37.12 0.64-4.48 5.12-7.68 9.6-7.04 4.48 0.64 7.68 5.12 7.04 9.6-1.92 12.8-3.2 24.96-5.12 37.12-0.64 3.84-4.48 7.04-8.32 7.04zM270.72 713.6h-0.64c-4.48-0.64-7.68-4.48-7.68-8.96 4.48-43.52 9.6-88.32 15.36-132.48 0.64-4.48 4.48-7.68 9.6-7.04 4.48 0.64 7.68 4.48 7.04 9.6-5.76 44.16-10.24 88.32-15.36 132.48 0 3.2-3.84 6.4-8.32 6.4z" fill="#FFFFFF" p-id="1768"></path><path d="M421.12 975.36c-28.8 0-59.52-1.92-87.68-7.68-59.52-12.16-112.64-5.12-132.48-1.92-4.48 0.64-9.6-0.64-12.8-3.84-3.84-3.2-5.76-7.68-5.12-12.8 1.28-19.2 3.84-64.64 10.24-129.92-6.4 12.8-11.52 20.48-14.72 24.96 3.2 14.08 4.48 43.52 4.48 67.84 0 5.76-3.84 10.24-8.96 11.52-22.4 5.12-34.56 5.12-47.36-1.28-6.4-3.2-9.6-9.6-12.8-16-5.76-12.16-8.96-15.36-17.28-12.8-19.2 5.76-39.68-1.92-51.2-19.2-5.76-8.96-14.08-11.52-17.92-12.8-3.84-0.64-7.04-3.2-8.32-6.4-1.28-3.2-1.28-7.68 0-10.88 12.16-23.04 42.24-44.8 53.12-51.84 4.48-62.08 42.24-216.32 76.16-342.4 33.92-125.44 77.44-269.44 92.16-288 19.2-23.68 76.16-43.52 99.2-51.2 1.92-0.64 3.2-1.28 4.48-2.56 17.92-15.36 61.44-51.2 75.52-58.24 4.48-1.92 8.96-2.56 13.44-1.92 0 0 43.52 4.48 80.64 4.48h1.92c36.48 0 80-4.48 80.64-4.48 4.48-0.64 8.96 0 13.44 1.92 14.72 7.04 57.6 42.88 75.52 58.24 1.28 1.28 2.56 1.92 4.48 2.56 23.68 7.68 80.64 27.52 99.2 51.2 14.72 18.56 58.24 161.92 92.16 288 33.92 126.08 71.68 280.32 76.16 342.4 10.24 7.04 40.32 28.8 53.12 51.84 1.92 3.2 1.92 7.04 0 10.88-1.92 3.2-4.48 5.76-8.32 6.4-4.48 0.64-12.16 3.84-17.92 12.8-11.52 17.28-32 24.96-51.2 19.2-8.32-2.56-10.88 0.64-17.28 12.8-3.2 6.4-6.4 12.8-12.8 16-12.8 6.4-24.96 6.4-47.36 1.28-5.76-1.28-8.96-6.4-8.96-11.52 0-23.68 1.28-53.76 4.48-67.84-3.2-4.48-8.96-12.8-15.36-26.24 4.48 49.28 9.6 112 10.24 131.2 0 5.12-1.92 9.6-5.12 12.8-3.84 3.2-8.32 4.48-12.8 3.84-19.84-3.2-72.96-10.24-132.48 1.92-67.2 13.44-147.84 5.76-180.48 1.92-20.48 2.56-55.04 5.76-94.08 5.76zM262.4 944.64c21.76 0 47.36 1.92 73.6 7.04 65.92 13.44 145.28 5.12 176.64 1.28h1.92c31.36 3.84 110.72 11.52 176.64-1.28 61.44-12.16 115.84-5.76 137.6-1.92-1.92-35.2-16-193.28-16-195.2-0.64-4.48 2.56-8.32 7.04-8.96 4.48-0.64 8.32 1.92 9.6 6.4 16 63.36 36.48 85.12 37.12 85.12 2.56 2.56 3.2 6.4 1.28 9.6-1.92 3.84-4.48 26.88-4.48 62.08 17.92 3.84 25.6 2.56 32.64-0.64 1.28-0.64 3.84-5.76 5.12-8.32 5.12-9.6 14.08-28.16 37.12-21.12 12.16 3.84 25.6-1.28 32.64-12.16 7.04-10.24 15.36-15.36 22.4-17.92-14.72-21.76-47.36-42.88-47.36-42.88-2.56-1.28-3.84-3.84-3.84-6.4-2.56-57.6-40.96-215.04-76.16-343.04-44.16-161.28-80-270.08-89.6-281.6-13.44-16.64-55.68-34.56-91.52-46.08-3.84-1.28-7.04-3.2-10.24-5.76-26.88-22.4-61.44-50.56-72.32-55.68-1.28-0.64-2.56-0.64-4.48-0.64-1.92 0-45.44 5.12-82.56 5.12h-1.92c-37.76 0-80.64-4.48-82.56-4.48-1.92 0-3.2 0-4.48 0.64-10.24 5.12-45.44 33.28-72.32 55.68-3.2 2.56-6.4 4.48-10.24 5.76-35.84 11.52-78.08 29.44-91.52 46.08-20.48 25.6-159.36 508.8-165.12 624.64 0 2.56-1.28 5.12-3.84 6.4-0.64 0-32.64 20.48-47.36 42.88 7.04 2.56 15.36 7.68 22.4 17.92 7.04 10.88 20.48 16 32.64 12.16 23.04-7.04 32 11.52 37.12 21.12 1.28 2.56 3.84 7.68 5.12 8.32 7.04 3.84 14.72 4.48 32.64 0.64-0.64-35.2-2.56-58.24-4.48-62.08-1.92-3.2-1.28-7.04 1.28-9.6 0 0 21.12-22.4 36.48-85.12v-0.64c1.28-3.84 5.76-6.4 9.6-5.76 3.84 0.64 7.04 4.48 6.4 8.96-10.24 99.84-14.72 168.96-16 195.2 12.16-3.2 34.56-5.76 63.36-5.76z m-97.92-32z" fill="#3F4C75" p-id="1769"></path><path d="M632.96 478.72c-14.08-35.84-87.68-183.68-94.08-211.2 1.28-3.2 0.64-7.04-1.28-10.24-1.92-3.2-5.12-7.68-7.68-10.24-5.12-5.12-23.68-13.44-35.2 1.28-0.64 0.64-0.64 1.92 0.64 2.56l0.64 0.64c-11.52 7.04-27.52 23.68-32.64 78.72-5.76 105.6-44.8 195.2-39.04 200.32 7.04 7.04 37.12 28.16 51.2 56.32 1.28 1.92 4.48 1.28 4.48-1.28L496.64 352c0-44.8 5.12-62.72 7.04-67.84 3.84 1.28 10.88 1.92 17.92-0.64 0 4.48 1.28 28.8 12.8 88.96 8.96 46.72 5.12 70.4 1.92 80.64-1.28 3.84 1.28 8.32 5.76 8.32 20.48 2.56 70.4 10.24 87.04 19.84 2.56 2.56 5.12 0 3.84-2.56z" fill="#B9D4DB" p-id="1770"></path><path d="M477.44 587.52L460.8 565.12c0-1.92 16.64-159.36 16.64-203.52 0-53.12 7.04-83.84 21.12-90.88 13.44-6.4 27.52-2.56 33.28 9.6 5.76 11.52 11.52 37.76 17.28 67.84 7.68 37.12 7.68 78.72 5.76 100.48 15.36 5.12 39.04 5.76 72.32 22.4l5.76 10.88c-33.28-10.88-77.44-16.64-84.48-16.64-3.2 0-5.76-1.28-7.68-3.84-1.92-2.56-2.56-5.12-1.92-8.32 2.56-11.52 2.56-55.68-6.4-100.48-3.84-20.48-11.52-49.28-11.52-65.92 0-3.84-10.88-3.2-16-0.64-3.2 1.28-12.16 19.2-12.16 76.16 1.28 44.16-14.72 217.6-15.36 225.28z" fill="#93BAC1" p-id="1771"></path><path d="M418.56 972.8c-26.88 0-56.32-1.92-84.48-7.68-60.16-12.16-113.28-5.12-133.76-1.92-3.84 0.64-7.68-0.64-10.88-3.2s-4.48-6.4-4.48-10.24c2.56-38.4 15.36-242.56 55.04-514.56 15.36-106.88 19.84-244.48 1.28-262.4-1.92-1.92-1.92-5.76 0-7.68s5.76-1.92 7.68 0c11.52 11.52 16 48.64 14.72 112-1.28 49.28-6.4 110.72-13.44 160-39.68 271.36-53.12 475.52-55.04 513.92 0 0.64 0.64 1.28 0.64 1.28s0.64 0.64 1.28 0.64c20.48-3.84 75.52-10.88 137.6 1.92 81.28 16 175.36 0 176 0 3.2-0.64 5.76 1.28 6.4 4.48 0.64 3.2-1.28 5.76-4.48 6.4 1.28-0.64-40.96 7.04-94.08 7.04z" fill="#3F4C75" p-id="1772"></path><path d="M147.2 924.8c-7.68 0-14.08-1.28-20.48-4.48-5.12-2.56-8.32-8.32-11.52-14.72-5.76-10.88-9.6-17.28-20.48-14.08-17.92 5.76-37.76-1.92-48.64-17.92-6.4-9.6-15.36-12.8-19.84-14.08-2.56-0.64-5.12-2.56-6.4-5.12-1.28-2.56-1.28-5.76 0-8.32 12.16-23.68 44.16-45.44 53.12-51.84 4.48-65.92 48-242.56 85.12-375.04l11.52-41.6c4.48-14.72 8.32-29.44 12.8-43.52l11.52-37.76c16.64-53.76 37.76-120.32 47.36-132.48 23.04-28.8 99.84-51.2 103.04-51.84 3.2-0.64 5.76 0.64 7.04 3.84 0.64 3.2-0.64 5.76-3.84 7.04-0.64 0-76.8 22.4-97.28 48-2.56 3.2-12.8 21.12-45.44 128.64l-11.52 37.76c-3.84 14.08-8.32 28.16-12.8 42.88l-11.52 41.6c-37.12 133.76-81.92 312.32-84.48 375.04 0 1.92-1.28 3.2-2.56 4.48-0.64 0-36.48 23.04-50.56 46.72 6.4 1.92 16.64 6.4 24.32 17.92 8.32 12.16 22.4 17.28 35.84 13.44 20.48-6.4 28.16 9.6 33.28 19.84 1.92 3.84 4.48 8.96 6.4 9.6 8.96 4.48 18.56 4.48 36.48 0.64 0-33.92-2.56-60.16-5.12-65.28-1.28-2.56 0-6.4 2.56-7.68 2.56-1.28 6.4 0 7.68 2.56 5.12 10.24 5.76 49.28 6.4 71.68 0 4.48-3.2 8.32-7.04 8.96-9.6 3.84-17.92 5.12-24.96 5.12z" fill="#3F4C75" p-id="1773"></path><path d="M168.32 846.72c-1.28 0-2.56-0.64-3.84-1.92-1.92-1.92-1.92-5.76 0-7.68 0.64-0.64 21.76-23.04 37.76-86.4 0.64-3.2 3.84-5.12 7.04-3.84 3.2 0.64 5.12 3.84 3.84 7.04-16.64 67.84-39.68 90.88-40.32 91.52-1.28 0.64-3.2 1.28-4.48 1.28zM337.92 319.36c-2.56 0-5.12-0.64-7.68-2.56-4.48-3.2-7.04-8.96-5.76-14.08 3.2-14.08 5.76-43.52 7.68-72.32 1.28-16.64 2.56-32.64 3.84-44.16 2.56-22.4 3.2-39.68 3.2-51.84 0-8.32 0.64-14.72 1.28-19.2 0.64-4.48 3.2-8.32 7.04-10.88 11.52-7.04 23.68-16 35.84-24.96 14.08-10.24 27.52-20.48 36.48-24.96 3.84-1.92 7.68-2.56 12.16-1.92 0 0 44.16 4.48 80.64 4.48h1.92c37.12 0 80.64-4.48 81.28-4.48 3.84-0.64 8.32 0 12.16 1.92 9.6 4.48 22.4 14.08 36.48 24.96 12.16 8.96 24.96 18.56 35.84 24.96 3.84 2.56 6.4 6.4 7.04 10.88 0.64 4.48 0.64 10.24 1.28 19.2 0.64 12.16 0.64 29.44 3.2 51.84 1.28 12.16 2.56 27.52 3.84 44.16 2.56 28.8 4.48 58.88 7.68 72.96 1.28 5.12-0.64 10.88-5.76 14.08-4.48 3.2-9.6 3.2-14.08 0.64-53.76-33.92-133.76-65.92-134.4-66.56l3.84-10.24c0.64 0.64 81.92 32.64 136.32 67.2 0 0 0.64 0.64 1.92 0 0.64-0.64 1.28-1.28 1.28-2.56-3.2-14.72-5.76-44.8-8.32-74.24-1.28-16.64-2.56-32-3.84-44.16-2.56-23.04-3.2-40.32-3.2-52.48 0-7.68-0.64-13.44-1.28-17.28 0-1.28-0.64-1.92-1.92-2.56-11.52-7.04-24.32-16.64-37.12-25.6-13.44-10.24-26.24-19.84-34.56-23.68-1.92-0.64-3.84-1.28-5.76-0.64-0.64 0-44.8 4.48-82.56 4.48H512c-37.76 0-81.92-4.48-81.92-4.48-2.56-0.64-4.48 0-5.76 0.64-8.32 3.84-21.12 13.44-34.56 23.68-12.16 8.96-24.96 18.56-37.12 25.6 0-0.64-0.64 0-0.64 1.28-0.64 3.84-0.64 9.6-1.28 17.28-0.64 12.8-0.64 29.44-3.2 52.48-1.28 12.16-2.56 27.52-3.84 44.16-2.56 29.44-4.48 59.52-8.32 74.24 0 1.28 0.64 1.92 1.28 2.56 0.64 0.64 1.28 0 1.92 0 54.4-34.56 135.68-67.2 136.32-67.2l3.84 10.24c-0.64 0.64-80.64 32.64-134.4 66.56-1.92 1.92-4.48 2.56-6.4 2.56zM609.92 972.8c-53.76 0-96.64-7.04-97.28-7.68-3.2-0.64-5.12-3.2-4.48-6.4 0.64-3.2 3.2-5.12 6.4-4.48 0.64 0 96.64 16.64 177.92 0 62.08-12.16 117.12-5.12 137.6-1.92 0.64 0 1.28 0 1.28-0.64 0 0 0.64-0.64 0.64-1.28-2.56-38.4-15.36-241.92-55.04-513.92-7.04-49.28-12.16-110.72-13.44-160-1.28-63.36 3.84-100.48 14.72-112 1.92-1.92 5.76-1.92 7.68 0s1.92 5.76 0 7.68c-17.92 17.92-14.08 156.16 1.28 262.4 39.68 272 53.12 476.16 55.04 514.56 0 3.84-1.28 7.68-4.48 10.24-3.2 2.56-7.04 3.84-10.88 3.2-19.84-3.2-73.6-10.24-133.76 1.92-26.24 6.4-55.68 8.32-83.2 8.32z" fill="#3F4C75" p-id="1774"></path><path d="M881.92 924.8c-7.04 0-14.72-1.28-24.96-3.84-3.84-1.28-7.04-4.48-7.04-8.96 0-22.4 1.28-62.08 6.4-71.68l10.24 5.12c-2.56 5.12-4.48 31.36-5.12 65.28 17.92 4.48 27.52 3.84 36.48-0.64 1.92-1.28 4.48-5.76 6.4-9.6 5.12-10.24 12.8-25.6 33.28-19.84 13.44 3.84 28.16-1.28 35.84-13.44 7.68-11.52 17.92-16 24.32-17.92-14.08-23.68-49.92-46.72-50.56-46.72l-2.56-1.28v-3.2c-3.2-57.6-40.96-215.04-76.16-343.68-40.32-147.2-78.72-268.8-89.6-282.88-21.12-26.24-96.64-48-97.28-48l3.2-10.88c3.2 0.64 80 23.04 103.04 51.84 27.52 33.92 160.64 516.48 168.32 629.76 8.96 5.76 40.32 28.16 53.12 51.84 1.28 2.56 1.28 5.76 0 8.32s-3.84 4.48-6.4 5.12c-4.48 1.28-13.44 3.84-19.84 14.08-10.88 16-30.08 23.04-48.64 17.92-10.88-3.2-14.72 2.56-20.48 14.08-3.2 6.4-5.76 12.16-11.52 14.72-6.4 3.2-12.8 4.48-20.48 4.48z" fill="#3F4C75" p-id="1775"></path><path d="M860.8 849.92c-1.28 0-2.56-0.64-3.84-1.92-0.64-0.64-23.68-24.32-40.32-91.52-0.64-3.2 1.28-5.76 3.84-7.04 3.2-0.64 5.76 1.28 7.04 3.84 16 64 37.12 86.4 37.76 86.4 1.92 1.92 1.92 5.76 0 7.68-1.92 1.92-3.2 2.56-4.48 2.56zM542.72 263.04l-7.04-8.96c3.84-3.2 8.32-7.04 12.8-12.16 32.64-36.48 60.16-108.8 60.16-142.72 0-2.56-1.28-4.48-2.56-6.4-1.92-1.92-5.12-2.56-7.68-1.92-23.68 3.2-67.2 8.96-90.24 8.96-22.4 0-58.24-5.12-77.44-8.32-2.56-0.64-5.76 0-7.68 1.92-1.92 1.28-3.2 3.2-3.2 5.76-1.92 32 23.68 104.32 56.96 142.08 5.12 5.76 9.6 10.24 12.16 12.8L481.92 262.4c-4.48-3.84-10.24-10.24-13.44-14.08-35.84-40.96-62.08-115.84-59.52-149.76 0.64-5.12 3.2-10.24 7.04-13.44 4.48-3.84 10.88-5.12 16.64-4.48 19.2 3.2 53.76 8.32 75.52 8.32 22.4 0 65.28-5.76 88.32-8.96 5.76-0.64 12.16 0.64 16.64 5.12 4.48 3.84 6.4 8.96 6.4 14.72 0 35.84-28.8 112-62.72 150.4-4.48 4.48-9.6 8.96-14.08 12.8z" fill="#3F4C75" p-id="1776"></path><path d="M478.08 591.36c-1.92 0-3.84-1.28-4.48-2.56-10.88-21.76-32.64-40.32-43.52-49.92-3.2-2.56-5.76-4.48-7.04-6.4-3.2-3.2-1.28-10.24 6.4-36.48 10.24-36.48 28.16-97.92 32-166.4 5.76-60.16 24.32-76.16 37.76-83.2l2.56 5.12c-12.16 6.4-29.44 21.12-34.56 78.72-3.84 69.12-21.12 130.56-32 167.68-3.84 14.72-8.32 28.16-7.68 31.36 1.28 1.28 3.84 3.2 6.4 5.76 11.52 9.6 32.64 27.52 44.16 49.92l16.64-232.32c0-48.64 5.76-67.84 8.96-71.04l3.84 3.84c-1.92 2.56-7.68 19.84-7.68 67.84l-16.64 234.24c0 1.92-1.28 4.48-3.84 4.48-0.64-0.64-1.28-0.64-1.28-0.64z m-0.64-5.12z m-50.56-56.96z" fill="#3F4C75" p-id="1777"></path><path d="M512 288.64c-3.84 0-7.04-0.64-8.96-1.28-1.92-0.64-4.48-3.2-6.4-7.04-1.28-3.84-2.56-9.6 1.92-17.28 2.56-4.48 1.92-5.12-3.2-8.96l-1.92-1.28c-1.92-1.92-2.56-4.48-0.64-6.4 4.48-5.76 10.24-8.96 17.28-9.6 10.24-0.64 18.56 4.48 22.4 7.68 2.56 2.56 5.12 5.76 7.68 10.88 3.2 5.12 3.2 10.88 0 16-8.96 14.08-19.84 17.28-28.16 17.28z m-7.04-6.4c7.04 1.92 19.84 3.2 30.72-13.44 1.92-3.2 1.92-7.04 0-9.6-2.56-4.48-5.12-7.68-7.04-9.6-2.56-2.56-10.24-6.4-17.92-6.4-5.12 0.64-8.96 2.56-12.8 6.4l1.28 0.64c4.48 3.84 8.96 7.04 4.48 15.36-2.56 4.48-3.2 8.32-1.92 11.52 0.64 3.2 2.56 4.48 3.2 5.12z" fill="#3F4C75" p-id="1778"></path><path d="M630.4 485.12c-0.64 0-1.92 0-2.56-0.64-16-9.6-65.92-16.64-86.4-19.2-2.56-0.64-5.12-1.92-7.04-4.48-1.28-2.56-1.92-5.12-1.28-7.68 3.2-9.6 7.04-32.64-1.92-79.36-12.8-67.2-12.8-89.6-12.8-90.24h5.76s0 23.04 12.8 89.6c8.32 45.44 5.76 69.76 1.92 81.92-0.64 1.28 0 1.92 0.64 3.2s1.92 1.92 2.56 1.92c21.12 2.56 71.04 10.24 88.32 20.48-5.76-14.08-20.48-45.44-36.48-78.72-26.24-55.68-55.68-118.4-58.88-133.76l5.76-1.28c3.2 14.72 33.28 80 58.24 132.48 16.64 35.2 30.72 65.28 35.84 79.36 0.64 2.56 0 5.12-1.92 6.4h-2.56z" fill="#3F4C75" p-id="1779"></path><path d="M513.92 962.56c-3.2 0-5.76-2.56-5.76-5.76v-665.6c0-3.2 2.56-5.76 5.76-5.76s5.76 2.56 5.76 5.76v665.6c-0.64 3.2-3.2 5.76-5.76 5.76z" fill="#3F4C75" p-id="1780"></path></svg>