<?xml version="1.0" standalone="no"?><!DOCTYPE svg PUBLIC "-//W3C//DTD SVG 1.1//EN" "http://www.w3.org/Graphics/SVG/1.1/DTD/svg11.dtd"><svg t="1626480967100" class="icon" viewBox="0 0 2000 2000" version="1.1" xmlns="http://www.w3.org/2000/svg" p-id="1926" xmlns:xlink="http://www.w3.org/1999/xlink" width="100px" height="100px"><defs><style type="text/css"></style></defs><path d="M818.56 936.32l-8.96-445.44 126.08-65.92S849.92 172.8 816.64 128.64c-28.16-36.48-101.12-67.2-117.76-73.6-1.92-0.64-3.84-0.64-5.76 0.64-14.08 10.88-103.04 50.56-185.6 50.56-76.16 0-171.52-40.32-185.6-51.2-1.92-1.28-5.76-1.28-7.68-1.92-5.76-0.64-92.16 36.48-119.68 72.96-33.28 43.52-122.88 297.6-122.88 297.6l125.44 66.56-10.88 445.44s128.64 33.28 314.24-1.28c66.56-12.16 135.04-17.28 192-14.72 72.32 3.84 126.08 16.64 126.08 16.64z" fill="#F2A490" p-id="1927"></path><path d="M698.88 58.88c0.64 0-1.92 3.84-2.56 4.48-5.12 16-29.44 87.68-73.6 152.32-42.24 62.08-107.52 115.84-115.84 115.84-8.32 0-73.6-50.56-115.84-112.64-44.8-67.2-69.12-142.72-72.32-159.36 0-0.64-0.64 0 0 0 10.24-3.2 83.84 49.92 192 53.12 35.2 0.64 62.72-7.68 85.76-13.44 50.56-11.52 79.36-32 102.4-40.32z" fill="#B9D4DB" p-id="1928"></path><path d="M373.76 231.68c-39.68-58.24-60.8-112.64-70.4-142.08-3.84-12.8 3.2-26.88 16-30.08l3.2-0.64S345.6 144 395.52 217.6" fill="#FDF17F" p-id="1929"></path><path d="M890.88 440.32c-3.2-8.32-7.04-19.84-11.52-34.56-21.12-64.64-65.92-198.4-108.16-245.76-19.2-21.12-58.88-44.8-87.68-58.24l19.2-42.24c32 14.08 78.08 40.96 103.04 69.76 48.64 55.04 93.44 189.44 117.12 262.4 4.48 13.44 8.32 25.6 11.52 33.28l-43.52 15.36z" fill="#E89182" p-id="1930"></path><path d="M929.92 403.2l-119.04 62.72 5.76 32 125.44-65.92zM698.88 54.4c12.8 1.28 21.76 14.08 17.28 26.88-10.24 30.72-32.64 86.4-72.32 144.64-50.56 74.24-130.56 138.24-140.16 138.24s-85.76-64-136.32-138.24c-39.68-58.24-60.8-112.64-70.4-142.08-3.84-13.44 3.84-26.88 16.64-30.72l3.2-0.64S339.84 137.6 389.76 211.2c42.24 62.08 105.6 115.84 113.92 115.84S579.2 273.28 621.44 211.2C671.36 137.6 697.6 53.76 697.6 53.76l1.28 0.64zM85.12 397.44l119.04 62.72-5.76 32-125.44-65.92z" fill="#FFEDC4" p-id="1931"></path><path d="M820.48 505.6l-8.32-15.36 115.2-60.8c1.92-0.64 2.56-3.2 1.92-5.12-42.88-119.04-96.64-257.28-119.04-286.72-25.6-33.92-95.36-62.72-112.64-69.76-19.2 13.44-108.16 51.84-189.44 51.84-74.88 0-169.6-38.4-190.08-51.84-17.28 7.04-86.4 35.84-112.64 69.76-22.4 29.44-76.16 167.04-119.04 286.72-0.64 1.92 0 3.84 1.92 5.12l117.76 60.16-7.68 15.36-117.76-60.16c-9.6-5.12-14.08-16-10.24-26.24 21.12-58.24 92.16-252.16 121.6-291.2C221.44 89.6 292.48 59.52 314.24 51.2c4.48-1.92 10.24-1.28 14.08 1.92C339.2 61.44 432 102.4 508.8 102.4c79.36 0 167.04-39.04 180.48-49.28 3.84-3.2 9.6-3.84 14.08-1.92 21.12 8.32 92.8 38.4 121.6 76.16 29.44 39.04 100.48 232.96 121.6 291.2 3.84 10.24-0.64 21.12-10.24 26.24L820.48 505.6z" fill="#3F4C75" p-id="1932"></path><path d="M826.88 915.2c-23.68-7.68-125.44-38.4-318.72-7.04-165.12 26.88-285.44 9.6-312.32 4.48l3.2 32c21.12 3.84 138.24 23.68 309.12-3.84 193.28-31.36 289.28-6.4 312.96 1.28l5.76-26.88z" fill="#FFEDC4" p-id="1933"></path><path d="M329.6 963.2c-73.6 0-121.6-8.32-135.04-10.88-6.4-1.28-10.88-6.4-10.24-12.8L192.64 627.2l3.2-250.24c0-4.48 3.84-8.32 8.96-8.32 5.12 0 8.96 3.84 8.32 8.96l-2.56 249.6-8.32 309.12c28.8 5.12 141.44 21.12 302.08-4.48 181.76-29.44 278.4-9.6 311.04 0L803.84 377.6c0-5.12 3.84-8.96 8.32-8.96 4.48 0 8.32 3.84 8.96 8.32l11.52 560.64c0 4.48-1.92 8.32-5.12 10.88-3.2 2.56-7.68 3.2-11.52 1.92-24.32-7.68-118.4-31.36-309.12-0.64-68.48 10.24-128.64 13.44-177.28 13.44z" fill="#3F4C75" p-id="1934"></path><path d="M241.92 779.52c-5.12 0-8.96-3.84-8.96-8.96l2.56-103.04c0-4.48 3.84-8.32 8.96-8.32 5.12 0 8.32 3.84 8.32 8.96l-2.56 103.04c0 5.12-3.84 8.32-8.32 8.32zM245.76 625.28c-0.64 0-0.64 0 0 0-5.12 0-8.96-3.84-8.96-8.96v-19.84c0-4.48 3.84-8.32 8.96-8.32 5.12 0 8.96 3.84 8.32 8.96v19.84c0 4.48-3.84 8.32-8.32 8.32z" fill="#FFFFFF" p-id="1935"></path></svg>