<?xml version="1.0" standalone="no"?><!DOCTYPE svg PUBLIC "-//W3C//DTD SVG 1.1//EN" "http://www.w3.org/Graphics/SVG/1.1/DTD/svg11.dtd"><svg t="1626481025030" class="icon" viewBox="0 0 2000 2000" version="1.1" xmlns="http://www.w3.org/2000/svg" p-id="2232" xmlns:xlink="http://www.w3.org/1999/xlink" width="100px" height="100px"><defs><style type="text/css"></style></defs><path d="M392.32 992c-103.04 10.88-145.92-32.64-145.92-32.64S343.68 435.2 344.96 426.24c1.28-14.08 1.92-53.76 1.92-73.6 0-3.2-3.84-4.48-5.76-2.56l-29.44 23.68c-3.2 3.2-7.68 3.2-10.88 0.64-16.64-13.44-59.52-32-71.68-61.44-10.88-25.6-6.4-48.64-4.48-56.96 0-1.92 0.64-3.2 1.92-4.48 0.64-0.64 0.64-0.64 1.28-0.64l16-7.04c3.84-1.92 5.12-5.76 4.48-9.6-3.2-12.16 3.84-20.48 9.6-24.32 3.2-1.92 3.84-6.4 2.56-9.6-5.12-12.8 4.48-21.76 10.24-25.6 1.92-1.92 3.2-4.48 3.2-7.04-3.2-31.36 35.2-82.56 39.04-87.04l0.64-0.64C341.12 57.6 396.16 34.56 405.76 30.08c0.64-0.64 1.92-0.64 2.56 0 12.8 5.76 115.2 49.28 207.36 0 0.64-0.64 1.92-0.64 3.2 0 10.24 3.84 65.28 26.88 92.16 48.64l0.64 0.64c3.84 4.48 42.24 55.68 39.04 87.04 0 2.56 0.64 5.12 3.2 7.04 5.76 3.84 14.72 12.8 10.24 25.6-1.28 3.2 0 7.68 2.56 9.6 5.76 4.48 12.8 12.16 9.6 24.32-1.28 3.84 0.64 7.68 4.48 9.6l16 7.04c0.64 0 0.64 0.64 1.28 0.64 1.28 1.28 1.92 2.56 1.92 4.48 1.28 8.32 5.76 31.36-4.48 56.96-12.16 29.44-55.04 48-71.68 61.44-3.2 2.56-7.68 2.56-10.88-0.64l-29.44-23.68c-2.56-1.92-5.76 0-5.76 2.56 0 20.48 0.64 64 1.92 78.08 1.92 8.96 98.56 528.64 98.56 528.64s-50.56 44.16-150.4 30.72c-102.4-13.44-128-8.32-235.52 3.2z" fill="#F2A490" p-id="2233"></path><path d="M341.12 113.28c-1.92 0-3.84-0.64-5.12-2.56-2.56-3.2-1.92-7.04 1.28-9.6 6.4-4.48 14.08-10.24 23.04-16 3.2-1.92 7.68-1.28 9.6 1.92 1.92 3.2 1.28 7.68-1.92 9.6-9.6 5.76-16.64 10.88-22.4 15.36-1.28 1.28-3.2 1.28-4.48 1.28zM284.16 230.4c-0.64 0-1.28 0-1.92-0.64-3.84-1.28-5.12-5.12-4.48-8.96 14.08-40.32 25.6-69.76 35.2-88.96 1.92-3.2 5.76-4.48 8.96-3.2 3.2 1.92 4.48 5.76 3.2 8.96-8.96 18.56-20.48 48-34.56 87.68-1.28 3.84-3.84 5.12-6.4 5.12z" fill="#FFFFFF" p-id="2234"></path><path d="M746.88 979.2c-103.04-544-103.04-544-103.04-544.64 0-29.44 1.92-88.32 1.92-96.64 0-8.32 5.12-16 12.16-19.84 7.68-3.84 16.64-2.56 23.04 2.56l62.72 44.16-28.8 17.28-34.56-28.16c-0.64 5.76-1.28 21.12-1.92 27.52-1.28 17.92-3.84 42.24-3.2 49.28 4.48 23.04 101.76 533.12 102.4 538.24l-30.72 10.24z" fill="#E89182" p-id="2235"></path><path d="M510.08 210.56c36.48 1.92 108.8-177.28 108.8-177.28-1.28-0.64-1.92-0.64-3.2 0-92.16 48.64-193.92 5.76-207.36 0-0.64-0.64-1.92-0.64-2.56 0 0 0 67.84 174.72 104.32 177.28z" fill="#FFEDC4" p-id="2236"></path><path d="M360.32 1001.6c-81.28 0-117.12-34.56-119.04-36.48l-2.56-2.56 0.64-3.2c1.28-5.12 97.28-524.16 98.56-533.12 1.28-12.16 1.92-46.08 1.92-65.92l-23.68 19.2c-5.12 5.12-13.44 5.76-19.84 0.64-3.84-3.2-10.24-7.04-16.64-10.88-19.84-12.16-47.36-29.44-56.96-53.12-10.88-26.24-7.04-50.56-5.12-59.52v-1.28c0.64-2.56 1.92-5.12 3.84-7.68 0.64-1.28 1.92-1.92 3.84-2.56l16-7.04c0.64 0 0.64-1.28 0.64-1.28-3.2-12.16 0.64-23.68 12.16-32 0.64-0.64 0.64-1.28 0.64-1.28-5.12-12.16 0-24.96 12.16-33.92l0.64-0.64c-4.48-33.28 32.64-82.56 39.68-92.16l1.92-1.92c28.16-21.76 83.2-44.8 94.08-49.28 2.56-1.28 5.76-1.28 8.32 0 10.88 5.12 112 48 200.96 0.64 2.56-1.28 5.76-1.92 8.96-0.64 10.88 4.48 65.92 27.52 94.08 49.28l1.92 1.92c7.68 9.6 44.16 58.88 40.32 92.16 0 0 0 0.64 0.64 0.64 12.8 8.96 17.28 21.12 12.16 33.92 0 0.64 0 1.28 0.64 1.28 10.88 8.32 15.36 19.84 12.16 32 0 0.64 0 1.28 0.64 1.28l16 7.04c1.28 0.64 2.56 1.28 3.84 2.56 1.92 1.92 3.2 5.12 3.84 7.68v1.28c1.28 8.96 5.76 33.28-5.12 59.52-9.6 23.68-37.12 40.32-56.96 53.12-7.04 4.48-12.8 7.68-16.64 10.88-5.76 4.48-14.08 4.48-19.84-0.64l-23.68-19.2c0 21.12 0.64 57.6 1.92 70.4 1.92 8.32 97.92 522.88 98.56 528.64l0.64 3.84-3.2 2.56c-1.92 1.92-53.76 46.08-155.52 32-92.8-12.8-122.24-9.6-208.64-0.64-7.68 0.64-16.64 1.92-25.6 2.56-12.16 1.28-23.04 1.92-33.28 1.92z m-106.24-43.52c4.48 3.2 14.08 10.88 30.08 16.64 20.48 8.32 56.32 16.64 107.52 11.52 8.96-0.64 17.28-1.92 25.6-2.56 87.68-9.6 117.12-12.16 211.84 0.64 49.92 7.04 86.4-1.28 108.8-9.6 17.28-6.4 28.16-13.44 33.28-17.28-8.96-49.28-96.64-516.48-97.92-524.8v-0.64c-1.28-14.08-1.92-55.68-1.92-78.72 0-3.84 2.56-7.68 5.76-9.6 3.84-1.92 7.68-1.28 10.88 1.28l29.44 24.32c0.64 0.64 1.28 0.64 1.92 0 4.48-3.84 10.88-7.68 17.92-12.16 18.56-11.52 43.52-26.88 51.84-46.72 9.6-23.04 5.76-43.52 4.48-52.48v-1.28-0.64l-15.36-7.04c-6.4-3.2-10.24-10.24-7.68-17.92 0.64-2.56 2.56-9.6-7.04-17.28-5.76-3.84-7.68-10.88-5.12-17.28 2.56-6.4 0-12.16-7.68-17.92-4.48-3.2-6.4-8.32-5.76-13.44 2.56-23.04-22.4-62.08-37.76-81.92-25.6-19.84-76.16-40.96-88.96-46.72-92.16 48-193.92 7.04-210.56 0-10.88 4.48-63.36 26.88-89.6 46.72-15.36 19.84-39.68 58.88-37.76 81.92 0.64 5.12-1.92 10.24-5.76 13.44-7.68 5.12-10.24 11.52-7.68 17.92 2.56 6.4 0.64 13.44-5.12 17.28-9.6 7.04-7.68 14.72-7.04 17.28 1.92 7.04-1.28 14.72-7.68 17.92L231.68 256V257.92c-1.28 8.96-5.12 29.44 4.48 52.48 8.32 19.84 33.28 35.2 51.84 46.72 7.04 4.48 13.44 8.32 17.92 12.16 0.64 0.64 1.28 0.64 1.92 0l0.64-0.64 29.44-23.68c3.2-2.56 7.68-3.2 10.88-1.28 3.84 1.92 5.76 5.12 5.76 9.6 0 21.76-0.64 60.16-1.92 74.24v0.64c-2.56 8.96-90.24 481.92-98.56 529.92zM231.68 256.64z m474.88-171.52z" fill="#3F4C75" p-id="2237"></path><path d="M510.72 213.12h-0.64C471.68 211.2 410.24 48.64 403.2 30.08l8.32-3.2c25.6 67.84 74.24 175.36 98.56 177.28 4.48 0 23.68-4.48 63.36-81.28C597.12 76.8 613.76 33.92 614.4 29.44l8.96 0.64c-0.64 10.24-70.4 183.04-112.64 183.04z" fill="#3F4C75" p-id="2238"></path><path d="M512.64 453.76c-103.04 0-170.24-24.32-171.52-24.32l3.2-8.32c1.28 0.64 146.56 52.48 336 1.92l2.56 8.96c-62.72 16-120.32 21.76-170.24 21.76z" fill="#3F4C75" p-id="2239"></path><path d="M648.32 382.72c-19.84 0-46.72-5.76-74.88-29.44-40.32-33.92-54.4-58.24-59.52-69.12-4.48 10.88-19.2 35.2-59.52 69.12-53.76 45.44-111.36 20.48-112 19.84l3.84-8.32c1.92 0.64 53.12 23.04 102.4-18.56 44.16-37.12 55.68-62.08 58.24-69.12 1.28-3.2 3.84-5.12 7.04-5.12s5.76 1.92 7.04 5.12c2.56 7.04 13.44 31.36 58.24 69.12 49.28 41.6 95.36 23.04 96 23.04l3.2 8.32c0 0.64-12.16 5.12-30.08 5.12z" fill="#3F4C75" p-id="2240"></path></svg>