<?xml version="1.0" standalone="no"?><!DOCTYPE svg PUBLIC "-//W3C//DTD SVG 1.1//EN" "http://www.w3.org/Graphics/SVG/1.1/DTD/svg11.dtd"><svg t="1626481051875" class="icon" viewBox="0 0 2000 2000" version="1.1" xmlns="http://www.w3.org/2000/svg" p-id="2384" xmlns:xlink="http://www.w3.org/1999/xlink" width="100px" height="100px"><defs><style type="text/css"></style></defs><path d="M684.8 879.36l19.84 115.84c39.04-5.12 58.24-16 58.24-16s0-455.04-17.28-641.28-65.28-255.36-65.28-255.36l-3.84-39.04c0-2.56-2.56-4.48-5.12-4.48H359.68c-2.56 0-4.48 1.92-5.12 4.48l-3.84 39.04s-47.36 69.12-65.28 255.36C268.8 524.16 268.8 979.2 268.8 979.2s21.12 11.52 62.08 16.64l19.84-116.48-2.56 117.76c17.92 1.28 39.04 1.28 63.36-0.64 0 0 38.4-188.8 103.04-574.72 0-1.28 1.92-1.28 1.92 0 64.64 385.92 103.04 574.72 103.04 574.72 26.24 2.56 48.64 1.92 67.84 0.64l-2.56-117.76z" fill="#B9D4DB" p-id="2385"></path><path d="M768.64 979.2h-42.88c0-4.48 0-460.8-17.28-643.84-16.64-176.64-60.8-245.12-61.44-245.76l-3.2-4.48-0.64-5.76-3.2-37.76 42.88-4.48 3.2 33.92c11.52 19.84 49.92 96.64 65.28 260.48 17.28 185.6 17.28 643.2 17.28 647.68z" fill="#93BAC1" p-id="2386"></path><path d="M654.72 1003.52c-11.52 0-23.04-0.64-35.84-1.92-3.84 0-6.4-3.2-7.04-6.4-0.64-1.92-36.48-179.2-96-533.76-59.52 353.92-96 531.84-96 533.76-0.64 3.2-3.84 5.76-7.04 6.4-22.4 1.92-40.32 2.56-60.16 0.64-4.48 0-7.68-3.84-7.68-7.68l-0.64-45.44-9.6 44.8c-0.64 3.84-4.48 7.04-8.96 6.4-42.88-5.12-60.8-17.28-61.44-17.92-1.92-1.28-3.2-3.84-3.2-6.4 0-3.2 0-332.8 10.88-543.36l6.4-98.56c16-172.16 57.6-245.76 65.28-257.92l3.84-37.12c0.64-6.4 6.4-11.52 12.8-11.52H672c6.4 0 12.16 5.12 12.8 11.52l3.84 37.12c7.68 12.16 49.28 85.12 65.28 257.92 17.28 184.32 17.28 637.44 17.28 641.92 0 2.56-1.28 5.12-3.2 6.4-0.64 0.64-17.28 11.52-57.6 17.28-4.48 0.64-8.32-1.92-8.96-6.4l-9.6-44.8-0.64 44.8c0 3.84-3.2 7.68-7.68 7.68-9.6 1.92-19.2 2.56-28.8 2.56z m-28.8-17.28c17.92 1.28 32.64 1.28 48.64 0.64l1.28-110.08c0-3.84 3.2-7.68 7.04-7.68 3.84-0.64 7.68 2.56 8.32 6.4l22.4 108.16c21.12-3.84 33.92-8.96 39.68-11.52 0-48.64-1.28-462.08-17.28-636.16-16.64-181.12-63.36-250.88-63.36-252.16-0.64-1.28-1.28-2.56-1.28-3.84l-3.84-35.84H362.24l-3.84 35.84c0 1.28-0.64 2.56-1.28 3.84-0.64 0.64-46.72 70.4-63.36 252.16l-6.4 97.92c-9.6 196.48-10.88 496.64-10.88 537.6 5.76 3.2 19.84 8.32 43.52 12.16l23.04-108.8c0.64-3.84 4.48-7.04 8.96-6.4 3.84 0.64 7.04 3.84 7.04 7.68l1.28 110.72c14.72 0.64 28.16 0.64 44.16-0.64 7.04-34.56 44.16-224 101.76-568.32 0.64-4.48 4.48-7.68 8.96-7.68s8.32 3.2 8.96 7.68c57.6 343.68 94.72 533.12 101.76 568.32zM508.8 419.84z m13.44 0" fill="#3F4C75" p-id="2387"></path><path d="M723.2 206.08c-0.64 0-1.92 0-2.56-0.64-66.56-39.68-78.08-119.68-78.08-122.88-0.64-3.2 1.92-5.76 4.48-5.76 3.2-0.64 5.76 1.92 5.76 4.48 0 0.64 11.52 78.08 73.6 115.2 2.56 1.28 3.2 5.12 1.92 7.04-1.28 1.28-3.2 2.56-5.12 2.56zM307.2 206.08c-1.92 0-3.84-0.64-4.48-2.56-1.28-2.56-0.64-5.76 1.92-7.04 62.08-37.12 71.04-114.56 71.04-115.2 0.64-3.2 3.2-5.12 5.76-4.48 3.2 0 5.12 3.2 4.48 5.76-0.64 3.2-9.6 83.2-76.16 122.88-0.64 0-1.28 0.64-2.56 0.64z" fill="#3F4C75" p-id="2388"></path><path d="M682.24 84.48H348.8c-3.2 0-5.12-2.56-5.12-5.12s2.56-5.12 5.12-5.12h333.44c3.2 0 5.12 2.56 5.12 5.12s-1.92 5.12-5.12 5.12z" fill="#3F4C75" p-id="2389"></path><path d="M504.96 247.04c-3.2 0-5.12-2.56-5.12-5.12V81.28c0-3.2 2.56-5.12 5.12-5.12 3.2 0 5.12 2.56 5.12 5.12v154.24c11.52-2.56 19.84-11.52 19.84-22.4V81.28c0-3.2 2.56-5.12 5.12-5.12 3.2 0 5.12 2.56 5.12 5.12v131.84c0 18.56-16 33.92-35.2 33.92z" fill="#3F4C75" p-id="2390"></path><path d="M317.44 464s-0.64 0 0 0c-5.12 0-8.32-3.84-8.32-8.32 0-6.4 0.64-12.16 0.64-17.92L317.44 332.8c0.64-4.48 4.48-7.68 8.96-7.04 4.48 0.64 7.68 4.48 7.04 8.96l-0.64 5.12-6.4 97.92c0 5.76-0.64 12.16-0.64 17.92-0.64 4.48-4.48 8.32-8.32 8.32zM330.24 300.16h-1.28c-4.48-0.64-7.68-4.48-7.04-8.96 1.28-10.88 3.2-21.76 4.48-32 0.64-4.48 5.12-7.04 8.96-6.4 4.48 0.64 7.04 5.12 6.4 8.96-1.92 10.24-3.2 20.48-4.48 31.36 0 3.84-3.2 7.04-7.04 7.04z" fill="#FFFFFF" p-id="2391"></path></svg>